  0
SECTION
  2
HEADER
  9
$ACADVER
  1
AC1032
  9
$ACADMAINTVER
 90
      377
  9
$DWGCODEPAGE
  3
ANSI_1252
  9
$LASTSAVEDBY
  1
quark
  9
$REQUIREDVERSIONS
160
                 0
  9
$INSBASE
 10
0.0
 20
0.0
 30
0.0
  9
$EXTMIN
 10
5.404059999999999
 20
14.0394
 30
0.0
  9
$EXTMAX
 10
291.69
 20
108.938697
 30
0.0
  9
$LIMMIN
 10
0.0
 20
0.0
  9
$LIMMAX
 10
12.0
 20
9.0
  9
$ORTHOMODE
 70
     0
  9
$REGENMODE
 70
     1
  9
$FILLMODE
 70
     1
  9
$QTEXTMODE
 70
     0
  9
$MIRRTEXT
 70
     0
  9
$LTSCALE
 40
1.0
  9
$ATTMODE
 70
     1
  9
$TEXTSIZE
 40
0.2
  9
$TRACEWID
 40
0.05
  9
$TEXTSTYLE
  7
Standard
  9
$CLAYER
  8
0
  9
$CELTYPE
  6
Continuous
  9
$CECOLOR
 62
   256
  9
$CELTSCALE
 40
1.0
  9
$DISPSILH
 70
     0
  9
$DIMSCALE
 40
1.0
  9
$DIMASZ
 40
0.18
  9
$DIMEXO
 40
0.0625
  9
$DIMDLI
 40
0.38
  9
$DIMRND
 40
0.0
  9
$DIMDLE
 40
0.0
  9
$DIMEXE
 40
0.18
  9
$DIMTP
 40
0.0
  9
$DIMTM
 40
0.0
  9
$DIMTXT
 40
0.18
  9
$DIMCEN
 40
0.09
  9
$DIMTSZ
 40
0.0
  9
$DIMTOL
 70
     0
  9
$DIMLIM
 70
     0
  9
$DIMTIH
 70
     1
  9
$DIMTOH
 70
     1
  9
$DIMSE1
 70
     0
  9
$DIMSE2
 70
     0
  9
$DIMTAD
 70
     0
  9
$DIMZIN
 70
     0
  9
$DIMBLK
  1

  9
$DIMASO
 70
     1
  9
$DIMSHO
 70
     1
  9
$DIMPOST
  1

  9
$DIMAPOST
  1

  9
$DIMALT
 70
     0
  9
$DIMALTD
 70
     2
  9
$DIMALTF
 40
25.4
  9
$DIMLFAC
 40
1.0
  9
$DIMTOFL
 70
     0
  9
$DIMTVP
 40
0.0
  9
$DIMTIX
 70
     0
  9
$DIMSOXD
 70
     0
  9
$DIMSAH
 70
     0
  9
$DIMBLK1
  1

  9
$DIMBLK2
  1

  9
$DIMSTYLE
  2
Standard
  9
$DIMCLRD
 70
     0
  9
$DIMCLRE
 70
     0
  9
$DIMCLRT
 70
     0
  9
$DIMTFAC
 40
1.0
  9
$DIMGAP
 40
0.09
  9
$DIMJUST
 70
     0
  9
$DIMSD1
 70
     0
  9
$DIMSD2
 70
     0
  9
$DIMTOLJ
 70
     1
  9
$DIMTZIN
 70
     0
  9
$DIMALTZ
 70
     0
  9
$DIMALTTZ
 70
     0
  9
$DIMUPT
 70
     0
  9
$DIMDEC
 70
     4
  9
$DIMTDEC
 70
     4
  9
$DIMALTU
 70
     2
  9
$DIMALTTD
 70
     2
  9
$DIMTXSTY
  7
Standard
  9
$DIMAUNIT
 70
     0
  9
$DIMADEC
 70
     0
  9
$DIMALTRND
 40
0.0
  9
$DIMAZIN
 70
     0
  9
$DIMDSEP
 70
    46
  9
$DIMATFIT
 70
     3
  9
$DIMFRAC
 70
     0
  9
$DIMLDRBLK
  1

  9
$DIMLUNIT
 70
     2
  9
$DIMLWD
 70
    -2
  9
$DIMLWE
 70
    -2
  9
$DIMTMOVE
 70
     0
  9
$DIMFXL
 40
1.0
  9
$DIMFXLON
 70
     0
  9
$DIMJOGANG
 40
0.7853981633974483
  9
$DIMTFILL
 70
     0
  9
$DIMTFILLCLR
 70
     0
  9
$DIMARCSYM
 70
     0
  9
$DIMLTYPE
  6

  9
$DIMLTEX1
  6

  9
$DIMLTEX2
  6

  9
$DIMTXTDIRECTION
 70
     0
  9
$LUNITS
 70
     2
  9
$LUPREC
 70
     4
  9
$SKETCHINC
 40
0.1
  9
$FILLETRAD
 40
0.0
  9
$AUNITS
 70
     0
  9
$AUPREC
 70
     0
  9
$MENU
  1
.
  9
$ELEVATION
 40
0.0
  9
$PELEVATION
 40
0.0
  9
$THICKNESS
 40
0.0
  9
$LIMCHECK
 70
     0
  9
$CHAMFERA
 40
0.0
  9
$CHAMFERB
 40
0.0
  9
$CHAMFERC
 40
0.0
  9
$CHAMFERD
 40
0.0
  9
$SKPOLY
 70
     0
  9
$TDCREATE
 40
2461013.799270833
  9
$TDUCREATE
 40
2461014.049270833
  9
$TDUPDATE
 40
2461013.803217593
  9
$TDUUPDATE
 40
2461014.053217593
  9
$TDINDWG
 40
0.0034837963
  9
$TDUSRTIMER
 40
0.0034837963
  9
$USRTIMER
 70
     1
  9
$ANGBASE
 50
0.0
  9
$ANGDIR
 70
     0
  9
$PDMODE
 70
     0
  9
$PDSIZE
 40
0.0
  9
$PLINEWID
 40
0.0
  9
$SPLFRAME
 70
     0
  9
$SPLINETYPE
 70
     6
  9
$SPLINESEGS
 70
     8
  9
$HANDSEED
  5
1153
  9
$SURFTAB1
 70
     6
  9
$SURFTAB2
 70
     6
  9
$SURFTYPE
 70
     6
  9
$SURFU
 70
     6
  9
$SURFV
 70
     6
  9
$UCSBASE
  2

  9
$UCSNAME
  2

  9
$UCSORG
 10
0.0
 20
0.0
 30
0.0
  9
$UCSXDIR
 10
1.0
 20
0.0
 30
0.0
  9
$UCSYDIR
 10
0.0
 20
1.0
 30
0.0
  9
$UCSORTHOREF
  2

  9
$UCSORTHOVIEW
 70
     0
  9
$UCSORGTOP
 10
0.0
 20
0.0
 30
0.0
  9
$UCSORGBOTTOM
 10
0.0
 20
0.0
 30
0.0
  9
$UCSORGLEFT
 10
0.0
 20
0.0
 30
0.0
  9
$UCSORGRIGHT
 10
0.0
 20
0.0
 30
0.0
  9
$UCSORGFRONT
 10
0.0
 20
0.0
 30
0.0
  9
$UCSORGBACK
 10
0.0
 20
0.0
 30
0.0
  9
$PUCSBASE
  2

  9
$PUCSNAME
  2

  9
$PUCSORG
 10
0.0
 20
0.0
 30
0.0
  9
$PUCSXDIR
 10
1.0
 20
0.0
 30
0.0
  9
$PUCSYDIR
 10
0.0
 20
1.0
 30
0.0
  9
$PUCSORTHOREF
  2

  9
$PUCSORTHOVIEW
 70
     0
  9
$PUCSORGTOP
 10
0.0
 20
0.0
 30
0.0
  9
$PUCSORGBOTTOM
 10
0.0
 20
0.0
 30
0.0
  9
$PUCSORGLEFT
 10
0.0
 20
0.0
 30
0.0
  9
$PUCSORGRIGHT
 10
0.0
 20
0.0
 30
0.0
  9
$PUCSORGFRONT
 10
0.0
 20
0.0
 30
0.0
  9
$PUCSORGBACK
 10
0.0
 20
0.0
 30
0.0
  9
$USERI1
 70
     0
  9
$USERI2
 70
     0
  9
$USERI3
 70
     0
  9
$USERI4
 70
     0
  9
$USERI5
 70
     0
  9
$USERR1
 40
0.0
  9
$USERR2
 40
0.0
  9
$USERR3
 40
0.0
  9
$USERR4
 40
0.0
  9
$USERR5
 40
0.0
  9
$WORLDVIEW
 70
     1
  9
$SHADEDGE
 70
     3
  9
$SHADEDIF
 70
    70
  9
$TILEMODE
 70
     1
  9
$MAXACTVP
 70
    64
  9
$PINSBASE
 10
0.0
 20
0.0
 30
0.0
  9
$PLIMCHECK
 70
     0
  9
$PEXTMIN
 10
1.000000000000000E+20
 20
1.000000000000000E+20
 30
1.000000000000000E+20
  9
$PEXTMAX
 10
-1.000000000000000E+20
 20
-1.000000000000000E+20
 30
-1.000000000000000E+20
  9
$PLIMMIN
 10
0.0
 20
0.0
  9
$PLIMMAX
 10
12.0
 20
9.0
  9
$UNITMODE
 70
     0
  9
$VISRETAIN
 70
     1
  9
$PLINEGEN
 70
     0
  9
$PSLTSCALE
 70
     1
  9
$TREEDEPTH
 70
  3020
  9
$CMLSTYLE
  2
Standard
  9
$CMLJUST
 70
     0
  9
$CMLSCALE
 40
1.0
  9
$PROXYGRAPHICS
 70
     1
  9
$MEASUREMENT
 70
     0
  9
$CELWEIGHT
370
    -1
  9
$ENDCAPS
280
     0
  9
$JOINSTYLE
280
     0
  9
$LWDISPLAY
290
     0
  9
$INSUNITS
 70
     0
  9
$HYPERLINKBASE
  1

  9
$STYLESHEET
  1

  9
$XEDIT
290
     1
  9
$CEPSNTYPE
380
     0
  9
$PSTYLEMODE
290
     1
  9
$FINGERPRINTGUID
  2
{C7BF9AC5-59AA-6742-9D87-F15852E9C77A}
  9
$VERSIONGUID
  2
{295D3363-CD3C-C94D-A78B-AE702E0CF201}
  9
$EXTNAMES
290
     1
  9
$PSVPSCALE
 40
0.0
  9
$OLESTARTUP
290
     0
  9
$SORTENTS
280
   127
  9
$INDEXCTL
280
     0
  9
$HIDETEXT
280
     0
  9
$XCLIPFRAME
280
     2
  9
$HALOGAP
280
     0
  9
$OBSCOLOR
 70
   257
  9
$OBSLTYPE
280
     0
  9
$INTERSECTIONDISPLAY
280
     0
  9
$INTERSECTIONCOLOR
 70
   257
  9
$DIMASSOC
280
     1
  9
$PROJECTNAME
  1

  9
$CAMERADISPLAY
290
     0
  9
$LENSLENGTH
 40
50.0
  9
$CAMERAHEIGHT
 40
0.0
  9
$STEPSPERSEC
 40
2.0
  9
$STEPSIZE
 40
6.0
  9
$3DDWFPREC
 40
2.0
  9
$PSOLWIDTH
 40
0.25
  9
$PSOLHEIGHT
 40
4.0
  9
$LOFTANG1
 40
1.570796326794896
  9
$LOFTANG2
 40
1.570796326794896
  9
$LOFTMAG1
 40
0.0
  9
$LOFTMAG2
 40
0.0
  9
$LOFTPARAM
 70
     7
  9
$LOFTNORMALS
280
     1
  9
$LATITUDE
 40
37.795
  9
$LONGITUDE
 40
-122.394
  9
$NORTHDIRECTION
 40
0.0
  9
$TIMEZONE
 70
 -8000
  9
$LIGHTGLYPHDISPLAY
280
     1
  9
$TILEMODELIGHTSYNCH
280
     1
  9
$CMATERIAL
347
11
  9
$SOLIDHIST
280
     0
  9
$SHOWHIST
280
     1
  9
$DWFFRAME
280
     2
  9
$DGNFRAME
280
     0
  9
$REALWORLDSCALE
290
     1
  9
$INTERFERECOLOR
 62
     1
  9
$INTERFEREOBJVS
345
33
  9
$INTERFEREVPVS
346
30
  9
$CSHADOW
280
     0
  9
$SHADOWPLANELOCATION
 40
0.0
  0
ENDSEC
  0
SECTION
  2
CLASSES
  0
CLASS
  1
ACDBDICTIONARYWDFLT
  2
AcDbDictionaryWithDefault
  3
ObjectDBX Classes
 90
        0
 91
        1
280
     0
281
     0
  0
CLASS
  1
MATERIAL
  2
AcDbMaterial
  3
ObjectDBX Classes
 90
     1153
 91
        3
280
     0
281
     0
  0
CLASS
  1
VISUALSTYLE
  2
AcDbVisualStyle
  3
ObjectDBX Classes
 90
     4095
 91
       24
280
     0
281
     0
  0
CLASS
  1
SCALE
  2
AcDbScale
  3
ObjectDBX Classes
 90
     1153
 91
       17
280
     0
281
     0
  0
CLASS
  1
TABLESTYLE
  2
AcDbTableStyle
  3
ObjectDBX Classes
 90
     4095
 91
        1
280
     0
281
     0
  0
CLASS
  1
MLEADERSTYLE
  2
AcDbMLeaderStyle
  3
ACDB_MLEADERSTYLE_CLASS
 90
     4095
 91
        1
280
     0
281
     0
  0
CLASS
  1
ACDBSECTIONVIEWSTYLE
  2
AcDbSectionViewStyle
  3
ObjectDBX Classes
 90
     1025
 91
        1
280
     0
281
     0
  0
CLASS
  1
ACDBDETAILVIEWSTYLE
  2
AcDbDetailViewStyle
  3
ObjectDBX Classes
 90
     1025
 91
        1
280
     0
281
     0
  0
CLASS
  1
DICTIONARYVAR
  2
AcDbDictionaryVar
  3
ObjectDBX Classes
 90
        0
 91
        9
280
     0
281
     0
  0
CLASS
  1
CELLSTYLEMAP
  2
AcDbCellStyleMap
  3
ObjectDBX Classes
 90
     1152
 91
        1
280
     0
281
     0
  0
ENDSEC
  0
SECTION
  2
TABLES
  0
TABLE
  2
VPORT
  5
8
330
0
100
AcDbSymbolTable
 70
     1
  0
VPORT
  5
10E8
330
8
100
AcDbSymbolTableRecord
100
AcDbViewportTableRecord
  2
*Active
 70
     0
 10
0.0
 20
0.0
 11
1.0
 21
1.0
 12
220.6918783004113
 22
86.15792651543307
 13
0.0
 23
0.0
 14
1.0
 24
1.0
 15
0.0
 25
0.0
 16
0.0
 26
0.0
 36
1.0
 17
0.0
 27
0.0
 37
0.0
 40
266.5317655990481
 41
0.6601466992665037
 42
50.0
 43
0.0
 44
0.0
 50
0.0
 51
0.0
 71
     0
 72
  1000
 73
     1
 74
     3
 75
     0
 76
     0
 77
     0
 78
     0
281
     0
 65
     1
110
0.0
120
0.0
130
0.0
111
1.0
121
0.0
131
0.0
112
0.0
122
1.0
132
0.0
 79
     0
146
0.0
348
2F
 60
     3
 61
     5
292
     1
282
     1
141
0.0
142
0.0
 63
   250
421
  3355443
1001
ACAD_NAV_VCDISPLAY
1070
     1
  0
ENDTAB
  0
TABLE
  2
LTYPE
  5
5
330
0
100
AcDbSymbolTable
 70
     1
  0
LTYPE
  5
5A
330
5
100
AcDbSymbolTableRecord
100
AcDbLinetypeTableRecord
  2
ByBlock
 70
     0
  3

 72
    65
 73
     0
 40
0.0
  0
LTYPE
  5
5B
330
5
100
AcDbSymbolTableRecord
100
AcDbLinetypeTableRecord
  2
ByLayer
 70
     0
  3

 72
    65
 73
     0
 40
0.0
  0
LTYPE
  5
5C
330
5
100
AcDbSymbolTableRecord
100
AcDbLinetypeTableRecord
  2
Continuous
 70
     0
  3
Solid line
 72
    65
 73
     0
 40
0.0
  0
ENDTAB
  0
TABLE
  2
LAYER
  5
2
102
{ACAD_XDICTIONARY
360
1135
102
}
330
0
100
AcDbSymbolTable
 70
     3
  0
LAYER
  5
54
102
{ACAD_XDICTIONARY
360
112C
102
}
330
2
100
AcDbSymbolTableRecord
100
AcDbLayerTableRecord
  2
0
 70
     0
 62
     7
  6
Continuous
370
    -3
390
F
347
21
348
0
  0
LAYER
  5
73
102
{ACAD_XDICTIONARY
360
112E
102
}
330
2
100
AcDbSymbolTableRecord
100
AcDbLayerTableRecord
  2
Layer 1
 70
     0
 62
     7
  6
Continuous
370
    -3
390
F
347
21
348
0
  0
LAYER
  5
925
102
{ACAD_XDICTIONARY
360
1130
102
}
330
2
100
AcDbSymbolTableRecord
100
AcDbLayerTableRecord
  2
Layer 2
 70
     0
 62
     7
  6
Continuous
370
    -3
390
F
347
21
348
0
  0
ENDTAB
  0
TABLE
  2
STYLE
  5
3
330
0
100
AcDbSymbolTable
 70
     2
  0
STYLE
  5
55
330
3
100
AcDbSymbolTableRecord
100
AcDbTextStyleTableRecord
  2
Standard
 70
     0
 40
0.0
 41
1.0
 50
0.0
 71
     0
 42
0.2
  3
txt
  4

  0
STYLE
  5
59
330
3
100
AcDbSymbolTableRecord
100
AcDbTextStyleTableRecord
  2
Annotative
 70
     0
 40
0.0
 41
1.0
 50
0.0
 71
     0
 42
0.2
  3
txt
  4

1001
AcadAnnotative
1000
AnnotativeData
1002
{
1070
     1
1070
     1
1002
}
  0
ENDTAB
  0
TABLE
  2
VIEW
  5
6
330
0
100
AcDbSymbolTable
 70
     1
  0
ENDTAB
  0
TABLE
  2
UCS
  5
7
330
0
100
AcDbSymbolTable
 70
     0
  0
ENDTAB
  0
TABLE
  2
APPID
  5
9
330
0
100
AcDbSymbolTable
 70
     4
  0
APPID
  5
56
330
9
100
AcDbSymbolTableRecord
100
AcDbRegAppTableRecord
  2
ACAD
 70
     0
  0
APPID
  5
5D
330
9
100
AcDbSymbolTableRecord
100
AcDbRegAppTableRecord
  2
AcadAnnotative
 70
     0
  0
APPID
  5
10E7
330
9
100
AcDbSymbolTableRecord
100
AcDbRegAppTableRecord
  2
ACAD_NAV_VCDISPLAY
 70
     0
  0
APPID
  5
10EA
330
9
100
AcDbSymbolTableRecord
100
AcDbRegAppTableRecord
  2
ACAD_EXEMPT_FROM_CAD_STANDARDS
 70
     0
  0
ENDTAB
  0
TABLE
  2
DIMSTYLE
  5
A
330
0
100
AcDbSymbolTable
 70
     2
100
AcDbDimStyleTable
 71
     1
340
57
  0
DIMSTYLE
105
57
330
A
100
AcDbSymbolTableRecord
100
AcDbDimStyleTableRecord
  2
Standard
 70
     0
340
55
  0
DIMSTYLE
105
58
330
A
100
AcDbSymbolTableRecord
100
AcDbDimStyleTableRecord
  2
Annotative
 70
     0
340
55
1001
AcadAnnotative
1000
AnnotativeData
1002
{
1070
     1
1070
     1
1002
}
  0
ENDTAB
  0
TABLE
  2
BLOCK_RECORD
  5
1
330
0
100
AcDbSymbolTable
 70
     0
  0
BLOCK_RECORD
  5
6F
330
1
100
AcDbSymbolTableRecord
100
AcDbBlockTableRecord
  2
*Model_Space
340
72
 70
     0
280
     1
281
     0
  0
BLOCK_RECORD
  5
6B
330
1
100
AcDbSymbolTableRecord
100
AcDbBlockTableRecord
  2
*Paper_Space
340
6E
 70
     0
280
     1
281
     0
  0
ENDTAB
  0
ENDSEC
  0
SECTION
  2
BLOCKS
  0
BLOCK
  5
70
330
6F
100
AcDbEntity
  8
0
100
AcDbBlockBegin
  2
*Model_Space
 70
     0
 10
0.0
 20
0.0
 30
0.0
  3
*Model_Space
  1

  0
ENDBLK
  5
71
330
6F
100
AcDbEntity
  8
0
100
AcDbBlockEnd
  0
BLOCK
  5
6C
330
6B
100
AcDbEntity
 67
     1
  8
0
100
AcDbBlockBegin
  2
*Paper_Space
 70
     0
 10
0.0
 20
0.0
 30
0.0
  3
*Paper_Space
  1

  0
ENDBLK
  5
6D
330
6B
100
AcDbEntity
 67
     1
  8
0
100
AcDbBlockEnd
  0
ENDSEC
  0
SECTION
  2
ENTITIES
  0
LWPOLYLINE
  5
902
330
6F
100
AcDbEntity
  8
Layer 1
 62
     7
100
AcDbPolyline
 90
       33
 70
     0
 43
0.0
 10
238.63
 20
45.5484
 10
241.118394
 20
45.29754899999999
 10
243.436091
 20
44.57809799999999
 10
245.533439
 20
43.439696
 10
247.36079
 20
41.931995
 10
248.868491
 20
40.104644
 10
250.006893
 20
38.007296
 10
250.726344
 20
35.689599
 10
250.977195
 20
33.201205
 10
250.726344
 20
30.712811
 10
250.006893
 20
28.39511400000001
 10
248.868491
 20
26.297766
 10
247.36079
 20
24.470415
 10
245.533439
 20
22.962714
 10
243.436091
 20
21.824312
 10
241.118394
 20
21.104861
 10
238.63
 20
20.85401
 10
236.141606
 20
21.104861
 10
233.823909
 20
21.824312
 10
231.726561
 20
22.962714
 10
229.89921
 20
24.470415
 10
228.391509
 20
26.297766
 10
227.253107
 20
28.39511400000001
 10
226.533656
 20
30.712811
 10
226.2828049999999
 20
33.201205
 10
226.533656
 20
35.689599
 10
227.253107
 20
38.007296
 10
228.391509
 20
40.104644
 10
229.89921
 20
41.931995
 10
231.726561
 20
43.439696
 10
233.823909
 20
44.57809799999999
 10
236.141606
 20
45.29754899999999
 10
238.63
 20
45.5484
  0
LWPOLYLINE
  5
926
330
6F
100
AcDbEntity
  8
Layer 2
 62
     7
100
AcDbPolyline
 90
       34
 70
     0
 43
0.0
 10
238.63
 20
45.5484
 10
241.118394
 20
45.29754899999999
 10
243.436091
 20
44.57809799999999
 10
245.533439
 20
43.439696
 10
247.36079
 20
41.931995
 10
248.868491
 20
40.104644
 10
250.006893
 20
38.007296
 10
250.726344
 20
35.689599
 10
250.977195
 20
33.201205
 10
250.726344
 20
30.712811
 10
250.006893
 20
28.39511400000001
 10
248.868491
 20
26.297766
 10
247.36079
 20
24.470415
 10
245.533439
 20
22.962714
 10
243.436091
 20
21.824312
 10
241.118394
 20
21.104861
 10
238.63
 20
20.85401
 10
236.141606
 20
21.104861
 10
233.823909
 20
21.824312
 10
231.726561
 20
22.962714
 10
229.89921
 20
24.470415
 10
228.391509
 20
26.297766
 10
227.253107
 20
28.39511400000001
 10
226.533656
 20
30.712811
 10
226.2828049999999
 20
33.201205
 10
226.533656
 20
35.689599
 10
227.253107
 20
38.007296
 10
228.391509
 20
40.104644
 10
229.89921
 20
41.931995
 10
231.726561
 20
43.439696
 10
233.823909
 20
44.57809799999999
 10
236.141606
 20
45.29754899999999
 10
238.63
 20
45.5484
 10
238.63
 20
45.5484
  0
LWPOLYLINE
  5
94A
330
6F
100
AcDbEntity
  8
Layer 1
 62
     7
100
AcDbPolyline
 90
       33
 70
     0
 43
0.0
 10
58.4655
 20
45.5055
 10
60.95389399999999
 20
45.254649
 10
63.271591
 20
44.535198
 10
65.36893899999999
 20
43.396796
 10
67.19629000000001
 20
41.889095
 10
68.703991
 20
40.06174399999999
 10
69.842393
 20
37.964396
 10
70.56184399999999
 20
35.646699
 10
70.81269499999999
 20
33.158305
 10
70.56184399999999
 20
30.669911
 10
69.842393
 20
28.352214
 10
68.703991
 20
26.254866
 10
67.19629000000001
 20
24.427515
 10
65.36893899999999
 20
22.919814
 10
63.271591
 20
21.781412
 10
60.95389399999999
 20
21.061961
 10
58.4655
 20
20.81111
 10
55.977106
 20
21.061961
 10
53.659409
 20
21.781412
 10
51.562061
 20
22.919814
 10
49.73470999999999
 20
24.427515
 10
48.227009
 20
26.254866
 10
47.088607
 20
28.352214
 10
46.369156
 20
30.669911
 10
46.11830499999999
 20
33.158305
 10
46.369156
 20
35.646699
 10
47.088607
 20
37.964396
 10
48.227009
 20
40.06174399999999
 10
49.73470999999999
 20
41.889095
 10
51.562061
 20
43.396796
 10
53.659409
 20
44.535198
 10
55.977106
 20
45.254649
 10
58.4655
 20
45.5055
  0
LWPOLYLINE
  5
96D
330
6F
100
AcDbEntity
  8
Layer 2
 62
     7
100
AcDbPolyline
 90
       34
 70
     0
 43
0.0
 10
58.4655
 20
45.5055
 10
60.95389399999999
 20
45.254649
 10
63.271591
 20
44.535198
 10
65.36893899999999
 20
43.396796
 10
67.19629000000001
 20
41.889095
 10
68.703991
 20
40.06174399999999
 10
69.842393
 20
37.964396
 10
70.56184399999999
 20
35.646699
 10
70.81269499999999
 20
33.158305
 10
70.56184399999999
 20
30.669911
 10
69.842393
 20
28.352214
 10
68.703991
 20
26.254866
 10
67.19629000000001
 20
24.427515
 10
65.36893899999999
 20
22.919814
 10
63.271591
 20
21.781412
 10
60.95389399999999
 20
21.061961
 10
58.4655
 20
20.81111
 10
55.977106
 20
21.061961
 10
53.659409
 20
21.781412
 10
51.562061
 20
22.919814
 10
49.73470999999999
 20
24.427515
 10
48.227009
 20
26.254866
 10
47.088607
 20
28.352214
 10
46.369156
 20
30.669911
 10
46.11830499999999
 20
33.158305
 10
46.369156
 20
35.646699
 10
47.088607
 20
37.964396
 10
48.227009
 20
40.06174399999999
 10
49.73470999999999
 20
41.889095
 10
51.562061
 20
43.396796
 10
53.659409
 20
44.535198
 10
55.977106
 20
45.254649
 10
58.4655
 20
45.5055
 10
58.4655
 20
45.5055
  0
LWPOLYLINE
  5
991
330
6F
100
AcDbEntity
  8
Layer 1
 62
     7
100
AcDbPolyline
 90
        2
 70
     0
 43
0.0
 10
267.523
 20
61.7742
 10
264.871881
 20
80.638597
  0
LWPOLYLINE
  5
995
330
6F
100
AcDbEntity
  8
Layer 2
 62
     7
100
AcDbPolyline
 90
        2
 70
     0
 43
0.0
 10
267.523
 20
61.7742
 10
264.871881
 20
80.638597
  0
LWPOLYLINE
  5
999
330
6F
100
AcDbEntity
  8
Layer 1
 62
     7
100
AcDbPolyline
 90
        2
 70
     0
 43
0.0
 10
246.008
 20
77.98739999999999
 10
248.659119
 20
59.123003
  0
LWPOLYLINE
  5
99D
330
6F
100
AcDbEntity
  8
Layer 2
 62
     7
100
AcDbPolyline
 90
        2
 70
     0
 43
0.0
 10
246.008
 20
77.98739999999999
 10
248.659119
 20
59.123003
  0
LWPOLYLINE
  5
9A1
330
6F
100
AcDbEntity
  8
Layer 1
 62
     7
100
AcDbPolyline
 90
        2
 70
     0
 43
0.0
 10
246.008
 20
77.98739999999999
 10
264.872397
 20
80.63851899999999
  0
LWPOLYLINE
  5
9A5
330
6F
100
AcDbEntity
  8
Layer 2
 62
     7
100
AcDbPolyline
 90
        2
 70
     0
 43
0.0
 10
246.008
 20
77.98739999999999
 10
264.872397
 20
80.63851899999999
  0
LWPOLYLINE
  5
9A9
330
6F
100
AcDbEntity
  8
Layer 1
 62
     7
100
AcDbPolyline
 90
        2
 70
     0
 43
0.0
 10
248.659
 20
59.12279999999999
 10
267.523397
 20
61.77391899999999
  0
LWPOLYLINE
  5
9AD
330
6F
100
AcDbEntity
  8
Layer 2
 62
     7
100
AcDbPolyline
 90
        2
 70
     0
 43
0.0
 10
248.659
 20
59.12279999999999
 10
267.523397
 20
61.77391899999999
  0
LWPOLYLINE
  5
9B1
330
6F
100
AcDbEntity
  8
Layer 1
 62
     7
100
AcDbPolyline
 90
        2
 70
     0
 43
0.0
 10
48.43569999999999
 20
59.08
 10
51.086819
 20
77.94439699999999
  0
LWPOLYLINE
  5
9B5
330
6F
100
AcDbEntity
  8
Layer 2
 62
     7
100
AcDbPolyline
 90
        2
 70
     0
 43
0.0
 10
48.43569999999999
 20
59.08
 10
51.086819
 20
77.94439699999999
  0
LWPOLYLINE
  5
9B9
330
6F
100
AcDbEntity
  8
Layer 1
 62
     7
100
AcDbPolyline
 90
        2
 70
     0
 43
0.0
 10
32.2223
 20
80.5959
 10
29.571181
 20
61.731503
  0
LWPOLYLINE
  5
9BD
330
6F
100
AcDbEntity
  8
Layer 2
 62
     7
100
AcDbPolyline
 90
        2
 70
     0
 43
0.0
 10
32.2223
 20
80.5959
 10
29.571181
 20
61.731503
  0
LWPOLYLINE
  5
9C1
330
6F
100
AcDbEntity
  8
Layer 1
 62
     7
100
AcDbPolyline
 90
        2
 70
     0
 43
0.0
 10
32.2223
 20
80.5959
 10
51.086697
 20
77.944781
  0
LWPOLYLINE
  5
9C5
330
6F
100
AcDbEntity
  8
Layer 2
 62
     7
100
AcDbPolyline
 90
        2
 70
     0
 43
0.0
 10
32.2223
 20
80.5959
 10
51.086697
 20
77.944781
  0
LWPOLYLINE
  5
9C9
330
6F
100
AcDbEntity
  8
Layer 1
 62
     7
100
AcDbPolyline
 90
        2
 70
     0
 43
0.0
 10
29.5712
 20
61.7314
 10
48.435597
 20
59.08028100000001
  0
LWPOLYLINE
  5
9CD
330
6F
100
AcDbEntity
  8
Layer 2
 62
     7
100
AcDbPolyline
 90
        2
 70
     0
 43
0.0
 10
29.5712
 20
61.7314
 10
48.435597
 20
59.08028100000001
  0
LWPOLYLINE
  5
9D1
330
6F
100
AcDbEntity
  8
Layer 1
 62
     7
100
AcDbPolyline
 90
        2
 70
     0
 43
0.0
 10
247.085
 20
70.3237
 10
244.433881
 20
89.188097
  0
LWPOLYLINE
  5
9D5
330
6F
100
AcDbEntity
  8
Layer 2
 62
     7
100
AcDbPolyline
 90
        2
 70
     0
 43
0.0
 10
247.085
 20
70.3237
 10
244.433881
 20
89.188097
  0
LWPOLYLINE
  5
9D9
330
6F
100
AcDbEntity
  8
Layer 1
 62
     7
100
AcDbPolyline
 90
        2
 70
     0
 43
0.0
 10
225.569
 20
86.5371
 10
228.220119
 20
67.67270299999999
  0
LWPOLYLINE
  5
9DD
330
6F
100
AcDbEntity
  8
Layer 2
 62
     7
100
AcDbPolyline
 90
        2
 70
     0
 43
0.0
 10
225.569
 20
86.5371
 10
228.220119
 20
67.67270299999999
  0
LWPOLYLINE
  5
9E1
330
6F
100
AcDbEntity
  8
Layer 1
 62
     7
100
AcDbPolyline
 90
        2
 70
     0
 43
0.0
 10
225.569
 20
86.5371
 10
244.433397
 20
89.18821899999999
  0
LWPOLYLINE
  5
9E5
330
6F
100
AcDbEntity
  8
Layer 2
 62
     7
100
AcDbPolyline
 90
        2
 70
     0
 43
0.0
 10
225.569
 20
86.5371
 10
244.433397
 20
89.18821899999999
  0
LWPOLYLINE
  5
9E9
330
6F
100
AcDbEntity
  8
Layer 1
 62
     7
100
AcDbPolyline
 90
        2
 70
     0
 43
0.0
 10
228.22
 20
67.6726
 10
247.084397
 20
70.323719
  0
LWPOLYLINE
  5
9ED
330
6F
100
AcDbEntity
  8
Layer 2
 62
     7
100
AcDbPolyline
 90
        2
 70
     0
 43
0.0
 10
228.22
 20
67.6726
 10
247.084397
 20
70.323719
  0
LWPOLYLINE
  5
9F1
330
6F
100
AcDbEntity
  8
Layer 1
 62
     7
100
AcDbPolyline
 90
        2
 70
     0
 43
0.0
 10
91.3945
 20
22.7786
 10
91.3945
 20
41.828558
  0
LWPOLYLINE
  5
9F5
330
6F
100
AcDbEntity
  8
Layer 2
 62
     7
100
AcDbPolyline
 90
        2
 70
     0
 43
0.0
 10
91.3945
 20
22.7786
 10
91.3945
 20
41.828558
  0
LWPOLYLINE
  5
9F9
330
6F
100
AcDbEntity
  8
Layer 1
 62
     7
100
AcDbPolyline
 90
        2
 70
     0
 43
0.0
 10
72.34449999999999
 20
41.8286
 10
72.34449999999999
 20
22.778642
  0
LWPOLYLINE
  5
9FD
330
6F
100
AcDbEntity
  8
Layer 2
 62
     7
100
AcDbPolyline
 90
        2
 70
     0
 43
0.0
 10
72.34449999999999
 20
41.8286
 10
72.34449999999999
 20
22.778642
  0
LWPOLYLINE
  5
A01
330
6F
100
AcDbEntity
  8
Layer 1
 62
     7
100
AcDbPolyline
 90
        2
 70
     0
 43
0.0
 10
72.34449999999999
 20
41.8286
 10
91.394458
 20
41.8286
  0
LWPOLYLINE
  5
A05
330
6F
100
AcDbEntity
  8
Layer 2
 62
     7
100
AcDbPolyline
 90
        2
 70
     0
 43
0.0
 10
72.34449999999999
 20
41.8286
 10
91.394458
 20
41.8286
  0
LWPOLYLINE
  5
A09
330
6F
100
AcDbEntity
  8
Layer 1
 62
     7
100
AcDbPolyline
 90
        2
 70
     0
 43
0.0
 10
72.34449999999999
 20
22.7786
 10
91.394458
 20
22.7786
  0
LWPOLYLINE
  5
A0D
330
6F
100
AcDbEntity
  8
Layer 2
 62
     7
100
AcDbPolyline
 90
        2
 70
     0
 43
0.0
 10
72.34449999999999
 20
22.7786
 10
91.394458
 20
22.7786
  0
LWPOLYLINE
  5
A11
330
6F
100
AcDbEntity
  8
Layer 1
 62
     7
100
AcDbPolyline
 90
        2
 70
     0
 43
0.0
 10
51.0871
 20
77.9448
 10
53.73821899999999
 20
96.809197
  0
LWPOLYLINE
  5
A15
330
6F
100
AcDbEntity
  8
Layer 2
 62
     7
100
AcDbPolyline
 90
        2
 70
     0
 43
0.0
 10
51.0871
 20
77.9448
 10
53.73821899999999
 20
96.809197
  0
LWPOLYLINE
  5
A19
330
6F
100
AcDbEntity
  8
Layer 1
 62
     7
100
AcDbPolyline
 90
        2
 70
     0
 43
0.0
 10
34.8737
 20
99.46040000000001
 10
32.222581
 20
80.59600299999999
  0
LWPOLYLINE
  5
A1D
330
6F
100
AcDbEntity
  8
Layer 2
 62
     7
100
AcDbPolyline
 90
        2
 70
     0
 43
0.0
 10
34.8737
 20
99.46040000000001
 10
32.222581
 20
80.59600299999999
  0
LWPOLYLINE
  5
A21
330
6F
100
AcDbEntity
  8
Layer 1
 62
     7
100
AcDbPolyline
 90
        2
 70
     0
 43
0.0
 10
34.8737
 20
99.46040000000001
 10
53.73809699999999
 20
96.809281
  0
LWPOLYLINE
  5
A25
330
6F
100
AcDbEntity
  8
Layer 2
 62
     7
100
AcDbPolyline
 90
        2
 70
     0
 43
0.0
 10
34.8737
 20
99.46040000000001
 10
53.73809699999999
 20
96.809281
  0
LWPOLYLINE
  5
A29
330
6F
100
AcDbEntity
  8
Layer 1
 62
     7
100
AcDbPolyline
 90
        2
 70
     0
 43
0.0
 10
32.2223
 20
80.5959
 10
51.086697
 20
77.944781
  0
LWPOLYLINE
  5
A2D
330
6F
100
AcDbEntity
  8
Layer 2
 62
     7
100
AcDbPolyline
 90
        2
 70
     0
 43
0.0
 10
32.2223
 20
80.5959
 10
51.086697
 20
77.944781
  0
LWPOLYLINE
  5
A31
330
6F
100
AcDbEntity
  8
Layer 1
 62
     7
100
AcDbPolyline
 90
        2
 70
     0
 43
0.0
 10
125.137
 20
57.3178
 10
127.788119
 20
76.182197
  0
LWPOLYLINE
  5
A35
330
6F
100
AcDbEntity
  8
Layer 2
 62
     7
100
AcDbPolyline
 90
        2
 70
     0
 43
0.0
 10
125.137
 20
57.3178
 10
127.788119
 20
76.182197
  0
LWPOLYLINE
  5
A39
330
6F
100
AcDbEntity
  8
Layer 1
 62
     7
100
AcDbPolyline
 90
        2
 70
     0
 43
0.0
 10
108.924
 20
78.83379999999999
 10
106.272881
 20
59.969403
  0
LWPOLYLINE
  5
A3D
330
6F
100
AcDbEntity
  8
Layer 2
 62
     7
100
AcDbPolyline
 90
        2
 70
     0
 43
0.0
 10
108.924
 20
78.83379999999999
 10
106.272881
 20
59.969403
  0
LWPOLYLINE
  5
A41
330
6F
100
AcDbEntity
  8
Layer 1
 62
     7
100
AcDbPolyline
 90
        2
 70
     0
 43
0.0
 10
108.924
 20
78.83379999999999
 10
127.788397
 20
76.182681
  0
LWPOLYLINE
  5
A45
330
6F
100
AcDbEntity
  8
Layer 2
 62
     7
100
AcDbPolyline
 90
        2
 70
     0
 43
0.0
 10
108.924
 20
78.83379999999999
 10
127.788397
 20
76.182681
  0
LWPOLYLINE
  5
A49
330
6F
100
AcDbEntity
  8
Layer 1
 62
     7
100
AcDbPolyline
 90
        2
 70
     0
 43
0.0
 10
106.273
 20
59.969
 10
125.137397
 20
57.31788100000001
  0
LWPOLYLINE
  5
A4D
330
6F
100
AcDbEntity
  8
Layer 2
 62
     7
100
AcDbPolyline
 90
        2
 70
     0
 43
0.0
 10
106.273
 20
59.969
 10
125.137397
 20
57.31788100000001
  0
LWPOLYLINE
  5
A51
330
6F
100
AcDbEntity
  8
Layer 1
 62
     7
100
AcDbPolyline
 90
        2
 70
     0
 43
0.0
 10
283.737
 20
83.28990000000001
 10
281.085881
 20
102.15465
  0
LWPOLYLINE
  5
A55
330
6F
100
AcDbEntity
  8
Layer 2
 62
     7
100
AcDbPolyline
 90
        2
 70
     0
 43
0.0
 10
283.737
 20
83.28990000000001
 10
281.085881
 20
102.15465
  0
LWPOLYLINE
  5
A59
330
6F
100
AcDbEntity
  8
Layer 1
 62
     7
100
AcDbPolyline
 90
        2
 70
     0
 43
0.0
 10
262.221
 20
99.50330000000001
 10
264.872119
 20
80.638903
  0
LWPOLYLINE
  5
A5D
330
6F
100
AcDbEntity
  8
Layer 2
 62
     7
100
AcDbPolyline
 90
        2
 70
     0
 43
0.0
 10
262.221
 20
99.50330000000001
 10
264.872119
 20
80.638903
  0
LWPOLYLINE
  5
A61
330
6F
100
AcDbEntity
  8
Layer 1
 62
     7
100
AcDbPolyline
 90
        2
 70
     0
 43
0.0
 10
262.221
 20
99.50330000000001
 10
281.085397
 20
102.154419
  0
LWPOLYLINE
  5
A65
330
6F
100
AcDbEntity
  8
Layer 2
 62
     7
100
AcDbPolyline
 90
        2
 70
     0
 43
0.0
 10
262.221
 20
99.50330000000001
 10
281.085397
 20
102.154419
  0
LWPOLYLINE
  5
A69
330
6F
100
AcDbEntity
  8
Layer 1
 62
     7
100
AcDbPolyline
 90
        2
 70
     0
 43
0.0
 10
264.872
 20
80.63869999999999
 10
283.73675
 20
83.289819
  0
LWPOLYLINE
  5
A6D
330
6F
100
AcDbEntity
  8
Layer 2
 62
     7
100
AcDbPolyline
 90
        2
 70
     0
 43
0.0
 10
264.872
 20
80.63869999999999
 10
283.73675
 20
83.289819
  0
LWPOLYLINE
  5
A71
330
6F
100
AcDbEntity
  8
Layer 1
 62
     7
100
AcDbPolyline
 90
        2
 70
     0
 43
0.0
 10
224.744
 20
22.7786
 10
224.744
 20
41.828558
  0
LWPOLYLINE
  5
A75
330
6F
100
AcDbEntity
  8
Layer 2
 62
     7
100
AcDbPolyline
 90
        2
 70
     0
 43
0.0
 10
224.744
 20
22.7786
 10
224.744
 20
41.828558
  0
LWPOLYLINE
  5
A79
330
6F
100
AcDbEntity
  8
Layer 1
 62
     7
100
AcDbPolyline
 90
        2
 70
     0
 43
0.0
 10
205.694
 20
41.8286
 10
205.694
 20
22.778642
  0
LWPOLYLINE
  5
A7D
330
6F
100
AcDbEntity
  8
Layer 2
 62
     7
100
AcDbPolyline
 90
        2
 70
     0
 43
0.0
 10
205.694
 20
41.8286
 10
205.694
 20
22.778642
  0
LWPOLYLINE
  5
A81
330
6F
100
AcDbEntity
  8
Layer 1
 62
     7
100
AcDbPolyline
 90
        2
 70
     0
 43
0.0
 10
205.694
 20
41.8286
 10
224.743958
 20
41.8286
  0
LWPOLYLINE
  5
A85
330
6F
100
AcDbEntity
  8
Layer 2
 62
     7
100
AcDbPolyline
 90
        2
 70
     0
 43
0.0
 10
205.694
 20
41.8286
 10
224.743958
 20
41.8286
  0
LWPOLYLINE
  5
A89
330
6F
100
AcDbEntity
  8
Layer 1
 62
     7
100
AcDbPolyline
 90
        2
 70
     0
 43
0.0
 10
205.694
 20
22.7786
 10
224.743958
 20
22.7786
  0
LWPOLYLINE
  5
A8D
330
6F
100
AcDbEntity
  8
Layer 2
 62
     7
100
AcDbPolyline
 90
        2
 70
     0
 43
0.0
 10
205.694
 20
22.7786
 10
224.743958
 20
22.7786
  0
LWPOLYLINE
  5
A91
330
6F
100
AcDbEntity
  8
Layer 1
 62
     7
100
AcDbPolyline
 90
        2
 70
     0
 43
0.0
 10
103.953
 20
43.4624
 10
106.604119
 20
62.326797
  0
LWPOLYLINE
  5
A95
330
6F
100
AcDbEntity
  8
Layer 2
 62
     7
100
AcDbPolyline
 90
        2
 70
     0
 43
0.0
 10
103.953
 20
43.4624
 10
106.604119
 20
62.326797
  0
LWPOLYLINE
  5
A99
330
6F
100
AcDbEntity
  8
Layer 1
 62
     7
100
AcDbPolyline
 90
        2
 70
     0
 43
0.0
 10
87.7393
 20
64.9783
 10
85.088181
 20
46.113903
  0
LWPOLYLINE
  5
A9D
330
6F
100
AcDbEntity
  8
Layer 2
 62
     7
100
AcDbPolyline
 90
        2
 70
     0
 43
0.0
 10
87.7393
 20
64.9783
 10
85.088181
 20
46.113903
  0
LWPOLYLINE
  5
AA1
330
6F
100
AcDbEntity
  8
Layer 1
 62
     7
100
AcDbPolyline
 90
        2
 70
     0
 43
0.0
 10
87.7393
 20
64.9783
 10
106.603697
 20
62.327181
  0
LWPOLYLINE
  5
AA5
330
6F
100
AcDbEntity
  8
Layer 2
 62
     7
100
AcDbPolyline
 90
        2
 70
     0
 43
0.0
 10
87.7393
 20
64.9783
 10
106.603697
 20
62.327181
  0
LWPOLYLINE
  5
AA9
330
6F
100
AcDbEntity
  8
Layer 1
 62
     7
100
AcDbPolyline
 90
        2
 70
     0
 43
0.0
 10
85.08790000000001
 20
46.11379999999999
 10
103.952297
 20
43.46268099999999
  0
LWPOLYLINE
  5
AAD
330
6F
100
AcDbEntity
  8
Layer 2
 62
     7
100
AcDbPolyline
 90
        2
 70
     0
 43
0.0
 10
85.08790000000001
 20
46.11379999999999
 10
103.952297
 20
43.46268099999999
  0
LWPOLYLINE
  5
AB1
330
6F
100
AcDbEntity
  8
Layer 1
 62
     7
100
AcDbPolyline
 90
        2
 70
     0
 43
0.0
 10
286.388
 20
64.42529999999999
 10
283.736881
 20
83.289697
  0
LWPOLYLINE
  5
AB5
330
6F
100
AcDbEntity
  8
Layer 2
 62
     7
100
AcDbPolyline
 90
        2
 70
     0
 43
0.0
 10
286.388
 20
64.42529999999999
 10
283.736881
 20
83.289697
  0
LWPOLYLINE
  5
AB9
330
6F
100
AcDbEntity
  8
Layer 1
 62
     7
100
AcDbPolyline
 90
        2
 70
     0
 43
0.0
 10
264.872
 20
80.63869999999999
 10
267.523119
 20
61.77430300000001
  0
LWPOLYLINE
  5
ABD
330
6F
100
AcDbEntity
  8
Layer 2
 62
     7
100
AcDbPolyline
 90
        2
 70
     0
 43
0.0
 10
264.872
 20
80.63869999999999
 10
267.523119
 20
61.77430300000001
  0
LWPOLYLINE
  5
AC1
330
6F
100
AcDbEntity
  8
Layer 1
 62
     7
100
AcDbPolyline
 90
        2
 70
     0
 43
0.0
 10
264.872
 20
80.63869999999999
 10
283.736397
 20
83.289819
  0
LWPOLYLINE
  5
AC5
330
6F
100
AcDbEntity
  8
Layer 2
 62
     7
100
AcDbPolyline
 90
        2
 70
     0
 43
0.0
 10
264.872
 20
80.63869999999999
 10
283.736397
 20
83.289819
  0
LWPOLYLINE
  5
AC9
330
6F
100
AcDbEntity
  8
Layer 1
 62
     7
100
AcDbPolyline
 90
        2
 70
     0
 43
0.0
 10
267.523
 20
61.7742
 10
286.387397
 20
64.42531899999998
  0
LWPOLYLINE
  5
ACD
330
6F
100
AcDbEntity
  8
Layer 2
 62
     7
100
AcDbPolyline
 90
        2
 70
     0
 43
0.0
 10
267.523
 20
61.7742
 10
286.387397
 20
64.42531899999998
  0
LWPOLYLINE
  5
AD1
330
6F
100
AcDbEntity
  8
Layer 1
 62
     7
100
AcDbPolyline
 90
        2
 70
     0
 43
0.0
 10
205.694
 20
19.302
 10
205.694
 20
38.35195800000001
  0
LWPOLYLINE
  5
AD5
330
6F
100
AcDbEntity
  8
Layer 2
 62
     7
100
AcDbPolyline
 90
        2
 70
     0
 43
0.0
 10
205.694
 20
19.302
 10
205.694
 20
38.35195800000001
  0
LWPOLYLINE
  5
AD9
330
6F
100
AcDbEntity
  8
Layer 1
 62
     7
100
AcDbPolyline
 90
        2
 70
     0
 43
0.0
 10
186.644
 20
38.352
 10
186.644
 20
19.302042
  0
LWPOLYLINE
  5
ADD
330
6F
100
AcDbEntity
  8
Layer 2
 62
     7
100
AcDbPolyline
 90
        2
 70
     0
 43
0.0
 10
186.644
 20
38.352
 10
186.644
 20
19.302042
  0
LWPOLYLINE
  5
AE1
330
6F
100
AcDbEntity
  8
Layer 1
 62
     7
100
AcDbPolyline
 90
        2
 70
     0
 43
0.0
 10
186.644
 20
38.352
 10
205.693958
 20
38.352
  0
LWPOLYLINE
  5
AE5
330
6F
100
AcDbEntity
  8
Layer 2
 62
     7
100
AcDbPolyline
 90
        2
 70
     0
 43
0.0
 10
186.644
 20
38.352
 10
205.693958
 20
38.352
  0
LWPOLYLINE
  5
AE9
330
6F
100
AcDbEntity
  8
Layer 1
 62
     7
100
AcDbPolyline
 90
        2
 70
     0
 43
0.0
 10
186.644
 20
19.302
 10
205.693958
 20
19.302
  0
LWPOLYLINE
  5
AED
330
6F
100
AcDbEntity
  8
Layer 2
 62
     7
100
AcDbPolyline
 90
        2
 70
     0
 43
0.0
 10
186.644
 20
19.302
 10
205.693958
 20
19.302
  0
LWPOLYLINE
  5
AF1
330
6F
100
AcDbEntity
  8
Layer 1
 62
     7
100
AcDbPolyline
 90
        2
 70
     0
 43
0.0
 10
66.2234
 20
48.7649
 10
68.87451899999999
 20
67.62929699999999
  0
LWPOLYLINE
  5
AF5
330
6F
100
AcDbEntity
  8
Layer 2
 62
     7
100
AcDbPolyline
 90
        2
 70
     0
 43
0.0
 10
66.2234
 20
48.7649
 10
68.87451899999999
 20
67.62929699999999
  0
LWPOLYLINE
  5
AF9
330
6F
100
AcDbEntity
  8
Layer 1
 62
     7
100
AcDbPolyline
 90
        2
 70
     0
 43
0.0
 10
50.01
 20
70.2808
 10
47.35888099999999
 20
51.416403
  0
LWPOLYLINE
  5
AFD
330
6F
100
AcDbEntity
  8
Layer 2
 62
     7
100
AcDbPolyline
 90
        2
 70
     0
 43
0.0
 10
50.01
 20
70.2808
 10
47.35888099999999
 20
51.416403
  0
LWPOLYLINE
  5
B01
330
6F
100
AcDbEntity
  8
Layer 1
 62
     7
100
AcDbPolyline
 90
        2
 70
     0
 43
0.0
 10
50.01
 20
70.2808
 10
68.874397
 20
67.62968100000001
  0
LWPOLYLINE
  5
B05
330
6F
100
AcDbEntity
  8
Layer 2
 62
     7
100
AcDbPolyline
 90
        2
 70
     0
 43
0.0
 10
50.01
 20
70.2808
 10
68.874397
 20
67.62968100000001
  0
LWPOLYLINE
  5
B09
330
6F
100
AcDbEntity
  8
Layer 1
 62
     7
100
AcDbPolyline
 90
        2
 70
     0
 43
0.0
 10
47.3588
 20
51.4163
 10
66.223197
 20
48.765181
  0
LWPOLYLINE
  5
B0D
330
6F
100
AcDbEntity
  8
Layer 2
 62
     7
100
AcDbPolyline
 90
        2
 70
     0
 43
0.0
 10
47.3588
 20
51.4163
 10
66.223197
 20
48.765181
  0
LWPOLYLINE
  5
B11
330
6F
100
AcDbEntity
  8
Layer 1
 62
     7
100
AcDbPolyline
 90
        2
 70
     0
 43
0.0
 10
71.5259
 20
86.4942
 10
74.177019
 20
105.358597
  0
LWPOLYLINE
  5
B15
330
6F
100
AcDbEntity
  8
Layer 2
 62
     7
100
AcDbPolyline
 90
        2
 70
     0
 43
0.0
 10
71.5259
 20
86.4942
 10
74.177019
 20
105.358597
  0
LWPOLYLINE
  5
B19
330
6F
100
AcDbEntity
  8
Layer 1
 62
     7
100
AcDbPolyline
 90
        2
 70
     0
 43
0.0
 10
55.3125
 20
108.01
 10
52.661381
 20
89.14560300000001
  0
LWPOLYLINE
  5
B1D
330
6F
100
AcDbEntity
  8
Layer 2
 62
     7
100
AcDbPolyline
 90
        2
 70
     0
 43
0.0
 10
55.3125
 20
108.01
 10
52.661381
 20
89.14560300000001
  0
LWPOLYLINE
  5
B21
330
6F
100
AcDbEntity
  8
Layer 1
 62
     7
100
AcDbPolyline
 90
        2
 70
     0
 43
0.0
 10
55.3125
 20
108.01
 10
74.176897
 20
105.358881
  0
LWPOLYLINE
  5
B25
330
6F
100
AcDbEntity
  8
Layer 2
 62
     7
100
AcDbPolyline
 90
        2
 70
     0
 43
0.0
 10
55.3125
 20
108.01
 10
74.176897
 20
105.358881
  0
LWPOLYLINE
  5
B29
330
6F
100
AcDbEntity
  8
Layer 1
 62
     7
100
AcDbPolyline
 90
        2
 70
     0
 43
0.0
 10
52.6613
 20
89.14559999999999
 10
71.52569699999999
 20
86.494481
  0
LWPOLYLINE
  5
B2D
330
6F
100
AcDbEntity
  8
Layer 2
 62
     7
100
AcDbPolyline
 90
        2
 70
     0
 43
0.0
 10
52.6613
 20
89.14559999999999
 10
71.52569699999999
 20
86.494481
  0
LWPOLYLINE
  5
B31
330
6F
100
AcDbEntity
  8
Layer 1
 62
     7
100
AcDbPolyline
 90
        2
 70
     0
 43
0.0
 10
88.23640000000001
 20
68.5155
 10
90.887519
 20
87.37989699999999
  0
LWPOLYLINE
  5
B35
330
6F
100
AcDbEntity
  8
Layer 2
 62
     7
100
AcDbPolyline
 90
        2
 70
     0
 43
0.0
 10
88.23640000000001
 20
68.5155
 10
90.887519
 20
87.37989699999999
  0
LWPOLYLINE
  5
B39
330
6F
100
AcDbEntity
  8
Layer 1
 62
     7
100
AcDbPolyline
 90
        2
 70
     0
 43
0.0
 10
72.023
 20
90.03149999999999
 10
69.371881
 20
71.167103
  0
LWPOLYLINE
  5
B3D
330
6F
100
AcDbEntity
  8
Layer 2
 62
     7
100
AcDbPolyline
 90
        2
 70
     0
 43
0.0
 10
72.023
 20
90.03149999999999
 10
69.371881
 20
71.167103
  0
LWPOLYLINE
  5
B41
330
6F
100
AcDbEntity
  8
Layer 1
 62
     7
100
AcDbPolyline
 90
        2
 70
     0
 43
0.0
 10
72.023
 20
90.03149999999999
 10
90.88739699999999
 20
87.380381
  0
LWPOLYLINE
  5
B45
330
6F
100
AcDbEntity
  8
Layer 2
 62
     7
100
AcDbPolyline
 90
        2
 70
     0
 43
0.0
 10
72.023
 20
90.03149999999999
 10
90.88739699999999
 20
87.380381
  0
LWPOLYLINE
  5
B49
330
6F
100
AcDbEntity
  8
Layer 1
 62
     7
100
AcDbPolyline
 90
        2
 70
     0
 43
0.0
 10
69.3716
 20
71.1667
 10
88.235997
 20
68.51558100000001
  0
LWPOLYLINE
  5
B4D
330
6F
100
AcDbEntity
  8
Layer 2
 62
     7
100
AcDbPolyline
 90
        2
 70
     0
 43
0.0
 10
69.3716
 20
71.1667
 10
88.235997
 20
68.51558100000001
  0
LWPOLYLINE
  5
B51
330
6F
100
AcDbEntity
  8
Layer 1
 62
     7
100
AcDbPolyline
 90
        2
 70
     0
 43
0.0
 10
291.69
 20
26.696
 10
289.038881
 20
45.56039699999999
  0
LWPOLYLINE
  5
B55
330
6F
100
AcDbEntity
  8
Layer 2
 62
     7
100
AcDbPolyline
 90
        2
 70
     0
 43
0.0
 10
291.69
 20
26.696
 10
289.038881
 20
45.56039699999999
  0
LWPOLYLINE
  5
B59
330
6F
100
AcDbEntity
  8
Layer 1
 62
     7
100
AcDbPolyline
 90
        2
 70
     0
 43
0.0
 10
270.174
 20
42.90939999999999
 10
272.825119
 20
24.045003
  0
LWPOLYLINE
  5
B5D
330
6F
100
AcDbEntity
  8
Layer 2
 62
     7
100
AcDbPolyline
 90
        2
 70
     0
 43
0.0
 10
270.174
 20
42.90939999999999
 10
272.825119
 20
24.045003
  0
LWPOLYLINE
  5
B61
330
6F
100
AcDbEntity
  8
Layer 1
 62
     7
100
AcDbPolyline
 90
        2
 70
     0
 43
0.0
 10
270.174
 20
42.90939999999999
 10
289.038397
 20
45.56051899999999
  0
LWPOLYLINE
  5
B65
330
6F
100
AcDbEntity
  8
Layer 2
 62
     7
100
AcDbPolyline
 90
        2
 70
     0
 43
0.0
 10
270.174
 20
42.90939999999999
 10
289.038397
 20
45.56051899999999
  0
LWPOLYLINE
  5
B69
330
6F
100
AcDbEntity
  8
Layer 1
 62
     7
100
AcDbPolyline
 90
        2
 70
     0
 43
0.0
 10
272.825
 20
24.0449
 10
291.689397
 20
26.696019
  0
LWPOLYLINE
  5
B6D
330
6F
100
AcDbEntity
  8
Layer 2
 62
     7
100
AcDbPolyline
 90
        2
 70
     0
 43
0.0
 10
272.825
 20
24.0449
 10
291.689397
 20
26.696019
  0
LWPOLYLINE
  5
B71
330
6F
100
AcDbEntity
  8
Layer 1
 62
     7
100
AcDbPolyline
 90
        2
 70
     0
 43
0.0
 10
190.823
 20
60.0118
 10
188.171881
 20
78.87619699999999
  0
LWPOLYLINE
  5
B75
330
6F
100
AcDbEntity
  8
Layer 2
 62
     7
100
AcDbPolyline
 90
        2
 70
     0
 43
0.0
 10
190.823
 20
60.0118
 10
188.171881
 20
78.87619699999999
  0
LWPOLYLINE
  5
B79
330
6F
100
AcDbEntity
  8
Layer 1
 62
     7
100
AcDbPolyline
 90
        2
 70
     0
 43
0.0
 10
169.307
 20
76.2252
 10
171.9581189999999
 20
57.36080300000001
  0
LWPOLYLINE
  5
B7D
330
6F
100
AcDbEntity
  8
Layer 2
 62
     7
100
AcDbPolyline
 90
        2
 70
     0
 43
0.0
 10
169.307
 20
76.2252
 10
171.9581189999999
 20
57.36080300000001
  0
LWPOLYLINE
  5
B81
330
6F
100
AcDbEntity
  8
Layer 1
 62
     7
100
AcDbPolyline
 90
        2
 70
     0
 43
0.0
 10
169.307
 20
76.2252
 10
188.171397
 20
78.87631899999999
  0
LWPOLYLINE
  5
B85
330
6F
100
AcDbEntity
  8
Layer 2
 62
     7
100
AcDbPolyline
 90
        2
 70
     0
 43
0.0
 10
169.307
 20
76.2252
 10
188.171397
 20
78.87631899999999
  0
LWPOLYLINE
  5
B89
330
6F
100
AcDbEntity
  8
Layer 1
 62
     7
100
AcDbPolyline
 90
        2
 70
     0
 43
0.0
 10
171.958
 20
57.3607
 10
190.82275
 20
60.01181899999999
  0
LWPOLYLINE
  5
B8D
330
6F
100
AcDbEntity
  8
Layer 2
 62
     7
100
AcDbPolyline
 90
        2
 70
     0
 43
0.0
 10
171.958
 20
57.3607
 10
190.82275
 20
60.01181899999999
  0
LWPOLYLINE
  5
B91
330
6F
100
AcDbEntity
  8
Layer 1
 62
     7
100
AcDbPolyline
 90
        2
 70
     0
 43
0.0
 10
43.1332
 20
21.3509
 10
45.784319
 20
40.215297
  0
LWPOLYLINE
  5
B95
330
6F
100
AcDbEntity
  8
Layer 2
 62
     7
100
AcDbPolyline
 90
        2
 70
     0
 43
0.0
 10
43.1332
 20
21.3509
 10
45.784319
 20
40.215297
  0
LWPOLYLINE
  5
B99
330
6F
100
AcDbEntity
  8
Layer 1
 62
     7
100
AcDbPolyline
 90
        2
 70
     0
 43
0.0
 10
26.92
 20
42.8666
 10
24.268881
 20
24.002203
  0
LWPOLYLINE
  5
B9D
330
6F
100
AcDbEntity
  8
Layer 2
 62
     7
100
AcDbPolyline
 90
        2
 70
     0
 43
0.0
 10
26.92
 20
42.8666
 10
24.268881
 20
24.002203
  0
LWPOLYLINE
  5
BA1
330
6F
100
AcDbEntity
  8
Layer 1
 62
     7
100
AcDbPolyline
 90
        2
 70
     0
 43
0.0
 10
26.92
 20
42.8666
 10
45.78439699999999
 20
40.21548099999999
  0
LWPOLYLINE
  5
BA5
330
6F
100
AcDbEntity
  8
Layer 2
 62
     7
100
AcDbPolyline
 90
        2
 70
     0
 43
0.0
 10
26.92
 20
42.8666
 10
45.78439699999999
 20
40.21548099999999
  0
LWPOLYLINE
  5
BA9
330
6F
100
AcDbEntity
  8
Layer 1
 62
     7
100
AcDbPolyline
 90
        2
 70
     0
 43
0.0
 10
24.2687
 20
24.002
 10
43.133097
 20
21.350881
  0
LWPOLYLINE
  5
BAD
330
6F
100
AcDbEntity
  8
Layer 2
 62
     7
100
AcDbPolyline
 90
        2
 70
     0
 43
0.0
 10
24.2687
 20
24.002
 10
43.133097
 20
21.350881
  0
LWPOLYLINE
  5
BB1
330
6F
100
AcDbEntity
  8
Layer 1
 62
     7
100
AcDbPolyline
 90
        2
 70
     0
 43
0.0
 10
26.92
 20
42.8666
 10
29.571119
 20
61.73099699999999
  0
LWPOLYLINE
  5
BB5
330
6F
100
AcDbEntity
  8
Layer 2
 62
     7
100
AcDbPolyline
 90
        2
 70
     0
 43
0.0
 10
26.92
 20
42.8666
 10
29.571119
 20
61.73099699999999
  0
LWPOLYLINE
  5
BB9
330
6F
100
AcDbEntity
  8
Layer 1
 62
     7
100
AcDbPolyline
 90
        2
 70
     0
 43
0.0
 10
10.7065
 20
64.3825
 10
8.055381
 20
45.518103
  0
LWPOLYLINE
  5
BBD
330
6F
100
AcDbEntity
  8
Layer 2
 62
     7
100
AcDbPolyline
 90
        2
 70
     0
 43
0.0
 10
10.7065
 20
64.3825
 10
8.055381
 20
45.518103
  0
LWPOLYLINE
  5
BC1
330
6F
100
AcDbEntity
  8
Layer 1
 62
     7
100
AcDbPolyline
 90
        2
 70
     0
 43
0.0
 10
10.7065
 20
64.3825
 10
29.570897
 20
61.731381
  0
LWPOLYLINE
  5
BC5
330
6F
100
AcDbEntity
  8
Layer 2
 62
     7
100
AcDbPolyline
 90
        2
 70
     0
 43
0.0
 10
10.7065
 20
64.3825
 10
29.570897
 20
61.731381
  0
LWPOLYLINE
  5
BC9
330
6F
100
AcDbEntity
  8
Layer 1
 62
     7
100
AcDbPolyline
 90
        2
 70
     0
 43
0.0
 10
8.055289999999999
 20
45.518
 10
26.919687
 20
42.866881
  0
LWPOLYLINE
  5
BCD
330
6F
100
AcDbEntity
  8
Layer 2
 62
     7
100
AcDbPolyline
 90
        2
 70
     0
 43
0.0
 10
8.055289999999999
 20
45.518
 10
26.919687
 20
42.866881
  0
LWPOLYLINE
  5
BD1
330
6F
100
AcDbEntity
  8
Layer 1
 62
     7
100
AcDbPolyline
 90
        2
 70
     0
 43
0.0
 10
272.825
 20
24.0449
 10
270.173881
 20
42.90929699999999
  0
LWPOLYLINE
  5
BD5
330
6F
100
AcDbEntity
  8
Layer 2
 62
     7
100
AcDbPolyline
 90
        2
 70
     0
 43
0.0
 10
272.825
 20
24.0449
 10
270.173881
 20
42.90929699999999
  0
LWPOLYLINE
  5
BD9
330
6F
100
AcDbEntity
  8
Layer 1
 62
     7
100
AcDbPolyline
 90
        2
 70
     0
 43
0.0
 10
251.311
 20
40.2583
 10
253.962119
 20
21.393903
  0
LWPOLYLINE
  5
BDD
330
6F
100
AcDbEntity
  8
Layer 2
 62
     7
100
AcDbPolyline
 90
        2
 70
     0
 43
0.0
 10
251.311
 20
40.2583
 10
253.962119
 20
21.393903
  0
LWPOLYLINE
  5
BE1
330
6F
100
AcDbEntity
  8
Layer 1
 62
     7
100
AcDbPolyline
 90
        2
 70
     0
 43
0.0
 10
251.311
 20
40.2583
 10
270.175397
 20
42.90941899999999
  0
LWPOLYLINE
  5
BE5
330
6F
100
AcDbEntity
  8
Layer 2
 62
     7
100
AcDbPolyline
 90
        2
 70
     0
 43
0.0
 10
251.311
 20
40.2583
 10
270.175397
 20
42.90941899999999
  0
LWPOLYLINE
  5
BE9
330
6F
100
AcDbEntity
  8
Layer 1
 62
     7
100
AcDbPolyline
 90
        2
 70
     0
 43
0.0
 10
253.962
 20
21.3938
 10
272.826397
 20
24.044919
  0
LWPOLYLINE
  5
BED
330
6F
100
AcDbEntity
  8
Layer 2
 62
     7
100
AcDbPolyline
 90
        2
 70
     0
 43
0.0
 10
253.962
 20
21.3938
 10
272.826397
 20
24.044919
  0
LWPOLYLINE
  5
BF1
330
6F
100
AcDbEntity
  8
Layer 1
 62
     7
100
AcDbPolyline
 90
        2
 70
     0
 43
0.0
 10
32.2223
 20
80.5959
 10
34.873419
 20
99.460297
  0
LWPOLYLINE
  5
BF5
330
6F
100
AcDbEntity
  8
Layer 2
 62
     7
100
AcDbPolyline
 90
        2
 70
     0
 43
0.0
 10
32.2223
 20
80.5959
 10
34.873419
 20
99.460297
  0
LWPOLYLINE
  5
BF9
330
6F
100
AcDbEntity
  8
Layer 1
 62
     7
100
AcDbPolyline
 90
        2
 70
     0
 43
0.0
 10
16.0091
 20
102.112
 10
13.357981
 20
83.24760299999999
  0
LWPOLYLINE
  5
BFD
330
6F
100
AcDbEntity
  8
Layer 2
 62
     7
100
AcDbPolyline
 90
        2
 70
     0
 43
0.0
 10
16.0091
 20
102.112
 10
13.357981
 20
83.24760299999999
  0
LWPOLYLINE
  5
C01
330
6F
100
AcDbEntity
  8
Layer 1
 62
     7
100
AcDbPolyline
 90
        2
 70
     0
 43
0.0
 10
16.0091
 20
102.112
 10
34.873497
 20
99.460881
  0
LWPOLYLINE
  5
C05
330
6F
100
AcDbEntity
  8
Layer 2
 62
     7
100
AcDbPolyline
 90
        2
 70
     0
 43
0.0
 10
16.0091
 20
102.112
 10
34.873497
 20
99.460881
  0
LWPOLYLINE
  5
C09
330
6F
100
AcDbEntity
  8
Layer 1
 62
     7
100
AcDbPolyline
 90
        2
 70
     0
 43
0.0
 10
13.3578
 20
83.24699999999999
 10
32.222197
 20
80.595881
  0
LWPOLYLINE
  5
C0D
330
6F
100
AcDbEntity
  8
Layer 2
 62
     7
100
AcDbPolyline
 90
        2
 70
     0
 43
0.0
 10
13.3578
 20
83.24699999999999
 10
32.222197
 20
80.595881
  0
LWPOLYLINE
  5
C11
330
6F
100
AcDbEntity
  8
Layer 1
 62
     7
100
AcDbPolyline
 90
        2
 70
     0
 43
0.0
 10
289.039
 20
45.5608
 10
286.387881
 20
64.425197
  0
LWPOLYLINE
  5
C15
330
6F
100
AcDbEntity
  8
Layer 2
 62
     7
100
AcDbPolyline
 90
        2
 70
     0
 43
0.0
 10
289.039
 20
45.5608
 10
286.387881
 20
64.425197
  0
LWPOLYLINE
  5
C19
330
6F
100
AcDbEntity
  8
Layer 1
 62
     7
100
AcDbPolyline
 90
        2
 70
     0
 43
0.0
 10
267.523
 20
61.7742
 10
270.174119
 20
42.909803
  0
LWPOLYLINE
  5
C1D
330
6F
100
AcDbEntity
  8
Layer 2
 62
     7
100
AcDbPolyline
 90
        2
 70
     0
 43
0.0
 10
267.523
 20
61.7742
 10
270.174119
 20
42.909803
  0
LWPOLYLINE
  5
C21
330
6F
100
AcDbEntity
  8
Layer 1
 62
     7
100
AcDbPolyline
 90
        2
 70
     0
 43
0.0
 10
267.523
 20
61.7742
 10
286.387397
 20
64.42531899999998
  0
LWPOLYLINE
  5
C25
330
6F
100
AcDbEntity
  8
Layer 2
 62
     7
100
AcDbPolyline
 90
        2
 70
     0
 43
0.0
 10
267.523
 20
61.7742
 10
286.387397
 20
64.42531899999998
  0
LWPOLYLINE
  5
C29
330
6F
100
AcDbEntity
  8
Layer 1
 62
     7
100
AcDbPolyline
 90
        2
 70
     0
 43
0.0
 10
270.174
 20
42.90939999999999
 10
289.03875
 20
45.56051899999999
  0
LWPOLYLINE
  5
C2D
330
6F
100
AcDbEntity
  8
Layer 2
 62
     7
100
AcDbPolyline
 90
        2
 70
     0
 43
0.0
 10
270.174
 20
42.90939999999999
 10
289.03875
 20
45.56051899999999
  0
LWPOLYLINE
  5
C31
330
6F
100
AcDbEntity
  8
Layer 1
 62
     7
100
AcDbPolyline
 90
        2
 70
     0
 43
0.0
 10
264.872
 20
80.63869999999999
 10
262.220881
 20
99.503097
  0
LWPOLYLINE
  5
C35
330
6F
100
AcDbEntity
  8
Layer 2
 62
     7
100
AcDbPolyline
 90
        2
 70
     0
 43
0.0
 10
264.872
 20
80.63869999999999
 10
262.220881
 20
99.503097
  0
LWPOLYLINE
  5
C39
330
6F
100
AcDbEntity
  8
Layer 1
 62
     7
100
AcDbPolyline
 90
        2
 70
     0
 43
0.0
 10
243.357
 20
96.85209999999999
 10
246.008119
 20
77.987703
  0
LWPOLYLINE
  5
C3D
330
6F
100
AcDbEntity
  8
Layer 2
 62
     7
100
AcDbPolyline
 90
        2
 70
     0
 43
0.0
 10
243.357
 20
96.85209999999999
 10
246.008119
 20
77.987703
  0
LWPOLYLINE
  5
C41
330
6F
100
AcDbEntity
  8
Layer 1
 62
     7
100
AcDbPolyline
 90
        2
 70
     0
 43
0.0
 10
243.357
 20
96.85209999999999
 10
262.221397
 20
99.503219
  0
LWPOLYLINE
  5
C45
330
6F
100
AcDbEntity
  8
Layer 2
 62
     7
100
AcDbPolyline
 90
        2
 70
     0
 43
0.0
 10
243.357
 20
96.85209999999999
 10
262.221397
 20
99.503219
  0
LWPOLYLINE
  5
C49
330
6F
100
AcDbEntity
  8
Layer 1
 62
     7
100
AcDbPolyline
 90
        2
 70
     0
 43
0.0
 10
246.008
 20
77.9876
 10
264.872397
 20
80.638719
  0
LWPOLYLINE
  5
C4D
330
6F
100
AcDbEntity
  8
Layer 2
 62
     7
100
AcDbPolyline
 90
        2
 70
     0
 43
0.0
 10
246.008
 20
77.9876
 10
264.872397
 20
80.638719
  0
LWPOLYLINE
  5
C51
330
6F
100
AcDbEntity
  8
Layer 1
 62
     7
100
AcDbPolyline
 90
        2
 70
     0
 43
0.0
 10
122.486
 20
38.4533
 10
125.137119
 20
57.317697
  0
LWPOLYLINE
  5
C55
330
6F
100
AcDbEntity
  8
Layer 2
 62
     7
100
AcDbPolyline
 90
        2
 70
     0
 43
0.0
 10
122.486
 20
38.4533
 10
125.137119
 20
57.317697
  0
LWPOLYLINE
  5
C59
330
6F
100
AcDbEntity
  8
Layer 1
 62
     7
100
AcDbPolyline
 90
        2
 70
     0
 43
0.0
 10
106.273
 20
59.969
 10
103.621881
 20
41.104603
  0
LWPOLYLINE
  5
C5D
330
6F
100
AcDbEntity
  8
Layer 2
 62
     7
100
AcDbPolyline
 90
        2
 70
     0
 43
0.0
 10
106.273
 20
59.969
 10
103.621881
 20
41.104603
  0
LWPOLYLINE
  5
C61
330
6F
100
AcDbEntity
  8
Layer 1
 62
     7
100
AcDbPolyline
 90
        2
 70
     0
 43
0.0
 10
106.273
 20
59.969
 10
125.137397
 20
57.31788100000001
  0
LWPOLYLINE
  5
C65
330
6F
100
AcDbEntity
  8
Layer 2
 62
     7
100
AcDbPolyline
 90
        2
 70
     0
 43
0.0
 10
106.273
 20
59.969
 10
125.137397
 20
57.31788100000001
  0
LWPOLYLINE
  5
C69
330
6F
100
AcDbEntity
  8
Layer 1
 62
     7
100
AcDbPolyline
 90
        2
 70
     0
 43
0.0
 10
103.621
 20
41.10439999999999
 10
122.485397
 20
38.453281
  0
LWPOLYLINE
  5
C6D
330
6F
100
AcDbEntity
  8
Layer 2
 62
     7
100
AcDbPolyline
 90
        2
 70
     0
 43
0.0
 10
103.621
 20
41.10439999999999
 10
122.485397
 20
38.453281
  0
LWPOLYLINE
  5
C71
330
6F
100
AcDbEntity
  8
Layer 1
 62
     7
100
AcDbPolyline
 90
        2
 70
     0
 43
0.0
 10
209.356
 20
65.02119999999999
 10
206.704881
 20
83.885597
  0
LWPOLYLINE
  5
C75
330
6F
100
AcDbEntity
  8
Layer 2
 62
     7
100
AcDbPolyline
 90
        2
 70
     0
 43
0.0
 10
209.356
 20
65.02119999999999
 10
206.704881
 20
83.885597
  0
LWPOLYLINE
  5
C79
330
6F
100
AcDbEntity
  8
Layer 1
 62
     7
100
AcDbPolyline
 90
        2
 70
     0
 43
0.0
 10
187.84
 20
81.23459999999999
 10
190.491119
 20
62.37020300000001
  0
LWPOLYLINE
  5
C7D
330
6F
100
AcDbEntity
  8
Layer 2
 62
     7
100
AcDbPolyline
 90
        2
 70
     0
 43
0.0
 10
187.84
 20
81.23459999999999
 10
190.491119
 20
62.37020300000001
  0
LWPOLYLINE
  5
C81
330
6F
100
AcDbEntity
  8
Layer 1
 62
     7
100
AcDbPolyline
 90
        2
 70
     0
 43
0.0
 10
187.84
 20
81.23459999999999
 10
206.704397
 20
83.885719
  0
LWPOLYLINE
  5
C85
330
6F
100
AcDbEntity
  8
Layer 2
 62
     7
100
AcDbPolyline
 90
        2
 70
     0
 43
0.0
 10
187.84
 20
81.23459999999999
 10
206.704397
 20
83.885719
  0
LWPOLYLINE
  5
C89
330
6F
100
AcDbEntity
  8
Layer 1
 62
     7
100
AcDbPolyline
 90
        2
 70
     0
 43
0.0
 10
190.491
 20
62.3701
 10
209.355397
 20
65.02121899999998
  0
LWPOLYLINE
  5
C8D
330
6F
100
AcDbEntity
  8
Layer 2
 62
     7
100
AcDbPolyline
 90
        2
 70
     0
 43
0.0
 10
190.491
 20
62.3701
 10
209.355397
 20
65.02121899999998
  0
LWPOLYLINE
  5
C91
330
6F
100
AcDbEntity
  8
Layer 1
 62
     7
100
AcDbPolyline
 90
        2
 70
     0
 43
0.0
 10
249.736
 20
51.4592
 10
247.084881
 20
70.32359699999999
  0
LWPOLYLINE
  5
C95
330
6F
100
AcDbEntity
  8
Layer 2
 62
     7
100
AcDbPolyline
 90
        2
 70
     0
 43
0.0
 10
249.736
 20
51.4592
 10
247.084881
 20
70.32359699999999
  0
LWPOLYLINE
  5
C99
330
6F
100
AcDbEntity
  8
Layer 1
 62
     7
100
AcDbPolyline
 90
        2
 70
     0
 43
0.0
 10
228.22
 20
67.6726
 10
230.871119
 20
48.808203
  0
LWPOLYLINE
  5
C9D
330
6F
100
AcDbEntity
  8
Layer 2
 62
     7
100
AcDbPolyline
 90
        2
 70
     0
 43
0.0
 10
228.22
 20
67.6726
 10
230.871119
 20
48.808203
  0
LWPOLYLINE
  5
CA1
330
6F
100
AcDbEntity
  8
Layer 1
 62
     7
100
AcDbPolyline
 90
        2
 70
     0
 43
0.0
 10
228.22
 20
67.6726
 10
247.084397
 20
70.323719
  0
LWPOLYLINE
  5
CA5
330
6F
100
AcDbEntity
  8
Layer 2
 62
     7
100
AcDbPolyline
 90
        2
 70
     0
 43
0.0
 10
228.22
 20
67.6726
 10
247.084397
 20
70.323719
  0
LWPOLYLINE
  5
CA9
330
6F
100
AcDbEntity
  8
Layer 1
 62
     7
100
AcDbPolyline
 90
        2
 70
     0
 43
0.0
 10
230.872
 20
48.8078
 10
249.736397
 20
51.458919
  0
LWPOLYLINE
  5
CAD
330
6F
100
AcDbEntity
  8
Layer 2
 62
     7
100
AcDbPolyline
 90
        2
 70
     0
 43
0.0
 10
230.872
 20
48.8078
 10
249.736397
 20
51.458919
  0
LWPOLYLINE
  5
CB1
330
6F
100
AcDbEntity
  8
Layer 1
 62
     7
100
AcDbPolyline
 90
        2
 70
     0
 43
0.0
 10
68.8745
 20
67.6297
 10
71.52561899999999
 20
86.49409699999999
  0
LWPOLYLINE
  5
CB5
330
6F
100
AcDbEntity
  8
Layer 2
 62
     7
100
AcDbPolyline
 90
        2
 70
     0
 43
0.0
 10
68.8745
 20
67.6297
 10
71.52561899999999
 20
86.49409699999999
  0
LWPOLYLINE
  5
CB9
330
6F
100
AcDbEntity
  8
Layer 1
 62
     7
100
AcDbPolyline
 90
        2
 70
     0
 43
0.0
 10
52.6613
 20
89.1454
 10
50.010181
 20
70.281003
  0
LWPOLYLINE
  5
CBD
330
6F
100
AcDbEntity
  8
Layer 2
 62
     7
100
AcDbPolyline
 90
        2
 70
     0
 43
0.0
 10
52.6613
 20
89.1454
 10
50.010181
 20
70.281003
  0
LWPOLYLINE
  5
CC1
330
6F
100
AcDbEntity
  8
Layer 1
 62
     7
100
AcDbPolyline
 90
        2
 70
     0
 43
0.0
 10
52.6613
 20
89.1454
 10
71.52569699999999
 20
86.49428099999999
  0
LWPOLYLINE
  5
CC5
330
6F
100
AcDbEntity
  8
Layer 2
 62
     7
100
AcDbPolyline
 90
        2
 70
     0
 43
0.0
 10
52.6613
 20
89.1454
 10
71.52569699999999
 20
86.49428099999999
  0
LWPOLYLINE
  5
CC9
330
6F
100
AcDbEntity
  8
Layer 1
 62
     7
100
AcDbPolyline
 90
        2
 70
     0
 43
0.0
 10
50.01
 20
70.2808
 10
68.874397
 20
67.62968100000001
  0
LWPOLYLINE
  5
CCD
330
6F
100
AcDbEntity
  8
Layer 2
 62
     7
100
AcDbPolyline
 90
        2
 70
     0
 43
0.0
 10
50.01
 20
70.2808
 10
68.874397
 20
67.62968100000001
  0
LWPOLYLINE
  5
CD1
330
6F
100
AcDbEntity
  8
Layer 1
 62
     7
100
AcDbPolyline
 90
        2
 70
     0
 43
0.0
 10
90.8876
 20
87.3801
 10
93.53871899999999
 20
106.244497
  0
LWPOLYLINE
  5
CD5
330
6F
100
AcDbEntity
  8
Layer 2
 62
     7
100
AcDbPolyline
 90
        2
 70
     0
 43
0.0
 10
90.8876
 20
87.3801
 10
93.53871899999999
 20
106.244497
  0
LWPOLYLINE
  5
CD9
330
6F
100
AcDbEntity
  8
Layer 1
 62
     7
100
AcDbPolyline
 90
        2
 70
     0
 43
0.0
 10
74.6741
 20
108.896
 10
72.022981
 20
90.03160300000001
  0
LWPOLYLINE
  5
CDD
330
6F
100
AcDbEntity
  8
Layer 2
 62
     7
100
AcDbPolyline
 90
        2
 70
     0
 43
0.0
 10
74.6741
 20
108.896
 10
72.022981
 20
90.03160300000001
  0
LWPOLYLINE
  5
CE1
330
6F
100
AcDbEntity
  8
Layer 1
 62
     7
100
AcDbPolyline
 90
        2
 70
     0
 43
0.0
 10
74.6741
 20
108.896
 10
93.53849699999999
 20
106.244881
  0
LWPOLYLINE
  5
CE5
330
6F
100
AcDbEntity
  8
Layer 2
 62
     7
100
AcDbPolyline
 90
        2
 70
     0
 43
0.0
 10
74.6741
 20
108.896
 10
93.53849699999999
 20
106.244881
  0
LWPOLYLINE
  5
CE9
330
6F
100
AcDbEntity
  8
Layer 1
 62
     7
100
AcDbPolyline
 90
        2
 70
     0
 43
0.0
 10
72.023
 20
90.03149999999999
 10
90.88739699999999
 20
87.380381
  0
LWPOLYLINE
  5
CED
330
6F
100
AcDbEntity
  8
Layer 2
 62
     7
100
AcDbPolyline
 90
        2
 70
     0
 43
0.0
 10
72.023
 20
90.03149999999999
 10
90.88739699999999
 20
87.380381
  0
LWPOLYLINE
  5
CF1
330
6F
100
AcDbEntity
  8
Layer 1
 62
     7
100
AcDbPolyline
 90
        2
 70
     0
 43
0.0
 10
244.434
 20
89.1885
 10
241.782881
 20
108.052897
  0
LWPOLYLINE
  5
CF5
330
6F
100
AcDbEntity
  8
Layer 2
 62
     7
100
AcDbPolyline
 90
        2
 70
     0
 43
0.0
 10
244.434
 20
89.1885
 10
241.782881
 20
108.052897
  0
LWPOLYLINE
  5
CF9
330
6F
100
AcDbEntity
  8
Layer 1
 62
     7
100
AcDbPolyline
 90
        2
 70
     0
 43
0.0
 10
222.918
 20
105.402
 10
225.569119
 20
86.53724999999999
  0
LWPOLYLINE
  5
CFD
330
6F
100
AcDbEntity
  8
Layer 2
 62
     7
100
AcDbPolyline
 90
        2
 70
     0
 43
0.0
 10
222.918
 20
105.402
 10
225.569119
 20
86.53724999999999
  0
LWPOLYLINE
  5
D01
330
6F
100
AcDbEntity
  8
Layer 1
 62
     7
100
AcDbPolyline
 90
        2
 70
     0
 43
0.0
 10
222.918
 20
105.402
 10
241.782397
 20
108.053119
  0
LWPOLYLINE
  5
D05
330
6F
100
AcDbEntity
  8
Layer 2
 62
     7
100
AcDbPolyline
 90
        2
 70
     0
 43
0.0
 10
222.918
 20
105.402
 10
241.782397
 20
108.053119
  0
LWPOLYLINE
  5
D09
330
6F
100
AcDbEntity
  8
Layer 1
 62
     7
100
AcDbPolyline
 90
        2
 70
     0
 43
0.0
 10
225.569
 20
86.5371
 10
244.433397
 20
89.18821899999999
  0
LWPOLYLINE
  5
D0D
330
6F
100
AcDbEntity
  8
Layer 2
 62
     7
100
AcDbPolyline
 90
        2
 70
     0
 43
0.0
 10
225.569
 20
86.5371
 10
244.433397
 20
89.18821899999999
  0
LWPOLYLINE
  5
D11
330
6F
100
AcDbEntity
  8
Layer 1
 62
     7
100
AcDbPolyline
 90
        2
 70
     0
 43
0.0
 10
45.78459999999999
 20
40.2154
 10
48.435719
 20
59.079797
  0
LWPOLYLINE
  5
D15
330
6F
100
AcDbEntity
  8
Layer 2
 62
     7
100
AcDbPolyline
 90
        2
 70
     0
 43
0.0
 10
45.78459999999999
 20
40.2154
 10
48.435719
 20
59.079797
  0
LWPOLYLINE
  5
D19
330
6F
100
AcDbEntity
  8
Layer 1
 62
     7
100
AcDbPolyline
 90
        2
 70
     0
 43
0.0
 10
29.5712
 20
61.7314
 10
26.920081
 20
42.867003
  0
LWPOLYLINE
  5
D1D
330
6F
100
AcDbEntity
  8
Layer 2
 62
     7
100
AcDbPolyline
 90
        2
 70
     0
 43
0.0
 10
29.5712
 20
61.7314
 10
26.920081
 20
42.867003
  0
LWPOLYLINE
  5
D21
330
6F
100
AcDbEntity
  8
Layer 1
 62
     7
100
AcDbPolyline
 90
        2
 70
     0
 43
0.0
 10
29.5712
 20
61.7314
 10
48.435597
 20
59.08028100000001
  0
LWPOLYLINE
  5
D25
330
6F
100
AcDbEntity
  8
Layer 2
 62
     7
100
AcDbPolyline
 90
        2
 70
     0
 43
0.0
 10
29.5712
 20
61.7314
 10
48.435597
 20
59.08028100000001
  0
LWPOLYLINE
  5
D29
330
6F
100
AcDbEntity
  8
Layer 1
 62
     7
100
AcDbPolyline
 90
        2
 70
     0
 43
0.0
 10
26.92
 20
42.8666
 10
45.78439699999999
 20
40.21548099999999
  0
LWPOLYLINE
  5
D2D
330
6F
100
AcDbEntity
  8
Layer 2
 62
     7
100
AcDbPolyline
 90
        2
 70
     0
 43
0.0
 10
26.92
 20
42.8666
 10
45.78439699999999
 20
40.21548099999999
  0
LWPOLYLINE
  5
D31
330
6F
100
AcDbEntity
  8
Layer 1
 62
     7
100
AcDbPolyline
 90
        2
 70
     0
 43
0.0
 10
206.704
 20
83.886
 10
204.052881
 20
102.750397
  0
LWPOLYLINE
  5
D35
330
6F
100
AcDbEntity
  8
Layer 2
 62
     7
100
AcDbPolyline
 90
        2
 70
     0
 43
0.0
 10
206.704
 20
83.886
 10
204.052881
 20
102.750397
  0
LWPOLYLINE
  5
D39
330
6F
100
AcDbEntity
  8
Layer 1
 62
     7
100
AcDbPolyline
 90
        2
 70
     0
 43
0.0
 10
185.189
 20
100.099
 10
187.840119
 20
81.23460300000001
  0
LWPOLYLINE
  5
D3D
330
6F
100
AcDbEntity
  8
Layer 2
 62
     7
100
AcDbPolyline
 90
        2
 70
     0
 43
0.0
 10
185.189
 20
100.099
 10
187.840119
 20
81.23460300000001
  0
LWPOLYLINE
  5
D41
330
6F
100
AcDbEntity
  8
Layer 1
 62
     7
100
AcDbPolyline
 90
        2
 70
     0
 43
0.0
 10
185.189
 20
100.099
 10
204.053397
 20
102.750119
  0
LWPOLYLINE
  5
D45
330
6F
100
AcDbEntity
  8
Layer 2
 62
     7
100
AcDbPolyline
 90
        2
 70
     0
 43
0.0
 10
185.189
 20
100.099
 10
204.053397
 20
102.750119
  0
LWPOLYLINE
  5
D49
330
6F
100
AcDbEntity
  8
Layer 1
 62
     7
100
AcDbPolyline
 90
        2
 70
     0
 43
0.0
 10
187.84
 20
81.23459999999999
 10
206.704397
 20
83.885719
  0
LWPOLYLINE
  5
D4D
330
6F
100
AcDbEntity
  8
Layer 2
 62
     7
100
AcDbPolyline
 90
        2
 70
     0
 43
0.0
 10
187.84
 20
81.23459999999999
 10
206.704397
 20
83.885719
  0
LWPOLYLINE
  5
D51
330
6F
100
AcDbEntity
  8
Layer 1
 62
     7
100
AcDbPolyline
 90
        2
 70
     0
 43
0.0
 10
227.723
 20
71.2095
 10
225.071881
 20
90.073897
  0
LWPOLYLINE
  5
D55
330
6F
100
AcDbEntity
  8
Layer 2
 62
     7
100
AcDbPolyline
 90
        2
 70
     0
 43
0.0
 10
227.723
 20
71.2095
 10
225.071881
 20
90.073897
  0
LWPOLYLINE
  5
D59
330
6F
100
AcDbEntity
  8
Layer 1
 62
     7
100
AcDbPolyline
 90
        2
 70
     0
 43
0.0
 10
206.208
 20
87.4229
 10
208.859119
 20
68.558503
  0
LWPOLYLINE
  5
D5D
330
6F
100
AcDbEntity
  8
Layer 2
 62
     7
100
AcDbPolyline
 90
        2
 70
     0
 43
0.0
 10
206.208
 20
87.4229
 10
208.859119
 20
68.558503
  0
LWPOLYLINE
  5
D61
330
6F
100
AcDbEntity
  8
Layer 1
 62
     7
100
AcDbPolyline
 90
        2
 70
     0
 43
0.0
 10
206.208
 20
87.4229
 10
225.072397
 20
90.07401899999999
  0
LWPOLYLINE
  5
D65
330
6F
100
AcDbEntity
  8
Layer 2
 62
     7
100
AcDbPolyline
 90
        2
 70
     0
 43
0.0
 10
206.208
 20
87.4229
 10
225.072397
 20
90.07401899999999
  0
LWPOLYLINE
  5
D69
330
6F
100
AcDbEntity
  8
Layer 1
 62
     7
100
AcDbPolyline
 90
        2
 70
     0
 43
0.0
 10
208.859
 20
68.5584
 10
227.7233970000001
 20
71.209519
  0
LWPOLYLINE
  5
D6D
330
6F
100
AcDbEntity
  8
Layer 2
 62
     7
100
AcDbPolyline
 90
        2
 70
     0
 43
0.0
 10
208.859
 20
68.5584
 10
227.7233970000001
 20
71.209519
  0
LWPOLYLINE
  5
D71
330
6F
100
AcDbEntity
  8
Layer 1
 62
     7
100
AcDbPolyline
 90
        2
 70
     0
 43
0.0
 10
24.2686
 20
24.002
 10
26.919719
 20
42.866397
  0
LWPOLYLINE
  5
D75
330
6F
100
AcDbEntity
  8
Layer 2
 62
     7
100
AcDbPolyline
 90
        2
 70
     0
 43
0.0
 10
24.2686
 20
24.002
 10
26.919719
 20
42.866397
  0
LWPOLYLINE
  5
D79
330
6F
100
AcDbEntity
  8
Layer 1
 62
     7
100
AcDbPolyline
 90
        2
 70
     0
 43
0.0
 10
8.055289999999999
 20
45.518
 10
5.404170999999999
 20
26.65360300000001
  0
LWPOLYLINE
  5
D7D
330
6F
100
AcDbEntity
  8
Layer 2
 62
     7
100
AcDbPolyline
 90
        2
 70
     0
 43
0.0
 10
8.055289999999999
 20
45.518
 10
5.404170999999999
 20
26.65360300000001
  0
LWPOLYLINE
  5
D81
330
6F
100
AcDbEntity
  8
Layer 1
 62
     7
100
AcDbPolyline
 90
        2
 70
     0
 43
0.0
 10
8.055289999999999
 20
45.518
 10
26.919687
 20
42.866881
  0
LWPOLYLINE
  5
D85
330
6F
100
AcDbEntity
  8
Layer 2
 62
     7
100
AcDbPolyline
 90
        2
 70
     0
 43
0.0
 10
8.055289999999999
 20
45.518
 10
26.919687
 20
42.866881
  0
LWPOLYLINE
  5
D89
330
6F
100
AcDbEntity
  8
Layer 1
 62
     7
100
AcDbPolyline
 90
        2
 70
     0
 43
0.0
 10
5.404059999999999
 20
26.6532
 10
24.268457
 20
24.002081
  0
LWPOLYLINE
  5
D8D
330
6F
100
AcDbEntity
  8
Layer 2
 62
     7
100
AcDbPolyline
 90
        2
 70
     0
 43
0.0
 10
5.404059999999999
 20
26.6532
 10
24.268457
 20
24.002081
  0
LWPOLYLINE
  5
D91
330
6F
100
AcDbEntity
  8
Layer 1
 62
     7
100
AcDbPolyline
 90
        2
 70
     0
 43
0.0
 10
29.5712
 20
61.7314
 10
32.222319
 20
80.59579699999998
  0
LWPOLYLINE
  5
D95
330
6F
100
AcDbEntity
  8
Layer 2
 62
     7
100
AcDbPolyline
 90
        2
 70
     0
 43
0.0
 10
29.5712
 20
61.7314
 10
32.222319
 20
80.59579699999998
  0
LWPOLYLINE
  5
D99
330
6F
100
AcDbEntity
  8
Layer 1
 62
     7
100
AcDbPolyline
 90
        2
 70
     0
 43
0.0
 10
13.3578
 20
83.24699999999999
 10
10.706681
 20
64.382603
  0
LWPOLYLINE
  5
D9D
330
6F
100
AcDbEntity
  8
Layer 2
 62
     7
100
AcDbPolyline
 90
        2
 70
     0
 43
0.0
 10
13.3578
 20
83.24699999999999
 10
10.706681
 20
64.382603
  0
LWPOLYLINE
  5
DA1
330
6F
100
AcDbEntity
  8
Layer 1
 62
     7
100
AcDbPolyline
 90
        2
 70
     0
 43
0.0
 10
13.3578
 20
83.24699999999999
 10
32.222197
 20
80.595881
  0
LWPOLYLINE
  5
DA5
330
6F
100
AcDbEntity
  8
Layer 2
 62
     7
100
AcDbPolyline
 90
        2
 70
     0
 43
0.0
 10
13.3578
 20
83.24699999999999
 10
32.222197
 20
80.595881
  0
LWPOLYLINE
  5
DA9
330
6F
100
AcDbEntity
  8
Layer 1
 62
     7
100
AcDbPolyline
 90
        2
 70
     0
 43
0.0
 10
10.7065
 20
64.3825
 10
29.570897
 20
61.731381
  0
LWPOLYLINE
  5
DAD
330
6F
100
AcDbEntity
  8
Layer 2
 62
     7
100
AcDbPolyline
 90
        2
 70
     0
 43
0.0
 10
10.7065
 20
64.3825
 10
29.570897
 20
61.731381
  0
LWPOLYLINE
  5
DB1
330
6F
100
AcDbEntity
  8
Layer 1
 62
     7
100
AcDbPolyline
 90
        2
 70
     0
 43
0.0
 10
212.007
 20
46.1567
 10
209.355881
 20
65.021097
  0
LWPOLYLINE
  5
DB5
330
6F
100
AcDbEntity
  8
Layer 2
 62
     7
100
AcDbPolyline
 90
        2
 70
     0
 43
0.0
 10
212.007
 20
46.1567
 10
209.355881
 20
65.021097
  0
LWPOLYLINE
  5
DB9
330
6F
100
AcDbEntity
  8
Layer 1
 62
     7
100
AcDbPolyline
 90
        2
 70
     0
 43
0.0
 10
190.491
 20
62.3701
 10
193.142119
 20
43.505703
  0
LWPOLYLINE
  5
DBD
330
6F
100
AcDbEntity
  8
Layer 2
 62
     7
100
AcDbPolyline
 90
        2
 70
     0
 43
0.0
 10
190.491
 20
62.3701
 10
193.142119
 20
43.505703
  0
LWPOLYLINE
  5
DC1
330
6F
100
AcDbEntity
  8
Layer 1
 62
     7
100
AcDbPolyline
 90
        2
 70
     0
 43
0.0
 10
190.491
 20
62.3701
 10
209.355397
 20
65.02121899999998
  0
LWPOLYLINE
  5
DC5
330
6F
100
AcDbEntity
  8
Layer 2
 62
     7
100
AcDbPolyline
 90
        2
 70
     0
 43
0.0
 10
190.491
 20
62.3701
 10
209.355397
 20
65.02121899999998
  0
LWPOLYLINE
  5
DC9
330
6F
100
AcDbEntity
  8
Layer 1
 62
     7
100
AcDbPolyline
 90
        2
 70
     0
 43
0.0
 10
193.142
 20
43.5053
 10
212.006397
 20
46.15641899999999
  0
LWPOLYLINE
  5
DCD
330
6F
100
AcDbEntity
  8
Layer 2
 62
     7
100
AcDbPolyline
 90
        2
 70
     0
 43
0.0
 10
193.142
 20
43.5053
 10
212.006397
 20
46.15641899999999
  0
LWPOLYLINE
  5
DD1
330
6F
100
AcDbEntity
  8
Layer 1
 62
     7
100
AcDbPolyline
 90
        2
 70
     0
 43
0.0
 10
188.171
 20
78.8766
 10
185.519881
 20
97.740997
  0
LWPOLYLINE
  5
DD5
330
6F
100
AcDbEntity
  8
Layer 2
 62
     7
100
AcDbPolyline
 90
        2
 70
     0
 43
0.0
 10
188.171
 20
78.8766
 10
185.519881
 20
97.740997
  0
LWPOLYLINE
  5
DD9
330
6F
100
AcDbEntity
  8
Layer 1
 62
     7
100
AcDbPolyline
 90
        2
 70
     0
 43
0.0
 10
166.655
 20
95.08979999999999
 10
169.306119
 20
76.225403
  0
LWPOLYLINE
  5
DDD
330
6F
100
AcDbEntity
  8
Layer 2
 62
     7
100
AcDbPolyline
 90
        2
 70
     0
 43
0.0
 10
166.655
 20
95.08979999999999
 10
169.306119
 20
76.225403
  0
LWPOLYLINE
  5
DE1
330
6F
100
AcDbEntity
  8
Layer 1
 62
     7
100
AcDbPolyline
 90
        2
 70
     0
 43
0.0
 10
166.655
 20
95.08979999999999
 10
185.519397
 20
97.740919
  0
LWPOLYLINE
  5
DE5
330
6F
100
AcDbEntity
  8
Layer 2
 62
     7
100
AcDbPolyline
 90
        2
 70
     0
 43
0.0
 10
166.655
 20
95.08979999999999
 10
185.519397
 20
97.740919
  0
LWPOLYLINE
  5
DE9
330
6F
100
AcDbEntity
  8
Layer 1
 62
     7
100
AcDbPolyline
 90
        2
 70
     0
 43
0.0
 10
169.307
 20
76.2252
 10
188.171397
 20
78.87631899999999
  0
LWPOLYLINE
  5
DED
330
6F
100
AcDbEntity
  8
Layer 2
 62
     7
100
AcDbPolyline
 90
        2
 70
     0
 43
0.0
 10
169.307
 20
76.2252
 10
188.171397
 20
78.87631899999999
  0
LWPOLYLINE
  5
DF1
330
6F
100
AcDbEntity
  8
Layer 1
 62
     7
100
AcDbPolyline
 90
        2
 70
     0
 43
0.0
 10
110.444
 20
19.302
 10
110.444
 20
38.35195800000001
  0
LWPOLYLINE
  5
DF5
330
6F
100
AcDbEntity
  8
Layer 2
 62
     7
100
AcDbPolyline
 90
        2
 70
     0
 43
0.0
 10
110.444
 20
19.302
 10
110.444
 20
38.35195800000001
  0
LWPOLYLINE
  5
DF9
330
6F
100
AcDbEntity
  8
Layer 1
 62
     7
100
AcDbPolyline
 90
        2
 70
     0
 43
0.0
 10
91.3945
 20
38.352
 10
91.3945
 20
19.302042
  0
LWPOLYLINE
  5
DFD
330
6F
100
AcDbEntity
  8
Layer 2
 62
     7
100
AcDbPolyline
 90
        2
 70
     0
 43
0.0
 10
91.3945
 20
38.352
 10
91.3945
 20
19.302042
  0
LWPOLYLINE
  5
E01
330
6F
100
AcDbEntity
  8
Layer 1
 62
     7
100
AcDbPolyline
 90
        2
 70
     0
 43
0.0
 10
91.3945
 20
38.352
 10
110.444458
 20
38.352
  0
LWPOLYLINE
  5
E05
330
6F
100
AcDbEntity
  8
Layer 2
 62
     7
100
AcDbPolyline
 90
        2
 70
     0
 43
0.0
 10
91.3945
 20
38.352
 10
110.444458
 20
38.352
  0
LWPOLYLINE
  5
E09
330
6F
100
AcDbEntity
  8
Layer 1
 62
     7
100
AcDbPolyline
 90
        2
 70
     0
 43
0.0
 10
91.3945
 20
19.302
 10
110.444458
 20
19.302
  0
LWPOLYLINE
  5
E0D
330
6F
100
AcDbEntity
  8
Layer 2
 62
     7
100
AcDbPolyline
 90
        2
 70
     0
 43
0.0
 10
91.3945
 20
19.302
 10
110.444458
 20
19.302
  0
LWPOLYLINE
  5
E11
330
6F
100
AcDbEntity
  8
Layer 1
 62
     7
100
AcDbPolyline
 90
        2
 70
     0
 43
0.0
 10
85.585
 20
49.6507
 10
88.23611899999999
 20
68.515097
  0
LWPOLYLINE
  5
E15
330
6F
100
AcDbEntity
  8
Layer 2
 62
     7
100
AcDbPolyline
 90
        2
 70
     0
 43
0.0
 10
85.585
 20
49.6507
 10
88.23611899999999
 20
68.515097
  0
LWPOLYLINE
  5
E19
330
6F
100
AcDbEntity
  8
Layer 1
 62
     7
100
AcDbPolyline
 90
        2
 70
     0
 43
0.0
 10
69.3716
 20
71.1667
 10
66.72048100000001
 20
52.302303
  0
LWPOLYLINE
  5
E1D
330
6F
100
AcDbEntity
  8
Layer 2
 62
     7
100
AcDbPolyline
 90
        2
 70
     0
 43
0.0
 10
69.3716
 20
71.1667
 10
66.72048100000001
 20
52.302303
  0
LWPOLYLINE
  5
E21
330
6F
100
AcDbEntity
  8
Layer 1
 62
     7
100
AcDbPolyline
 90
        2
 70
     0
 43
0.0
 10
69.3716
 20
71.1667
 10
88.235997
 20
68.51558100000001
  0
LWPOLYLINE
  5
E25
330
6F
100
AcDbEntity
  8
Layer 2
 62
     7
100
AcDbPolyline
 90
        2
 70
     0
 43
0.0
 10
69.3716
 20
71.1667
 10
88.235997
 20
68.51558100000001
  0
LWPOLYLINE
  5
E29
330
6F
100
AcDbEntity
  8
Layer 1
 62
     7
100
AcDbPolyline
 90
        2
 70
     0
 43
0.0
 10
66.7205
 20
52.3021
 10
85.584897
 20
49.650981
  0
LWPOLYLINE
  5
E2D
330
6F
100
AcDbEntity
  8
Layer 2
 62
     7
100
AcDbPolyline
 90
        2
 70
     0
 43
0.0
 10
66.7205
 20
52.3021
 10
85.584897
 20
49.650981
  0
LWPOLYLINE
  5
E31
330
6F
100
AcDbEntity
  8
Layer 1
 62
     7
100
AcDbPolyline
 90
        2
 70
     0
 43
0.0
 10
230.375
 20
52.345
 10
227.723881
 20
71.209397
  0
LWPOLYLINE
  5
E35
330
6F
100
AcDbEntity
  8
Layer 2
 62
     7
100
AcDbPolyline
 90
        2
 70
     0
 43
0.0
 10
230.375
 20
52.345
 10
227.723881
 20
71.209397
  0
LWPOLYLINE
  5
E39
330
6F
100
AcDbEntity
  8
Layer 1
 62
     7
100
AcDbPolyline
 90
        2
 70
     0
 43
0.0
 10
208.859
 20
68.5584
 10
211.510119
 20
49.694003
  0
LWPOLYLINE
  5
E3D
330
6F
100
AcDbEntity
  8
Layer 2
 62
     7
100
AcDbPolyline
 90
        2
 70
     0
 43
0.0
 10
208.859
 20
68.5584
 10
211.510119
 20
49.694003
  0
LWPOLYLINE
  5
E41
330
6F
100
AcDbEntity
  8
Layer 1
 62
     7
100
AcDbPolyline
 90
        2
 70
     0
 43
0.0
 10
208.859
 20
68.5584
 10
227.7233970000001
 20
71.209519
  0
LWPOLYLINE
  5
E45
330
6F
100
AcDbEntity
  8
Layer 2
 62
     7
100
AcDbPolyline
 90
        2
 70
     0
 43
0.0
 10
208.859
 20
68.5584
 10
227.7233970000001
 20
71.209519
  0
LWPOLYLINE
  5
E49
330
6F
100
AcDbEntity
  8
Layer 1
 62
     7
100
AcDbPolyline
 90
        2
 70
     0
 43
0.0
 10
211.51
 20
49.6936
 10
230.374397
 20
52.34471899999999
  0
LWPOLYLINE
  5
E4D
330
6F
100
AcDbEntity
  8
Layer 2
 62
     7
100
AcDbPolyline
 90
        2
 70
     0
 43
0.0
 10
211.51
 20
49.6936
 10
230.374397
 20
52.34471899999999
  0
LWPOLYLINE
  5
E51
330
6F
100
AcDbEntity
  8
Layer 1
 62
     7
100
AcDbPolyline
 90
        2
 70
     0
 43
0.0
 10
270.174
 20
42.90939999999999
 10
267.522881
 20
61.77379699999999
  0
LWPOLYLINE
  5
E55
330
6F
100
AcDbEntity
  8
Layer 2
 62
     7
100
AcDbPolyline
 90
        2
 70
     0
 43
0.0
 10
270.174
 20
42.90939999999999
 10
267.522881
 20
61.77379699999999
  0
LWPOLYLINE
  5
E59
330
6F
100
AcDbEntity
  8
Layer 1
 62
     7
100
AcDbPolyline
 90
        2
 70
     0
 43
0.0
 10
248.659
 20
59.12279999999999
 10
251.310119
 20
40.258403
  0
LWPOLYLINE
  5
E5D
330
6F
100
AcDbEntity
  8
Layer 2
 62
     7
100
AcDbPolyline
 90
        2
 70
     0
 43
0.0
 10
248.659
 20
59.12279999999999
 10
251.310119
 20
40.258403
  0
LWPOLYLINE
  5
E61
330
6F
100
AcDbEntity
  8
Layer 1
 62
     7
100
AcDbPolyline
 90
        2
 70
     0
 43
0.0
 10
248.659
 20
59.12279999999999
 10
267.523397
 20
61.77391899999999
  0
LWPOLYLINE
  5
E65
330
6F
100
AcDbEntity
  8
Layer 2
 62
     7
100
AcDbPolyline
 90
        2
 70
     0
 43
0.0
 10
248.659
 20
59.12279999999999
 10
267.523397
 20
61.77391899999999
  0
LWPOLYLINE
  5
E69
330
6F
100
AcDbEntity
  8
Layer 1
 62
     7
100
AcDbPolyline
 90
        2
 70
     0
 43
0.0
 10
251.311
 20
40.2583
 10
270.175397
 20
42.90941899999999
  0
LWPOLYLINE
  5
E6D
330
6F
100
AcDbEntity
  8
Layer 2
 62
     7
100
AcDbPolyline
 90
        2
 70
     0
 43
0.0
 10
251.311
 20
40.2583
 10
270.175397
 20
42.90941899999999
  0
LWPOLYLINE
  5
E71
330
6F
100
AcDbEntity
  8
Layer 1
 62
     7
100
AcDbPolyline
 90
        2
 70
     0
 43
0.0
 10
193.474
 20
41.1473
 10
190.822881
 20
60.011697
  0
LWPOLYLINE
  5
E75
330
6F
100
AcDbEntity
  8
Layer 2
 62
     7
100
AcDbPolyline
 90
        2
 70
     0
 43
0.0
 10
193.474
 20
41.1473
 10
190.822881
 20
60.011697
  0
LWPOLYLINE
  5
E79
330
6F
100
AcDbEntity
  8
Layer 1
 62
     7
100
AcDbPolyline
 90
        2
 70
     0
 43
0.0
 10
171.958
 20
57.3607
 10
174.609119
 20
38.49630300000001
  0
LWPOLYLINE
  5
E7D
330
6F
100
AcDbEntity
  8
Layer 2
 62
     7
100
AcDbPolyline
 90
        2
 70
     0
 43
0.0
 10
171.958
 20
57.3607
 10
174.609119
 20
38.49630300000001
  0
LWPOLYLINE
  5
E81
330
6F
100
AcDbEntity
  8
Layer 1
 62
     7
100
AcDbPolyline
 90
        2
 70
     0
 43
0.0
 10
171.958
 20
57.3607
 10
190.82275
 20
60.01181899999999
  0
LWPOLYLINE
  5
E85
330
6F
100
AcDbEntity
  8
Layer 2
 62
     7
100
AcDbPolyline
 90
        2
 70
     0
 43
0.0
 10
171.958
 20
57.3607
 10
190.82275
 20
60.01181899999999
  0
LWPOLYLINE
  5
E89
330
6F
100
AcDbEntity
  8
Layer 1
 62
     7
100
AcDbPolyline
 90
        2
 70
     0
 43
0.0
 10
174.609
 20
38.4962
 10
193.473397
 20
41.147319
  0
LWPOLYLINE
  5
E8D
330
6F
100
AcDbEntity
  8
Layer 2
 62
     7
100
AcDbPolyline
 90
        2
 70
     0
 43
0.0
 10
174.609
 20
38.4962
 10
193.473397
 20
41.147319
  0
LWPOLYLINE
  5
E91
330
6F
100
AcDbEntity
  8
Layer 1
 62
     7
100
AcDbPolyline
 90
        2
 70
     0
 43
0.0
 10
109.255
 20
81.1917
 10
111.906119
 20
100.056097
  0
LWPOLYLINE
  5
E95
330
6F
100
AcDbEntity
  8
Layer 2
 62
     7
100
AcDbPolyline
 90
        2
 70
     0
 43
0.0
 10
109.255
 20
81.1917
 10
111.906119
 20
100.056097
  0
LWPOLYLINE
  5
E99
330
6F
100
AcDbEntity
  8
Layer 1
 62
     7
100
AcDbPolyline
 90
        2
 70
     0
 43
0.0
 10
93.0418
 20
102.708
 10
90.39068099999999
 20
83.843603
  0
LWPOLYLINE
  5
E9D
330
6F
100
AcDbEntity
  8
Layer 2
 62
     7
100
AcDbPolyline
 90
        2
 70
     0
 43
0.0
 10
93.0418
 20
102.708
 10
90.39068099999999
 20
83.843603
  0
LWPOLYLINE
  5
EA1
330
6F
100
AcDbEntity
  8
Layer 1
 62
     7
100
AcDbPolyline
 90
        2
 70
     0
 43
0.0
 10
93.0418
 20
102.708
 10
111.906197
 20
100.056881
  0
LWPOLYLINE
  5
EA5
330
6F
100
AcDbEntity
  8
Layer 2
 62
     7
100
AcDbPolyline
 90
        2
 70
     0
 43
0.0
 10
93.0418
 20
102.708
 10
111.906197
 20
100.056881
  0
LWPOLYLINE
  5
EA9
330
6F
100
AcDbEntity
  8
Layer 1
 62
     7
100
AcDbPolyline
 90
        2
 70
     0
 43
0.0
 10
90.39039999999999
 20
83.84310000000001
 10
109.254797
 20
81.19198100000001
  0
LWPOLYLINE
  5
EAD
330
6F
100
AcDbEntity
  8
Layer 2
 62
     7
100
AcDbPolyline
 90
        2
 70
     0
 43
0.0
 10
90.39039999999999
 20
83.84310000000001
 10
109.254797
 20
81.19198100000001
  0
LWPOLYLINE
  5
EB1
330
6F
100
AcDbEntity
  8
Layer 1
 62
     7
100
AcDbPolyline
 90
        2
 70
     0
 43
0.0
 10
106.604
 20
62.3272
 10
109.255119
 20
81.191597
  0
LWPOLYLINE
  5
EB5
330
6F
100
AcDbEntity
  8
Layer 2
 62
     7
100
AcDbPolyline
 90
        2
 70
     0
 43
0.0
 10
106.604
 20
62.3272
 10
109.255119
 20
81.191597
  0
LWPOLYLINE
  5
EB9
330
6F
100
AcDbEntity
  8
Layer 1
 62
     7
100
AcDbPolyline
 90
        2
 70
     0
 43
0.0
 10
90.39039999999999
 20
83.84310000000001
 10
87.739281
 20
64.97870299999999
  0
LWPOLYLINE
  5
EBD
330
6F
100
AcDbEntity
  8
Layer 2
 62
     7
100
AcDbPolyline
 90
        2
 70
     0
 43
0.0
 10
90.39039999999999
 20
83.84310000000001
 10
87.739281
 20
64.97870299999999
  0
LWPOLYLINE
  5
EC1
330
6F
100
AcDbEntity
  8
Layer 1
 62
     7
100
AcDbPolyline
 90
        2
 70
     0
 43
0.0
 10
90.39039999999999
 20
83.84310000000001
 10
109.254797
 20
81.19198100000001
  0
LWPOLYLINE
  5
EC5
330
6F
100
AcDbEntity
  8
Layer 2
 62
     7
100
AcDbPolyline
 90
        2
 70
     0
 43
0.0
 10
90.39039999999999
 20
83.84310000000001
 10
109.254797
 20
81.19198100000001
  0
LWPOLYLINE
  5
EC9
330
6F
100
AcDbEntity
  8
Layer 1
 62
     7
100
AcDbPolyline
 90
        2
 70
     0
 43
0.0
 10
87.7393
 20
64.9783
 10
106.603697
 20
62.327181
  0
LWPOLYLINE
  5
ECD
330
6F
100
AcDbEntity
  8
Layer 2
 62
     7
100
AcDbPolyline
 90
        2
 70
     0
 43
0.0
 10
87.7393
 20
64.9783
 10
106.603697
 20
62.327181
  0
LWPOLYLINE
  5
ED1
330
6F
100
AcDbEntity
  8
Layer 1
 62
     7
100
AcDbPolyline
 90
        2
 70
     0
 43
0.0
 10
127.788
 20
76.1824
 10
130.439119
 20
95.046797
  0
LWPOLYLINE
  5
ED5
330
6F
100
AcDbEntity
  8
Layer 2
 62
     7
100
AcDbPolyline
 90
        2
 70
     0
 43
0.0
 10
127.788
 20
76.1824
 10
130.439119
 20
95.046797
  0
LWPOLYLINE
  5
ED9
330
6F
100
AcDbEntity
  8
Layer 1
 62
     7
100
AcDbPolyline
 90
        2
 70
     0
 43
0.0
 10
111.575
 20
97.6983
 10
108.923881
 20
78.83390300000001
  0
LWPOLYLINE
  5
EDD
330
6F
100
AcDbEntity
  8
Layer 2
 62
     7
100
AcDbPolyline
 90
        2
 70
     0
 43
0.0
 10
111.575
 20
97.6983
 10
108.923881
 20
78.83390300000001
  0
LWPOLYLINE
  5
EE1
330
6F
100
AcDbEntity
  8
Layer 1
 62
     7
100
AcDbPolyline
 90
        2
 70
     0
 43
0.0
 10
111.575
 20
97.6983
 10
130.439397
 20
95.04718100000001
  0
LWPOLYLINE
  5
EE5
330
6F
100
AcDbEntity
  8
Layer 2
 62
     7
100
AcDbPolyline
 90
        2
 70
     0
 43
0.0
 10
111.575
 20
97.6983
 10
130.439397
 20
95.04718100000001
  0
LWPOLYLINE
  5
EE9
330
6F
100
AcDbEntity
  8
Layer 1
 62
     7
100
AcDbPolyline
 90
        2
 70
     0
 43
0.0
 10
108.924
 20
78.83379999999999
 10
127.788397
 20
76.182681
  0
LWPOLYLINE
  5
EED
330
6F
100
AcDbEntity
  8
Layer 2
 62
     7
100
AcDbPolyline
 90
        2
 70
     0
 43
0.0
 10
108.924
 20
78.83379999999999
 10
127.788397
 20
76.182681
  0
LWPOLYLINE
  5
EF1
330
6F
100
AcDbEntity
  8
Layer 1
 62
     7
100
AcDbPolyline
 90
        2
 70
     0
 43
0.0
 10
225.072
 20
90.07429999999999
 10
222.420881
 20
108.938697
  0
LWPOLYLINE
  5
EF5
330
6F
100
AcDbEntity
  8
Layer 2
 62
     7
100
AcDbPolyline
 90
        2
 70
     0
 43
0.0
 10
225.072
 20
90.07429999999999
 10
222.420881
 20
108.938697
  0
LWPOLYLINE
  5
EF9
330
6F
100
AcDbEntity
  8
Layer 1
 62
     7
100
AcDbPolyline
 90
        2
 70
     0
 43
0.0
 10
203.556
 20
106.287
 10
206.207119
 20
87.42260300000001
  0
LWPOLYLINE
  5
EFD
330
6F
100
AcDbEntity
  8
Layer 2
 62
     7
100
AcDbPolyline
 90
        2
 70
     0
 43
0.0
 10
203.556
 20
106.287
 10
206.207119
 20
87.42260300000001
  0
LWPOLYLINE
  5
F01
330
6F
100
AcDbEntity
  8
Layer 1
 62
     7
100
AcDbPolyline
 90
        2
 70
     0
 43
0.0
 10
203.556
 20
106.287
 10
222.420397
 20
108.938119
  0
LWPOLYLINE
  5
F05
330
6F
100
AcDbEntity
  8
Layer 2
 62
     7
100
AcDbPolyline
 90
        2
 70
     0
 43
0.0
 10
203.556
 20
106.287
 10
222.420397
 20
108.938119
  0
LWPOLYLINE
  5
F09
330
6F
100
AcDbEntity
  8
Layer 1
 62
     7
100
AcDbPolyline
 90
        2
 70
     0
 43
0.0
 10
206.208
 20
87.4229
 10
225.072397
 20
90.07401899999999
  0
LWPOLYLINE
  5
F0D
330
6F
100
AcDbEntity
  8
Layer 2
 62
     7
100
AcDbPolyline
 90
        2
 70
     0
 43
0.0
 10
206.208
 20
87.4229
 10
225.072397
 20
90.07401899999999
  0
LWPOLYLINE
  5
F11
330
6F
100
AcDbEntity
  8
Layer 1
 62
     7
100
AcDbPolyline
 90
        2
 70
     0
 43
0.0
 10
186.644
 20
33.0894
 10
186.644
 20
14.039442
  0
LWPOLYLINE
  5
F15
330
6F
100
AcDbEntity
  8
Layer 2
 62
     7
100
AcDbPolyline
 90
        2
 70
     0
 43
0.0
 10
186.644
 20
33.0894
 10
186.644
 20
14.039442
  0
LWPOLYLINE
  5
F19
330
6F
100
AcDbEntity
  8
Layer 1
 62
     7
100
AcDbPolyline
 90
        2
 70
     0
 43
0.0
 10
110.444
 20
14.0394
 10
186.643832
 20
14.0394
  0
LWPOLYLINE
  5
F1D
330
6F
100
AcDbEntity
  8
Layer 2
 62
     7
100
AcDbPolyline
 90
        2
 70
     0
 43
0.0
 10
110.444
 20
14.0394
 10
186.643832
 20
14.0394
  0
LWPOLYLINE
  5
F21
330
6F
100
AcDbEntity
  8
Layer 1
 62
     7
100
AcDbPolyline
 90
        2
 70
     0
 43
0.0
 10
110.444
 20
33.0894
 10
186.643832
 20
33.0894
  0
LWPOLYLINE
  5
F25
330
6F
100
AcDbEntity
  8
Layer 2
 62
     7
100
AcDbPolyline
 90
        2
 70
     0
 43
0.0
 10
110.444
 20
33.0894
 10
186.643832
 20
33.0894
  0
LWPOLYLINE
  5
F29
330
6F
100
AcDbEntity
  8
Layer 1
 62
     7
100
AcDbPolyline
 90
        2
 70
     0
 43
0.0
 10
110.444
 20
33.0894
 10
110.444
 20
14.039442
  0
LWPOLYLINE
  5
F2D
330
6F
100
AcDbEntity
  8
Layer 2
 62
     7
100
AcDbPolyline
 90
        2
 70
     0
 43
0.0
 10
110.444
 20
33.0894
 10
110.444
 20
14.039442
  0
LWPOLYLINE
  5
F8D
330
6F
100
AcDbEntity
  8
Layer 2
 62
     7
100
AcDbPolyline
 90
       34
 70
     1
 43
0.0
 10
156.038
 20
44.6387
 10
155.885746
 20
43.12842299999999
 10
155.449077
 20
41.721763
 10
154.758137
 20
40.44884999999999
 10
153.843066
 20
39.339813
 10
152.734006
 20
38.42478100000001
 10
151.461099
 20
37.733884
 10
150.054487
 20
37.297251
 10
148.544311
 20
37.145011
 10
147.034019
 20
37.297251
 10
145.627319
 20
37.733884
 10
144.35435
 20
38.42478100000001
 10
143.245248
 20
39.339813
 10
142.330151
 20
40.44884999999999
 10
141.639197
 20
41.721763
 10
141.202524
 20
43.12842299999999
 10
141.050269
 20
44.6387
 10
141.202524
 20
46.148977
 10
141.639197
 20
47.55563699999999
 10
142.330151
 20
48.82855
 10
143.245248
 20
49.937587
 10
144.35435
 20
50.85261899999999
 10
145.627319
 20
51.543516
 10
147.034019
 20
51.980149
 10
148.544311
 20
52.132389
 10
150.054487
 20
51.980149
 10
151.461099
 20
51.543516
 10
152.734006
 20
50.85261899999999
 10
153.843066
 20
49.937587
 10
154.758137
 20
48.82855
 10
155.449077
 20
47.55563699999999
 10
155.885746
 20
46.148977
 10
156.038
 20
44.6387
 10
156.038
 20
44.6387
  0
LWPOLYLINE
  5
FB9
330
6F
100
AcDbEntity
  8
Layer 1
 62
     7
100
AcDbPolyline
 90
        2
 70
     0
 43
0.0
 10
63.572
 20
29.9004
 10
66.22311899999999
 20
48.76479699999999
  0
LWPOLYLINE
  5
FBD
330
6F
100
AcDbEntity
  8
Layer 2
 62
     7
100
AcDbPolyline
 90
        2
 70
     0
 43
0.0
 10
63.572
 20
29.9004
 10
63.621036
 20
30.249649
  0
LWPOLYLINE
  5
FC1
330
6F
100
AcDbEntity
  8
Layer 2
 62
     7
100
AcDbPolyline
 90
        2
 70
     0
 43
0.0
 10
63.7656
 20
31.2781
 10
66.102042
 20
47.901658
  0
LWPOLYLINE
  5
FC5
330
6F
100
AcDbEntity
  8
Layer 2
 62
     7
100
AcDbPolyline
 90
        2
 70
     0
 43
0.0
 10
66.17409999999999
 20
48.4157
 10
66.223136
 20
48.764949
  0
LWPOLYLINE
  5
FC9
330
6F
100
AcDbEntity
  8
Layer 1
 62
     7
100
AcDbPolyline
 90
        2
 70
     0
 43
0.0
 10
44.7074
 20
32.5518
 10
63.57179699999999
 20
29.900681
  0
LWPOLYLINE
  5
FCD
330
6F
100
AcDbEntity
  8
Layer 2
 62
     7
100
AcDbPolyline
 90
        2
 70
     0
 43
0.0
 10
44.7074
 20
32.5518
 10
45.056649
 20
32.502764
  0
LWPOLYLINE
  5
FD1
330
6F
100
AcDbEntity
  8
Layer 2
 62
     7
100
AcDbPolyline
 90
        2
 70
     0
 43
0.0
 10
46.08509999999999
 20
32.3581
 10
62.70865799999999
 20
30.021658
  0
LWPOLYLINE
  5
FD5
330
6F
100
AcDbEntity
  8
Layer 2
 62
     7
100
AcDbPolyline
 90
        2
 70
     0
 43
0.0
 10
63.2227
 20
29.9496
 10
63.57194899999999
 20
29.900564
  0
LWPOLYLINE
  5
FD9
330
6F
100
AcDbEntity
  8
Layer 1
 62
     7
100
AcDbPolyline
 90
        2
 70
     0
 43
0.0
 10
230.872
 20
48.8078
 10
233.523119
 20
29.94340300000001
  0
LWPOLYLINE
  5
FDD
330
6F
100
AcDbEntity
  8
Layer 2
 62
     7
100
AcDbPolyline
 90
        2
 70
     0
 43
0.0
 10
230.872
 20
48.8078
 10
230.921036
 20
48.458551
  0
LWPOLYLINE
  5
FE1
330
6F
100
AcDbEntity
  8
Layer 2
 62
     7
100
AcDbPolyline
 90
        2
 70
     0
 43
0.0
 10
231.065
 20
47.43039999999999
 10
233.401442
 20
30.806842
  0
LWPOLYLINE
  5
FE5
330
6F
100
AcDbEntity
  8
Layer 2
 62
     7
100
AcDbPolyline
 90
        2
 70
     0
 43
0.0
 10
233.474
 20
30.2925
 10
233.523036
 20
29.943251
  0
LWPOLYLINE
  5
FE9
330
6F
100
AcDbEntity
  8
Layer 1
 62
     7
100
AcDbPolyline
 90
        2
 70
     0
 43
0.0
 10
233.523
 20
29.9433
 10
252.387397
 20
32.59441900000001
  0
LWPOLYLINE
  5
FED
330
6F
100
AcDbEntity
  8
Layer 2
 62
     7
100
AcDbPolyline
 90
        2
 70
     0
 43
0.0
 10
233.523
 20
29.9433
 10
233.872249
 20
29.992336
  0
LWPOLYLINE
  5
FF1
330
6F
100
AcDbEntity
  8
Layer 2
 62
     7
100
AcDbPolyline
 90
        2
 70
     0
 43
0.0
 10
234.901
 20
30.1369
 10
251.524558
 20
32.473342
  0
LWPOLYLINE
  5
FF5
330
6F
100
AcDbEntity
  8
Layer 2
 62
     7
100
AcDbPolyline
 90
        2
 70
     0
 43
0.0
 10
252.038
 20
32.5454
 10
252.387249
 20
32.594436
  0
CIRCLE
  5
10F9
330
6F
100
AcDbEntity
  8
0
  6
Continuous
100
AcDbCircle
 10
119.6816985
 20
86.94049050000002
 30
0.0
 40
3.0
  0
CIRCLE
  5
10FA
330
6F
100
AcDbEntity
  8
0
  6
Continuous
100
AcDbCircle
 10
117.0306259146466
 20
68.07642376971648
 30
0.0
 40
3.0
  0
CIRCLE
  5
10FB
330
6F
100
AcDbEntity
  8
0
  6
Continuous
100
AcDbCircle
 10
114.3796985
 20
49.2113905
 30
0.0
 40
3.0
  0
CIRCLE
  5
10FC
330
6F
100
AcDbEntity
  8
0
  6
Continuous
100
AcDbCircle
 10
95.8466985
 20
54.22049050000001
 30
0.0
 40
3.0
  0
CIRCLE
  5
10FD
330
6F
100
AcDbEntity
  8
0
  6
Continuous
100
AcDbCircle
 10
98.49769850000001
 20
73.08529050000001
 30
0.0
 40
3.0
  0
CIRCLE
  5
10FE
330
6F
100
AcDbEntity
  8
0
  6
Continuous
100
AcDbCircle
 10
101.1486985
 20
91.9497905
 30
0.0
 40
3.0
  0
CIRCLE
  5
10FF
330
6F
100
AcDbEntity
  8
0
  6
Continuous
100
AcDbCircle
 10
82.7810765
 20
98.13857450000002
 30
0.0
 40
3.0
  0
CIRCLE
  5
1100
330
6F
100
AcDbEntity
  8
0
  6
Continuous
100
AcDbCircle
 10
63.41959850000001
 20
97.25229050000002
 30
0.0
 40
3.0
  0
CIRCLE
  5
1101
330
6F
100
AcDbEntity
  8
0
  6
Continuous
100
AcDbCircle
 10
42.9806765
 20
88.7029745
 30
0.0
 40
3.0
  0
CIRCLE
  5
1102
330
6F
100
AcDbEntity
  8
0
  6
Continuous
100
AcDbCircle
 10
24.1159985
 20
91.35399050000001
 30
0.0
 40
3.0
  0
CIRCLE
  5
1103
330
6F
100
AcDbEntity
  8
0
  6
Continuous
100
AcDbCircle
 10
21.4651605
 20
72.48969650000001
 30
0.0
 40
3.0
  0
CIRCLE
  5
1104
330
6F
100
AcDbEntity
  8
0
  6
Continuous
100
AcDbCircle
 10
18.8137605
 20
53.62519650000002
 30
0.0
 40
3.0
  0
CIRCLE
  5
1105
330
6F
100
AcDbEntity
  8
0
  6
Continuous
100
AcDbCircle
 10
16.1622985
 20
34.76009050000001
 30
0.0
 40
3.0
  0
CIRCLE
  5
1106
330
6F
100
AcDbEntity
  8
0
  6
Continuous
100
AcDbCircle
 10
35.0271795
 20
32.10909350000001
 30
0.0
 40
3.0
  0
CIRCLE
  5
1107
330
6F
100
AcDbEntity
  8
0
  6
Continuous
100
AcDbCircle
 10
37.67829850000001
 20
50.97349050000001
 30
0.0
 40
3.0
  0
CIRCLE
  5
1108
330
6F
100
AcDbEntity
  8
0
  6
Continuous
100
AcDbCircle
 10
40.32939849999999
 20
69.83809050000001
 30
0.0
 40
3.0
  0
CIRCLE
  5
1109
330
6F
100
AcDbEntity
  8
0
  6
Continuous
100
AcDbCircle
 10
60.76819849999999
 20
78.38779050000001
 30
0.0
 40
3.0
  0
CIRCLE
  5
110A
330
6F
100
AcDbEntity
  8
0
  6
Continuous
100
AcDbCircle
 10
58.11709849999999
 20
59.5229905
 30
0.0
 40
3.0
  0
CIRCLE
  5
110B
330
6F
100
AcDbEntity
  8
0
  6
Continuous
100
AcDbCircle
 10
77.47897950000001
 20
60.40919350000002
 30
0.0
 40
3.0
  0
CIRCLE
  5
110C
330
6F
100
AcDbEntity
  8
0
  6
Continuous
100
AcDbCircle
 10
80.13009850000001
 20
79.27359050000001
 30
0.0
 40
3.0
  0
CIRCLE
  5
110E
330
6F
100
AcDbEntity
  8
0
  6
Continuous
100
AcDbCircle
 10
177.4134405
 20
86.98299849999999
 30
0.0
 40
3.0
  0
CIRCLE
  5
110F
330
6F
100
AcDbEntity
  8
0
  6
Continuous
100
AcDbCircle
 10
180.0645595
 20
68.1186015
 30
0.0
 40
3.0
  0
CIRCLE
  5
1110
330
6F
100
AcDbEntity
  8
0
  6
Continuous
100
AcDbCircle
 10
182.7157354289564
 20
49.25379941428511
 30
0.0
 40
3.0
  0
CIRCLE
  5
1111
330
6F
100
AcDbEntity
  8
0
  6
Continuous
100
AcDbCircle
 10
195.9474405
 20
91.9921985
 30
0.0
 40
3.0
  0
CIRCLE
  5
1112
330
6F
100
AcDbEntity
  8
0
  6
Continuous
100
AcDbCircle
 10
198.5985595
 20
73.1278015
 30
0.0
 40
3.0
  0
CIRCLE
  5
1113
330
6F
100
AcDbEntity
  8
0
  6
Continuous
100
AcDbCircle
 10
201.2497354289564
 20
54.26299941428512
 30
0.0
 40
3.0
  0
CIRCLE
  5
1114
330
6F
100
AcDbEntity
  8
0
  6
Continuous
100
AcDbCircle
 10
214.3144405
 20
98.1801985
 30
0.0
 40
3.0
  0
CIRCLE
  5
1115
330
6F
100
AcDbEntity
  8
0
  6
Continuous
100
AcDbCircle
 10
216.9655595
 20
79.31580150000001
 30
0.0
 40
3.0
  0
CIRCLE
  5
1116
330
6F
100
AcDbEntity
  8
0
  6
Continuous
100
AcDbCircle
 10
219.6167354289565
 20
60.45099941428512
 30
0.0
 40
3.0
  0
CIRCLE
  5
1117
330
6F
100
AcDbEntity
  8
0
  6
Continuous
100
AcDbCircle
 10
233.6764405
 20
97.2951985
 30
0.0
 40
3.0
  0
CIRCLE
  5
1118
330
6F
100
AcDbEntity
  8
0
  6
Continuous
100
AcDbCircle
 10
236.3275595
 20
78.4308015
 30
0.0
 40
3.0
  0
CIRCLE
  5
1119
330
6F
100
AcDbEntity
  8
0
  6
Continuous
100
AcDbCircle
 10
238.9787354289565
 20
59.56599941428511
 30
0.0
 40
3.0
  0
CIRCLE
  5
111A
330
6F
100
AcDbEntity
  8
0
  6
Continuous
100
AcDbCircle
 10
254.1154405
 20
88.7452985
 30
0.0
 40
3.0
  0
CIRCLE
  5
111B
330
6F
100
AcDbEntity
  8
0
  6
Continuous
100
AcDbCircle
 10
256.7665595
 20
69.88090149999999
 30
0.0
 40
3.0
  0
CIRCLE
  5
111C
330
6F
100
AcDbEntity
  8
0
  6
Continuous
100
AcDbCircle
 10
259.4177354289564
 20
51.0160994142851
 30
0.0
 40
3.0
  0
CIRCLE
  5
111D
330
6F
100
AcDbEntity
  8
0
  6
Continuous
100
AcDbCircle
 10
272.9793215
 20
91.3962955
 30
0.0
 40
3.0
  0
CIRCLE
  5
111E
330
6F
100
AcDbEntity
  8
0
  6
Continuous
100
AcDbCircle
 10
275.6304405
 20
72.5318985
 30
0.0
 40
3.0
  0
CIRCLE
  5
111F
330
6F
100
AcDbEntity
  8
0
  6
Continuous
100
AcDbCircle
 10
278.2816164289565
 20
53.66709641428511
 30
0.0
 40
3.0
  0
CIRCLE
  5
1120
330
6F
100
AcDbEntity
  8
0
  6
Continuous
100
AcDbCircle
 10
262.0685595
 20
32.1516015
 30
0.0
 40
3.0
  0
CIRCLE
  5
1121
330
6F
100
AcDbEntity
  8
0
  6
Continuous
100
AcDbCircle
 10
241.6304405
 20
40.7009985
 30
0.0
 40
3.0
  0
CIRCLE
  5
1122
330
6F
100
AcDbEntity
  8
0
  6
Continuous
100
AcDbCircle
 10
280.9323215
 20
34.80249549999999
 30
0.0
 40
3.0
  0
CIRCLE
  5
1123
330
6F
100
AcDbEntity
  8
0
  6
Continuous
100
AcDbCircle
 10
55.46605750000002
 20
40.65927750000001
 30
0.0
 40
3.0
  0
CIRCLE
  5
1125
330
6F
100
AcDbEntity
  8
0
  6
Continuous
100
AcDbCircle
 10
100.91925
 20
28.827
 30
0.0
 40
3.0
  0
CIRCLE
  5
1126
330
6F
100
AcDbEntity
  8
0
  6
Continuous
100
AcDbCircle
 10
81.86925
 20
32.30360000000001
 30
0.0
 40
3.0
  0
CIRCLE
  5
1127
330
6F
100
AcDbEntity
  8
0
  6
Continuous
100
AcDbCircle
 10
119.96875
 20
23.5644
 30
0.0
 40
3.0
  0
CIRCLE
  5
1128
330
6F
100
AcDbEntity
  8
0
  6
Continuous
100
AcDbCircle
 10
196.16875
 20
28.827
 30
0.0
 40
3.0
  0
CIRCLE
  5
1129
330
6F
100
AcDbEntity
  8
0
  6
Continuous
100
AcDbCircle
 10
215.21875
 20
32.30360000000001
 30
0.0
 40
3.0
  0
CIRCLE
  5
112A
330
6F
100
AcDbEntity
  8
0
  6
Continuous
100
AcDbCircle
 10
177.118624
 20
23.5644
 30
0.0
 40
3.0
  0
ENDSEC
  0
SECTION
  2
OBJECTS
  0
DICTIONARY
  5
C
330
0
100
AcDbDictionary
281
     1
  3
ACAD_CIP_PREVIOUS_PRODUCT_INFO
350
10E9
  3
ACAD_COLOR
350
62
  3
ACAD_DETAILVIEWSTYLE
350
69
  3
ACAD_GROUP
350
D
  3
ACAD_LAST_SAVED_VERSION_INFO
350
112B
  3
ACAD_LAYOUT
350
61
  3
ACAD_MATERIAL
350
10
  3
ACAD_MLEADERSTYLE
350
65
  3
ACAD_MLINESTYLE
350
5E
  3
ACAD_PLOTSETTINGS
350
60
  3
ACAD_PLOTSTYLENAME
350
E
  3
ACAD_SCALELIST
350
42
  3
ACAD_SECTIONVIEWSTYLE
350
67
  3
ACAD_TABLESTYLE
350
63
  3
ACAD_VISUALSTYLE
350
29
  3
ACDB_RECOMPOSE_DATA
350
1152
  3
AcDbVariableDictionary
350
113B
  0
DICTIONARY
  5
1135
330
2
100
AcDbDictionary
280
     1
281
     1
  3
ACAD_LAYERSTATES
360
1136
  0
DICTIONARY
  5
112C
330
54
100
AcDbDictionary
280
     1
281
     1
  3
ADSK_XREC_LAYER_RECONCILED
360
112D
  0
DICTIONARY
  5
112E
330
73
100
AcDbDictionary
280
     1
281
     1
  3
ADSK_XREC_LAYER_RECONCILED
360
112F
  0
DICTIONARY
  5
1130
330
925
100
AcDbDictionary
280
     1
281
     1
  3
ADSK_XREC_LAYER_RECONCILED
360
1131
  0
XRECORD
  5
10E9
102
{ACAD_REACTORS
330
C
102
}
330
C
100
AcDbXrecord
280
     1
300
ACDMAC
300
2026
300

  0
DICTIONARY
  5
62
102
{ACAD_REACTORS
330
C
102
}
330
C
100
AcDbDictionary
281
     1
  0
DICTIONARY
  5
69
102
{ACAD_REACTORS
330
C
102
}
330
C
100
AcDbDictionary
281
     1
  3
Imperial24
350
6A
  0
DICTIONARY
  5
D
102
{ACAD_REACTORS
330
C
102
}
330
C
100
AcDbDictionary
281
     1
  0
XRECORD
  5
112B
102
{ACAD_REACTORS
330
C
102
}
330
C
100
AcDbXrecord
280
     1
300
{295D3363-CD3C-C94D-A78B-AE702E0CF201}
301
{A3A323EE-F109-FE49-AD13-6EB584F9F24E}
302
{295D3363-CD3C-C94D-A78B-AE702E0CF201}
303
/Users/quark/Documents/GitHub/WaveTheory/PCB/Reference/scientist-layout.dxf
  0
DICTIONARY
  5
61
102
{ACAD_REACTORS
330
C
102
}
330
C
100
AcDbDictionary
281
     1
  3
Layout1
350
6E
  3
Model
350
72
  0
DICTIONARY
  5
10
102
{ACAD_REACTORS
330
C
102
}
330
C
100
AcDbDictionary
281
     1
  3
ByBlock
350
19
  3
ByLayer
350
11
  3
Global
350
21
  0
DICTIONARY
  5
65
102
{ACAD_REACTORS
330
C
102
}
330
C
100
AcDbDictionary
281
     1
  3
Standard
350
66
  0
DICTIONARY
  5
5E
102
{ACAD_REACTORS
330
C
102
}
330
C
100
AcDbDictionary
281
     1
  3
Standard
350
5F
  0
DICTIONARY
  5
60
102
{ACAD_REACTORS
330
C
102
}
330
C
100
AcDbDictionary
281
     1
  0
ACDBDICTIONARYWDFLT
  5
E
102
{ACAD_REACTORS
330
C
102
}
330
C
100
AcDbDictionary
281
     1
  3
Normal
350
F
100
AcDbDictionaryWithDefault
340
F
  0
DICTIONARY
  5
42
102
{ACAD_REACTORS
330
C
102
}
330
C
100
AcDbDictionary
281
     1
  3
A0
350
43
  3
A1
350
44
  3
A2
350
45
  3
A3
350
46
  3
A4
350
47
  3
A5
350
48
  3
A6
350
49
  3
A7
350
4A
  3
A8
350
4B
  3
A9
350
4C
  3
B0
350
4D
  3
B1
350
4E
  3
B2
350
4F
  3
B3
350
50
  3
B4
350
51
  3
B5
350
52
  3
B6
350
53
  0
DICTIONARY
  5
67
102
{ACAD_REACTORS
330
C
102
}
330
C
100
AcDbDictionary
281
     1
  3
Imperial24
350
68
  0
DICTIONARY
  5
63
102
{ACAD_REACTORS
330
C
102
}
330
C
100
AcDbDictionary
281
     1
  3
Standard
350
64
  0
DICTIONARY
  5
29
102
{ACAD_REACTORS
330
C
102
}
330
C
100
AcDbDictionary
281
     1
  3
2dWireframe
350
2F
  3
Basic
350
2E
  3
Brighten
350
35
  3
ColorChange
350
39
  3
Conceptual
350
32
  3
Dim
350
34
  3
EdgeColorOff
350
41
  3
Facepattern
350
38
  3
Flat
350
2A
  3
FlatWithEdges
350
2B
  3
Gouraud
350
2C
  3
GouraudWithEdges
350
2D
  3
Hidden
350
31
  3
JitterOff
350
3F
  3
Linepattern
350
37
  3
OverhangOff
350
40
  3
Realistic
350
33
  3
Shaded
350
3E
  3
Shaded with edges
350
3D
  3
Shades of Gray
350
3A
  3
Sketchy
350
3B
  3
Thicken
350
36
  3
Wireframe
350
30
  3
X-Ray
350
3C
  0
XRECORD
  5
1152
102
{ACAD_REACTORS
330
C
102
}
330
C
100
AcDbXrecord
280
     1
 90
        1
330
64
  0
DICTIONARY
  5
113B
102
{ACAD_REACTORS
330
C
102
}
330
C
100
AcDbDictionary
281
     1
  3
CANNOSCALE
350
1141
  3
CMLEADERSTYLE
350
113D
  3
CTABLESTYLE
350
113C
  3
CVIEWDETAILSTYLE
350
113E
  3
CVIEWSECTIONSTYLE
350
113F
  3
LAYEREVAL
350
1143
  3
LAYERNOTIFY
350
1144
  3
LIGHTINGUNITS
350
1142
  3
MSLTSCALE
350
1140
  0
DICTIONARY
  5
1136
102
{ACAD_REACTORS
330
1135
102
}
330
1135
100
AcDbDictionary
281
     1
  0
XRECORD
  5
112D
102
{ACAD_REACTORS
330
112C
102
}
330
112C
100
AcDbXrecord
280
     1
290
     1
  0
XRECORD
  5
112F
102
{ACAD_REACTORS
330
112E
102
}
330
112E
100
AcDbXrecord
280
     1
290
     1
  0
XRECORD
  5
1131
102
{ACAD_REACTORS
330
1130
102
}
330
1130
100
AcDbXrecord
280
     1
290
     1
  0
ACDBDETAILVIEWSTYLE
  5
6A
102
{ACAD_REACTORS
330
69
102
}
330
69
100
AcDbModelDocViewStyle
 70
     0
  3
Imperial24
290
     0
300
Imperial24
 90
        0
100
AcDbDetailViewStyle
 70
     0
 71
     0
 90
        3
 71
     1
340
55
 62
   256
 40
0.24
340
0
 62
   256
 40
0.24
300

 40
0.36
280
     3
 71
     2
340
5C
 90
       25
 62
   256
 71
     3
340
55
 62
   256
 40
0.24
 90
        1
 40
0.75
 90
        1
300
%<\AcVar ViewType \f "%tc1">% %<\AcVar ViewDetailId>%\PSCALE %<\AcVar ViewScale \f "%sn">%
 71
     4
340
5C
 90
       25
 62
   256
340
5C
 90
       25
 62
   256
280
     0
  0
LAYOUT
  5
6E
102
{ACAD_REACTORS
330
61
102
}
330
61
100
AcDbPlotSettings
  1

  2

  4

  6

 40
0.0
 41
0.0
 42
0.0
 43
0.0
 44
0.0
 45
0.0
 46
0.0
 47
0.0
 48
0.0
 49
0.0
140
0.0
141
0.0
142
1.0
143
1.0
 70
   688
 72
     0
 73
     0
 74
     5
  7

 75
    16
147
1.0
 76
     0
 77
     2
 78
   300
148
0.0
149
0.0
100
AcDbLayout
  1
Layout1
 70
     1
 71
     1
 10
0.0
 20
0.0
 11
12.0
 21
9.0
 12
0.0
 22
0.0
 32
0.0
 14
1.000000000000000E+20
 24
1.000000000000000E+20
 34
1.000000000000000E+20
 15
-1.000000000000000E+20
 25
-1.000000000000000E+20
 35
-1.000000000000000E+20
146
0.0
 13
0.0
 23
0.0
 33
0.0
 16
1.0
 26
0.0
 36
0.0
 17
0.0
 27
1.0
 37
0.0
 76
     0
330
6B
  0
LAYOUT
  5
72
102
{ACAD_REACTORS
330
61
102
}
330
61
100
AcDbPlotSettings
  1

  2

  4

  6

 40
0.0
 41
0.0
 42
0.0
 43
0.0
 44
0.0
 45
0.0
 46
0.0
 47
0.0
 48
0.0
 49
0.0
140
0.0
141
0.0
142
1.0
143
1.0
 70
  1712
 72
     0
 73
     0
 74
     0
  7

 75
     0
147
1.0
 76
     0
 77
     2
 78
   300
148
0.0
149
0.0
100
AcDbLayout
  1
Model
 70
     1
 71
     0
 10
0.0
 20
0.0
 11
12.0
 21
9.0
 12
0.0
 22
0.0
 32
0.0
 14
0.0
 24
0.0
 34
0.0
 15
0.0
 25
0.0
 35
0.0
146
0.0
 13
0.0
 23
0.0
 33
0.0
 16
1.0
 26
0.0
 36
0.0
 17
0.0
 27
1.0
 37
0.0
 76
     0
330
6F
331
10E8
  0
MATERIAL
  5
19
102
{ACAD_XDICTIONARY
360
1A
102
}
102
{ACAD_REACTORS
330
10
102
}
330
10
100
AcDbMaterial
  1
ByBlock
 72
     0
 43
0.0208333333333333
 43
0.0
 43
0.0
 43
0.0
 43
0.0
 43
0.0208333333333333
 43
0.0
 43
0.0
 43
0.0
 43
0.0
 43
1.0
 43
0.0
 43
0.0
 43
0.0
 43
0.0
 43
1.0
 77
     0
 47
0.0208333333333333
 47
0.0
 47
0.0
 47
0.0
 47
0.0
 47
0.0208333333333333
 47
0.0
 47
0.0
 47
0.0
 47
0.0
 47
1.0
 47
0.0
 47
0.0
 47
0.0
 47
0.0
 47
1.0
171
     0
 49
0.0208333333333333
 49
0.0
 49
0.0
 49
0.0
 49
0.0
 49
0.0208333333333333
 49
0.0
 49
0.0
 49
0.0
 49
0.0
 49
1.0
 49
0.0
 49
0.0
 49
0.0
 49
0.0
 49
1.0
175
     0
142
0.0208333333333333
142
0.0
142
0.0
142
0.0
142
0.0
142
0.0208333333333333
142
0.0
142
0.0
142
0.0
142
0.0
142
1.0
142
0.0
142
0.0
142
0.0
142
0.0
142
1.0
179
     0
144
0.0208333333333333
144
0.0
144
0.0
144
0.0
144
0.0
144
0.0208333333333333
144
0.0
144
0.0
144
0.0
144
0.0
144
1.0
144
0.0
144
0.0
144
0.0
144
0.0
144
1.0
147
0.0208333333333333
147
0.0
147
0.0
147
0.0
147
0.0
147
0.0208333333333333
147
0.0
147
0.0
147
0.0
147
0.0
147
1.0
147
0.0
147
0.0
147
0.0
147
0.0
147
1.0
  0
MATERIAL
  5
11
102
{ACAD_XDICTIONARY
360
12
102
}
102
{ACAD_REACTORS
330
10
102
}
330
10
100
AcDbMaterial
  1
ByLayer
 72
     0
 43
0.0208333333333333
 43
0.0
 43
0.0
 43
0.0
 43
0.0
 43
0.0208333333333333
 43
0.0
 43
0.0
 43
0.0
 43
0.0
 43
1.0
 43
0.0
 43
0.0
 43
0.0
 43
0.0
 43
1.0
 77
     0
 47
0.0208333333333333
 47
0.0
 47
0.0
 47
0.0
 47
0.0
 47
0.0208333333333333
 47
0.0
 47
0.0
 47
0.0
 47
0.0
 47
1.0
 47
0.0
 47
0.0
 47
0.0
 47
0.0
 47
1.0
171
     0
 49
0.0208333333333333
 49
0.0
 49
0.0
 49
0.0
 49
0.0
 49
0.0208333333333333
 49
0.0
 49
0.0
 49
0.0
 49
0.0
 49
1.0
 49
0.0
 49
0.0
 49
0.0
 49
0.0
 49
1.0
175
     0
142
0.0208333333333333
142
0.0
142
0.0
142
0.0
142
0.0
142
0.0208333333333333
142
0.0
142
0.0
142
0.0
142
0.0
142
1.0
142
0.0
142
0.0
142
0.0
142
0.0
142
1.0
179
     0
144
0.0208333333333333
144
0.0
144
0.0
144
0.0
144
0.0
144
0.0208333333333333
144
0.0
144
0.0
144
0.0
144
0.0
144
1.0
144
0.0
144
0.0
144
0.0
144
0.0
144
1.0
147
0.0208333333333333
147
0.0
147
0.0
147
0.0
147
0.0
147
0.0208333333333333
147
0.0
147
0.0
147
0.0
147
0.0
147
1.0
147
0.0
147
0.0
147
0.0
147
0.0
147
1.0
  0
MATERIAL
  5
21
102
{ACAD_XDICTIONARY
360
22
102
}
102
{ACAD_REACTORS
330
10
102
}
330
10
100
AcDbMaterial
  1
Global
 72
     0
 43
0.0208333333333333
 43
0.0
 43
0.0
 43
0.0
 43
0.0
 43
0.0208333333333333
 43
0.0
 43
0.0
 43
0.0
 43
0.0
 43
1.0
 43
0.0
 43
0.0
 43
0.0
 43
0.0
 43
1.0
 77
     0
 47
0.0208333333333333
 47
0.0
 47
0.0
 47
0.0
 47
0.0
 47
0.0208333333333333
 47
0.0
 47
0.0
 47
0.0
 47
0.0
 47
1.0
 47
0.0
 47
0.0
 47
0.0
 47
0.0
 47
1.0
171
     0
 49
0.0208333333333333
 49
0.0
 49
0.0
 49
0.0
 49
0.0
 49
0.0208333333333333
 49
0.0
 49
0.0
 49
0.0
 49
0.0
 49
1.0
 49
0.0
 49
0.0
 49
0.0
 49
0.0
 49
1.0
175
     0
142
0.0208333333333333
142
0.0
142
0.0
142
0.0
142
0.0
142
0.0208333333333333
142
0.0
142
0.0
142
0.0
142
0.0
142
1.0
142
0.0
142
0.0
142
0.0
142
0.0
142
1.0
179
     0
144
0.0208333333333333
144
0.0
144
0.0
144
0.0
144
0.0
144
0.0208333333333333
144
0.0
144
0.0
144
0.0
144
0.0
144
1.0
144
0.0
144
0.0
144
0.0
144
0.0
144
1.0
147
0.0208333333333333
147
0.0
147
0.0
147
0.0
147
0.0
147
0.0208333333333333
147
0.0
147
0.0
147
0.0
147
0.0
147
1.0
147
0.0
147
0.0
147
0.0
147
0.0
147
1.0
  0
MLEADERSTYLE
  5
66
102
{ACAD_REACTORS
330
65
102
}
330
65
100
AcDbMLeaderStyle
179
     2
170
     2
171
     1
172
     0
 90
        2
 40
0.0
 41
0.0
173
     1
 91
-1056964608
340
5A
 92
       -2
290
     1
 42
0.09
291
     1
 43
0.36
  3
Standard
 44
0.18
300

342
55
174
     1
178
     6
175
     1
176
     0
 93
-1056964608
 45
0.18
292
     0
297
     0
 46
0.18
 94
-1056964608
 47
1.0
 49
1.0
140
1.0
293
     1
141
0.0
294
     1
177
     0
142
1.0
295
     0
296
     0
143
0.125
271
     0
272
     9
273
     9
298
     0
  0
MLINESTYLE
  5
5F
102
{ACAD_REACTORS
330
5E
102
}
330
5E
100
AcDbMlineStyle
  2
STANDARD
 70
     0
  3

 62
   256
 51
90.0
 52
90.0
 71
     2
 49
0.5
 62
   256
  6
BYLAYER
 49
-0.5
 62
   256
  6
BYLAYER
  0
ACDBPLACEHOLDER
  5
F
102
{ACAD_REACTORS
330
E
102
}
330
E
  0
SCALE
  5
43
102
{ACAD_REACTORS
330
42
102
}
330
42
100
AcDbScale
 70
     0
300
1:1
140
1.0
141
1.0
290
     1
  0
SCALE
  5
44
102
{ACAD_REACTORS
330
42
102
}
330
42
100
AcDbScale
 70
     0
300
1/128" = 1'-0"
140
0.0078125
141
12.0
290
     0
  0
SCALE
  5
45
102
{ACAD_REACTORS
330
42
102
}
330
42
100
AcDbScale
 70
     0
300
1/64" = 1'-0"
140
0.015625
141
12.0
290
     0
  0
SCALE
  5
46
102
{ACAD_REACTORS
330
42
102
}
330
42
100
AcDbScale
 70
     0
300
1/32" = 1'-0"
140
0.03125
141
12.0
290
     0
  0
SCALE
  5
47
102
{ACAD_REACTORS
330
42
102
}
330
42
100
AcDbScale
 70
     0
300
1/16" = 1'-0"
140
0.0625
141
12.0
290
     0
  0
SCALE
  5
48
102
{ACAD_REACTORS
330
42
102
}
330
42
100
AcDbScale
 70
     0
300
3/32" = 1'-0"
140
0.09375
141
12.0
290
     0
  0
SCALE
  5
49
102
{ACAD_REACTORS
330
42
102
}
330
42
100
AcDbScale
 70
     0
300
1/8" = 1'-0"
140
0.125
141
12.0
290
     0
  0
SCALE
  5
4A
102
{ACAD_REACTORS
330
42
102
}
330
42
100
AcDbScale
 70
     0
300
3/16" = 1'-0"
140
0.1875
141
12.0
290
     0
  0
SCALE
  5
4B
102
{ACAD_REACTORS
330
42
102
}
330
42
100
AcDbScale
 70
     0
300
1/4" = 1'-0"
140
0.25
141
12.0
290
     0
  0
SCALE
  5
4C
102
{ACAD_REACTORS
330
42
102
}
330
42
100
AcDbScale
 70
     0
300
3/8" = 1'-0"
140
0.375
141
12.0
290
     0
  0
SCALE
  5
4D
102
{ACAD_REACTORS
330
42
102
}
330
42
100
AcDbScale
 70
     0
300
1/2" = 1'-0"
140
0.5
141
12.0
290
     0
  0
SCALE
  5
4E
102
{ACAD_REACTORS
330
42
102
}
330
42
100
AcDbScale
 70
     0
300
3/4" = 1'-0"
140
0.75
141
12.0
290
     0
  0
SCALE
  5
4F
102
{ACAD_REACTORS
330
42
102
}
330
42
100
AcDbScale
 70
     0
300
1" = 1'-0"
140
1.0
141
12.0
290
     0
  0
SCALE
  5
50
102
{ACAD_REACTORS
330
42
102
}
330
42
100
AcDbScale
 70
     0
300
1-1/2" = 1'-0"
140
1.5
141
12.0
290
     0
  0
SCALE
  5
51
102
{ACAD_REACTORS
330
42
102
}
330
42
100
AcDbScale
 70
     0
300
3" = 1'-0"
140
3.0
141
12.0
290
     0
  0
SCALE
  5
52
102
{ACAD_REACTORS
330
42
102
}
330
42
100
AcDbScale
 70
     0
300
6" = 1'-0"
140
6.0
141
12.0
290
     0
  0
SCALE
  5
53
102
{ACAD_REACTORS
330
42
102
}
330
42
100
AcDbScale
 70
     0
300
1'-0" = 1'-0"
140
12.0
141
12.0
290
     0
  0
ACDBSECTIONVIEWSTYLE
  5
68
102
{ACAD_REACTORS
330
67
102
}
330
67
100
AcDbModelDocViewStyle
 70
     0
  3
Imperial24
290
     0
300
Imperial24
 90
        0
100
AcDbSectionViewStyle
 70
     0
 71
     0
 90
       78
 71
     1
340
55
 62
   256
 40
0.24
340
0
340
0
 62
   256
 40
0.24
300
I, O, Q, S, X, Z
 40
0.48
 90
        3
 40
0.18
 90
        1
 71
     2
340
5C
 90
       25
 62
   256
340
5C
 90
       50
 62
   256
 40
0.24
 40
0.0
 40
0.24
 71
     3
340
55
 62
   256
 40
0.24
 90
        1
 40
0.75
 90
        1
300
%<\AcVar ViewType \f "%tc1">% %<\AcVar ViewSectionStartId>%-%<\AcVar ViewSectionEndId>%\PSCALE %<\AcVar ViewScale \f "%sn">%
 71
     4
 62
   256
 62
   257
300
ANSI31
 40
1.0
 90
        0
290
     0
290
     0
 90
        6
 40
0.0
 40
1.570796326794896
 40
0.2617993877991494
 40
1.308996938995747
 40
-0.2617993877991494
 40
1.832595714594046
  0
TABLESTYLE
  5
64
102
{ACAD_XDICTIONARY
360
1150
102
}
102
{ACAD_REACTORS
330
63
102
}
330
63
100
AcDbTableStyle
280
     0
  3
Standard
 70
     0
 71
     0
 40
0.06
 41
0.06
280
     0
281
     0
  7
Standard
140
0.18
170
     2
 62
     0
 63
     7
283
     0
 90
      512
 91
        0
  1

274
    -2
284
     1
 64
     0
275
    -2
285
     1
 65
     0
276
    -2
286
     1
 66
     0
277
    -2
287
     1
 67
     0
278
    -2
288
     1
 68
     0
279
    -2
289
     1
 69
     0
  7
Standard
140
0.25
170
     5
 62
     0
 63
     7
283
     0
 90
      512
 91
        0
  1

274
    -2
284
     1
 64
     0
275
    -2
285
     1
 65
     0
276
    -2
286
     1
 66
     0
277
    -2
287
     1
 67
     0
278
    -2
288
     1
 68
     0
279
    -2
289
     1
 69
     0
  7
Standard
140
0.18
170
     5
 62
     0
 63
     7
283
     0
 90
      512
 91
        0
  1

274
    -2
284
     1
 64
     0
275
    -2
285
     1
 65
     0
276
    -2
286
     1
 66
     0
277
    -2
287
     1
 67
     0
278
    -2
288
     1
 68
     0
279
    -2
289
     1
 69
     0
  0
VISUALSTYLE
  5
2F
102
{ACAD_REACTORS
330
29
102
}
330
29
100
AcDbVisualStyle
  2
2dWireframe
 70
     4
177
     3
291
     0
 70
    58
 90
        0
176
     1
 90
        2
176
     1
 90
        0
176
     1
 90
        0
176
     1
 40
0.6
176
     1
 40
30.0
176
     1
 62
     7
420
 16777215
176
     1
 90
        1
176
     1
 90
        4
176
     1
 62
     7
176
     1
 62
   257
176
     1
 90
        1
176
     1
 90
        1
176
     1
 40
1.0
176
     1
 90
        0
176
     1
 62
   257
176
     1
 40
1.0
176
     1
 90
        1
176
     1
 90
        6
176
     1
 90
        2
176
     1
 62
     7
176
     1
 90
        5
176
     1
 90
        0
176
     1
 90
        0
176
     1
290
     0
176
     1
 90
        1
176
     1
 40
0.0
176
     1
 90
        0
176
     1
290
     1
176
     1
290
     1
176
     1
290
     0
176
     1
290
     0
176
     1
290
     0
176
     1
290
     0
176
     1
290
     0
176
     1
290
     0
176
     1
290
     0
176
     1
 90
       50
176
     1
 40
0.0
176
     1
 40
1.0
176
     1
 90
        0
176
     1
 62
    18
420
        0
176
     1
 90
       50
176
     1
 90
        3
176
     1
 62
     5
420
      255
176
     1
290
     0
176
     1
 90
       50
176
     1
 90
       50
176
     1
 90
       50
176
     1
290
     0
176
     1
 90
       50
176
     1
 62
   256
176
     0
 40
1.0
176
     0
 90
        2
176
     1
  1
strokes_ogs.tif
176
     1
290
     0
176
     1
 40
1.0
176
     1
 40
1.0
176
     1
  0
VISUALSTYLE
  5
2E
102
{ACAD_REACTORS
330
29
102
}
330
29
100
AcDbVisualStyle
  2
Basic
 70
     7
177
     3
291
     1
 70
    58
 90
        1
176
     1
 90
        0
176
     1
 90
        1
176
     1
 90
        0
176
     1
 40
0.6
176
     1
 40
30.0
176
     1
 62
     7
420
 16777215
176
     1
 90
        0
176
     1
 90
        4
176
     1
 62
     7
176
     1
 62
   257
176
     1
 90
        1
176
     1
 90
        1
176
     1
 40
1.0
176
     1
 90
        8
176
     1
 62
     7
176
     1
 40
1.0
176
     1
 90
        1
176
     1
 90
        6
176
     1
 90
        2
176
     1
 62
     7
176
     1
 90
        5
176
     1
 90
        0
176
     1
 90
        0
176
     1
290
     0
176
     1
 90
        1
176
     1
 40
0.0
176
     1
 90
        0
176
     1
290
     0
176
     1
290
     1
176
     1
290
     1
176
     1
290
     0
176
     1
290
     0
176
     1
290
     0
176
     1
290
     0
176
     1
290
     0
176
     1
290
     0
176
     1
 90
       50
176
     1
 40
0.0
176
     1
 40
1.0
176
     1
 90
        0
176
     1
 62
    18
420
        0
176
     1
 90
       50
176
     1
 90
        3
176
     1
 62
     5
420
      255
176
     1
290
     0
176
     1
 90
       50
176
     1
 90
       50
176
     1
 90
       50
176
     1
290
     0
176
     1
 90
       50
176
     1
 62
   256
176
     0
 40
1.0
176
     0
 90
        2
176
     1
  1
strokes_ogs.tif
176
     1
290
     0
176
     1
 40
1.0
176
     1
 40
1.0
176
     1
  0
VISUALSTYLE
  5
35
102
{ACAD_REACTORS
330
29
102
}
330
29
100
AcDbVisualStyle
  2
Brighten
 70
    12
177
     3
291
     1
 70
    58
 90
        2
176
     1
 90
        2
176
     1
 90
        0
176
     1
 90
        0
176
     1
 40
0.6
176
     1
 40
30.0
176
     1
 62
     7
420
 16777215
176
     1
 90
        1
176
     1
 90
        4
176
     1
 62
     7
176
     1
 62
   257
176
     1
 90
        1
176
     1
 90
        1
176
     1
 40
1.0
176
     1
 90
        8
176
     1
 62
     7
176
     1
 40
1.0
176
     1
 90
        1
176
     1
 90
        6
176
     1
 90
        2
176
     1
 62
     7
176
     1
 90
        5
176
     1
 90
        0
176
     1
 90
        0
176
     1
290
     0
176
     1
 90
        1
176
     1
 40
50.0
176
     1
 90
        0
176
     1
290
     0
176
     1
290
     1
176
     1
290
     1
176
     1
290
     0
176
     1
290
     0
176
     1
290
     0
176
     1
290
     0
176
     1
290
     0
176
     1
290
     0
176
     1
 90
       50
176
     1
 40
0.0
176
     1
 40
1.0
176
     1
 90
        0
176
     1
 62
    18
420
        0
176
     1
 90
       50
176
     1
 90
        3
176
     1
 62
     5
420
      255
176
     1
290
     0
176
     1
 90
       50
176
     1
 90
       50
176
     1
 90
       50
176
     1
290
     0
176
     1
 90
       50
176
     1
 62
   256
176
     0
 40
1.0
176
     0
 90
        2
176
     1
  1
strokes_ogs.tif
176
     1
290
     0
176
     1
 40
1.0
176
     1
 40
1.0
176
     1
  0
VISUALSTYLE
  5
39
102
{ACAD_REACTORS
330
29
102
}
330
29
100
AcDbVisualStyle
  2
ColorChange
 70
    16
177
     3
291
     1
 70
    58
 90
        2
176
     1
 90
        2
176
     1
 90
        3
176
     1
 90
        0
176
     1
 40
0.6
176
     1
 40
30.0
176
     1
 62
     8
420
  8421504
176
     1
 90
        1
176
     1
 90
        4
176
     1
 62
     7
176
     1
 62
   257
176
     1
 90
        1
176
     1
 90
        1
176
     1
 40
1.0
176
     1
 90
        8
176
     1
 62
     8
420
  8421504
176
     1
 40
1.0
176
     1
 90
        1
176
     1
 90
        6
176
     1
 90
        2
176
     1
 62
     7
176
     1
 90
        5
176
     1
 90
        0
176
     1
 90
        0
176
     1
290
     0
176
     1
 90
        1
176
     1
 40
0.0
176
     1
 90
        0
176
     1
290
     0
176
     1
290
     1
176
     1
290
     1
176
     1
290
     0
176
     1
290
     0
176
     1
290
     0
176
     1
290
     0
176
     1
290
     0
176
     1
290
     0
176
     1
 90
       50
176
     1
 40
0.0
176
     1
 40
1.0
176
     1
 90
        0
176
     1
 62
    18
420
        0
176
     1
 90
       50
176
     1
 90
        3
176
     1
 62
     5
420
      255
176
     1
290
     0
176
     1
 90
       50
176
     1
 90
       50
176
     1
 90
       50
176
     1
290
     0
176
     1
 90
       50
176
     1
 62
   256
176
     0
 40
1.0
176
     0
 90
        2
176
     1
  1
strokes_ogs.tif
176
     1
290
     0
176
     1
 40
1.0
176
     1
 40
1.0
176
     1
  0
VISUALSTYLE
  5
32
102
{ACAD_REACTORS
330
29
102
}
330
29
100
AcDbVisualStyle
  2
Conceptual
 70
     9
177
     3
291
     0
 70
    58
 90
        3
176
     1
 90
        2
176
     1
 90
        0
176
     1
 90
        0
176
     1
 40
0.6
176
     1
 40
30.0
176
     1
 62
     7
420
 16777215
176
     1
 90
        2
176
     1
 90
        2
176
     1
 62
     7
176
     1
 62
   257
176
     1
 90
        1
176
     1
 90
        1
176
     1
 40
179.0
176
     1
 90
        8
176
     1
 62
     7
176
     1
 40
1.0
176
     1
 90
        1
176
     1
 90
        6
176
     1
 90
        2
176
     1
 62
     7
176
     1
 90
        3
176
     1
 90
        0
176
     1
 90
        0
176
     1
290
     0
176
     1
 90
        1
176
     1
 40
0.0
176
     1
 90
        0
176
     1
290
     0
176
     1
290
     1
176
     1
290
     1
176
     1
290
     0
176
     1
290
     0
176
     1
290
     0
176
     1
290
     0
176
     1
290
     0
176
     1
290
     0
176
     1
 90
       50
176
     1
 40
0.0
176
     1
 40
1.0
176
     1
 90
        0
176
     1
 62
    18
420
        0
176
     1
 90
       50
176
     1
 90
        3
176
     1
 62
     5
420
      255
176
     1
290
     0
176
     1
 90
       50
176
     1
 90
       50
176
     1
 90
       50
176
     1
290
     0
176
     1
 90
       50
176
     1
 62
   256
176
     0
 40
1.0
176
     0
 90
        2
176
     1
  1
strokes_ogs.tif
176
     1
290
     0
176
     1
 40
1.0
176
     1
 40
1.0
176
     1
  0
VISUALSTYLE
  5
34
102
{ACAD_REACTORS
330
29
102
}
330
29
100
AcDbVisualStyle
  2
Dim
 70
    11
177
     3
291
     1
 70
    58
 90
        2
176
     1
 90
        2
176
     1
 90
        0
176
     1
 90
        0
176
     1
 40
0.6
176
     1
 40
30.0
176
     1
 62
     7
420
 16777215
176
     1
 90
        1
176
     1
 90
        4
176
     1
 62
     7
176
     1
 62
   257
176
     1
 90
        1
176
     1
 90
        1
176
     1
 40
1.0
176
     1
 90
        8
176
     1
 62
     7
176
     1
 40
1.0
176
     1
 90
        1
176
     1
 90
        6
176
     1
 90
        2
176
     1
 62
     7
176
     1
 90
        5
176
     1
 90
        0
176
     1
 90
        0
176
     1
290
     0
176
     1
 90
        1
176
     1
 40
-50.0
176
     1
 90
        0
176
     1
290
     0
176
     1
290
     1
176
     1
290
     1
176
     1
290
     0
176
     1
290
     0
176
     1
290
     0
176
     1
290
     0
176
     1
290
     0
176
     1
290
     0
176
     1
 90
       50
176
     1
 40
0.0
176
     1
 40
1.0
176
     1
 90
        0
176
     1
 62
    18
420
        0
176
     1
 90
       50
176
     1
 90
        3
176
     1
 62
     5
420
      255
176
     1
290
     0
176
     1
 90
       50
176
     1
 90
       50
176
     1
 90
       50
176
     1
290
     0
176
     1
 90
       50
176
     1
 62
   256
176
     0
 40
1.0
176
     0
 90
        2
176
     1
  1
strokes_ogs.tif
176
     1
290
     0
176
     1
 40
1.0
176
     1
 40
1.0
176
     1
  0
VISUALSTYLE
  5
41
102
{ACAD_REACTORS
330
29
102
}
330
29
100
AcDbVisualStyle
  2
EdgeColorOff
 70
    22
177
     3
291
     1
 70
    58
 90
        2
176
     0
 90
        2
176
     0
 90
        0
176
     0
 90
        0
176
     0
 40
0.6
176
     0
 40
30.0
176
     0
 62
     7
420
 16777215
176
     0
 90
        1
176
     0
 90
        4
176
     0
 62
     7
176
     0
 62
   257
176
     0
 90
        1
176
     0
 90
        1
176
     0
 40
1.0
176
     0
 90
        8
176
     2
 62
     7
176
     0
 40
1.0
176
     0
 90
        1
176
     0
 90
        6
176
     0
 90
        2
176
     0
 62
     7
176
     0
 90
        5
176
     0
 90
        0
176
     0
 90
        0
176
     0
290
     0
176
     0
 90
        1
176
     0
 40
0.0
176
     0
 90
        0
176
     0
290
     0
176
     1
290
     1
176
     1
290
     1
176
     1
290
     0
176
     1
290
     0
176
     1
290
     0
176
     1
290
     0
176
     1
290
     0
176
     1
290
     0
176
     1
 90
       50
176
     0
 40
0.0
176
     0
 40
1.0
176
     0
 90
        0
176
     0
 62
    18
420
        0
176
     0
 90
       50
176
     0
 90
        3
176
     0
 62
     5
420
      255
176
     0
290
     0
176
     1
 90
       50
176
     0
 90
       50
176
     0
 90
       50
176
     0
290
     0
176
     1
 90
       50
176
     0
 62
   256
176
     0
 40
1.0
176
     0
 90
        2
176
     0
  1
strokes_ogs.tif
176
     0
290
     0
176
     1
 40
1.0
176
     0
 40
1.0
176
     0
  0
VISUALSTYLE
  5
38
102
{ACAD_REACTORS
330
29
102
}
330
29
100
AcDbVisualStyle
  2
Facepattern
 70
    15
177
     3
291
     1
 70
    58
 90
        2
176
     1
 90
        2
176
     1
 90
        0
176
     1
 90
        0
176
     1
 40
0.6
176
     1
 40
30.0
176
     1
 62
     7
420
 16777215
176
     1
 90
        1
176
     1
 90
        4
176
     1
 62
     7
176
     1
 62
   257
176
     1
 90
        1
176
     1
 90
        1
176
     1
 40
1.0
176
     1
 90
        8
176
     1
 62
     7
176
     1
 40
1.0
176
     1
 90
        1
176
     1
 90
        6
176
     1
 90
        2
176
     1
 62
     7
176
     1
 90
        5
176
     1
 90
        0
176
     1
 90
        0
176
     1
290
     0
176
     1
 90
        1
176
     1
 40
0.0
176
     1
 90
        0
176
     1
290
     0
176
     1
290
     1
176
     1
290
     1
176
     1
290
     0
176
     1
290
     0
176
     1
290
     0
176
     1
290
     0
176
     1
290
     0
176
     1
290
     0
176
     1
 90
       50
176
     1
 40
0.0
176
     1
 40
1.0
176
     1
 90
        0
176
     1
 62
    18
420
        0
176
     1
 90
       50
176
     1
 90
        3
176
     1
 62
     5
420
      255
176
     1
290
     0
176
     1
 90
       50
176
     1
 90
       50
176
     1
 90
       50
176
     1
290
     0
176
     1
 90
       50
176
     1
 62
   256
176
     0
 40
1.0
176
     0
 90
        2
176
     1
  1
strokes_ogs.tif
176
     1
290
     0
176
     1
 40
1.0
176
     1
 40
1.0
176
     1
  0
VISUALSTYLE
  5
2A
102
{ACAD_REACTORS
330
29
102
}
330
29
100
AcDbVisualStyle
  2
Flat
 70
     0
177
     3
291
     1
 70
    58
 90
        2
176
     1
 90
        1
176
     1
 90
        1
176
     1
 90
        2
176
     1
 40
0.6
176
     1
 40
30.0
176
     1
 62
     7
420
 16777215
176
     1
 90
        0
176
     1
 90
        0
176
     1
 62
     7
176
     1
 62
   257
176
     1
 90
        1
176
     1
 90
        1
176
     1
 40
1.0
176
     1
 90
        8
176
     1
 62
     7
176
     1
 40
1.0
176
     1
 90
        1
176
     1
 90
        6
176
     1
 90
        2
176
     1
 62
     7
176
     1
 90
        5
176
     1
 90
        0
176
     1
 90
        0
176
     1
290
     0
176
     1
 90
       13
176
     1
 40
0.0
176
     1
 90
        0
176
     1
290
     0
176
     1
290
     1
176
     1
290
     1
176
     1
290
     0
176
     1
290
     0
176
     1
290
     0
176
     1
290
     0
176
     1
290
     0
176
     1
290
     0
176
     1
 90
       50
176
     1
 40
0.0
176
     1
 40
1.0
176
     1
 90
        0
176
     1
 62
    18
420
        0
176
     1
 90
       50
176
     1
 90
        3
176
     1
 62
     5
420
      255
176
     1
290
     0
176
     1
 90
       50
176
     1
 90
       50
176
     1
 90
       50
176
     1
290
     0
176
     1
 90
       50
176
     1
 62
   256
176
     0
 40
1.0
176
     0
 90
        2
176
     1
  1
strokes_ogs.tif
176
     1
290
     0
176
     1
 40
1.0
176
     1
 40
1.0
176
     1
  0
VISUALSTYLE
  5
2B
102
{ACAD_REACTORS
330
29
102
}
330
29
100
AcDbVisualStyle
  2
FlatWithEdges
 70
     1
177
     3
291
     1
 70
    58
 90
        2
176
     1
 90
        1
176
     1
 90
        1
176
     1
 90
        2
176
     1
 40
0.6
176
     1
 40
30.0
176
     1
 62
     7
420
 16777215
176
     1
 90
        1
176
     1
 90
        0
176
     1
 62
     7
176
     1
 62
   257
176
     1
 90
        1
176
     1
 90
        1
176
     1
 40
1.0
176
     1
 90
        0
176
     1
 62
   257
176
     1
 40
1.0
176
     1
 90
        1
176
     1
 90
        6
176
     1
 90
        2
176
     1
 62
     7
176
     1
 90
        5
176
     1
 90
        0
176
     1
 90
        0
176
     1
290
     0
176
     1
 90
       13
176
     1
 40
0.0
176
     1
 90
        0
176
     1
290
     0
176
     1
290
     1
176
     1
290
     1
176
     1
290
     0
176
     1
290
     0
176
     1
290
     0
176
     1
290
     0
176
     1
290
     0
176
     1
290
     0
176
     1
 90
       50
176
     1
 40
0.0
176
     1
 40
1.0
176
     1
 90
        0
176
     1
 62
    18
420
        0
176
     1
 90
       50
176
     1
 90
        3
176
     1
 62
     5
420
      255
176
     1
290
     0
176
     1
 90
       50
176
     1
 90
       50
176
     1
 90
       50
176
     1
290
     0
176
     1
 90
       50
176
     1
 62
   256
176
     0
 40
1.0
176
     0
 90
        2
176
     1
  1
strokes_ogs.tif
176
     1
290
     0
176
     1
 40
1.0
176
     1
 40
1.0
176
     1
  0
VISUALSTYLE
  5
2C
102
{ACAD_REACTORS
330
29
102
}
330
29
100
AcDbVisualStyle
  2
Gouraud
 70
     2
177
     3
291
     1
 70
    58
 90
        2
176
     1
 90
        2
176
     1
 90
        1
176
     1
 90
        2
176
     1
 40
0.6
176
     1
 40
30.0
176
     1
 62
     7
420
 16777215
176
     1
 90
        0
176
     1
 90
        0
176
     1
 62
     7
176
     1
 62
   257
176
     1
 90
        1
176
     1
 90
        1
176
     1
 40
1.0
176
     1
 90
        0
176
     1
 62
     7
176
     1
 40
1.0
176
     1
 90
        1
176
     1
 90
        6
176
     1
 90
        2
176
     1
 62
     7
176
     1
 90
        5
176
     1
 90
        0
176
     1
 90
        0
176
     1
290
     0
176
     1
 90
       13
176
     1
 40
0.0
176
     1
 90
        0
176
     1
290
     0
176
     1
290
     1
176
     1
290
     1
176
     1
290
     0
176
     1
290
     0
176
     1
290
     0
176
     1
290
     0
176
     1
290
     0
176
     1
290
     0
176
     1
 90
       50
176
     1
 40
0.0
176
     1
 40
1.0
176
     1
 90
        0
176
     1
 62
    18
420
        0
176
     1
 90
       50
176
     1
 90
        3
176
     1
 62
     5
420
      255
176
     1
290
     0
176
     1
 90
       50
176
     1
 90
       50
176
     1
 90
       50
176
     1
290
     0
176
     1
 90
       50
176
     1
 62
   256
176
     0
 40
1.0
176
     0
 90
        2
176
     1
  1
strokes_ogs.tif
176
     1
290
     0
176
     1
 40
1.0
176
     1
 40
1.0
176
     1
  0
VISUALSTYLE
  5
2D
102
{ACAD_REACTORS
330
29
102
}
330
29
100
AcDbVisualStyle
  2
GouraudWithEdges
 70
     3
177
     3
291
     1
 70
    58
 90
        2
176
     1
 90
        2
176
     1
 90
        1
176
     1
 90
        2
176
     1
 40
0.6
176
     1
 40
30.0
176
     1
 62
     7
420
 16777215
176
     1
 90
        1
176
     1
 90
        0
176
     1
 62
     7
176
     1
 62
   257
176
     1
 90
        1
176
     1
 90
        1
176
     1
 40
1.0
176
     1
 90
        0
176
     1
 62
   257
176
     1
 40
1.0
176
     1
 90
        1
176
     1
 90
        6
176
     1
 90
        2
176
     1
 62
     7
176
     1
 90
        5
176
     1
 90
        0
176
     1
 90
        0
176
     1
290
     0
176
     1
 90
       13
176
     1
 40
0.0
176
     1
 90
        0
176
     1
290
     0
176
     1
290
     1
176
     1
290
     1
176
     1
290
     0
176
     1
290
     0
176
     1
290
     0
176
     1
290
     0
176
     1
290
     0
176
     1
290
     0
176
     1
 90
       50
176
     1
 40
0.0
176
     1
 40
1.0
176
     1
 90
        0
176
     1
 62
    18
420
        0
176
     1
 90
       50
176
     1
 90
        3
176
     1
 62
     5
420
      255
176
     1
290
     0
176
     1
 90
       50
176
     1
 90
       50
176
     1
 90
       50
176
     1
290
     0
176
     1
 90
       50
176
     1
 62
   256
176
     0
 40
1.0
176
     0
 90
        2
176
     1
  1
strokes_ogs.tif
176
     1
290
     0
176
     1
 40
1.0
176
     1
 40
1.0
176
     1
  0
VISUALSTYLE
  5
31
102
{ACAD_REACTORS
330
29
102
}
330
29
100
AcDbVisualStyle
  2
Hidden
 70
     6
177
     3
291
     0
 70
    58
 90
        1
176
     1
 90
        2
176
     1
 90
        2
176
     1
 90
        0
176
     1
 40
0.6
176
     1
 40
30.0
176
     1
 62
     7
420
 16777215
176
     1
 90
        2
176
     1
 90
        2
176
     1
 62
     7
176
     1
 62
   257
176
     1
 90
        2
176
     1
 90
        1
176
     1
 40
40.0
176
     1
 90
        0
176
     1
 62
   257
176
     1
 40
1.0
176
     1
 90
        1
176
     1
 90
        6
176
     1
 90
        2
176
     1
 62
     7
176
     1
 90
        3
176
     1
 90
        0
176
     1
 90
        0
176
     1
290
     0
176
     1
 90
        1
176
     1
 40
0.0
176
     1
 90
        0
176
     1
290
     0
176
     1
290
     1
176
     1
290
     1
176
     1
290
     0
176
     1
290
     0
176
     1
290
     0
176
     1
290
     0
176
     1
290
     0
176
     1
290
     0
176
     1
 90
       50
176
     1
 40
0.0
176
     1
 40
1.0
176
     1
 90
        0
176
     1
 62
    18
420
        0
176
     1
 90
       50
176
     1
 90
        3
176
     1
 62
     5
420
      255
176
     1
290
     0
176
     1
 90
       50
176
     1
 90
       50
176
     1
 90
       50
176
     1
290
     0
176
     1
 90
       50
176
     1
 62
   256
176
     0
 40
1.0
176
     0
 90
        2
176
     1
  1
strokes_ogs.tif
176
     1
290
     0
176
     1
 40
1.0
176
     1
 40
1.0
176
     1
  0
VISUALSTYLE
  5
3F
102
{ACAD_REACTORS
330
29
102
}
330
29
100
AcDbVisualStyle
  2
JitterOff
 70
    20
177
     3
291
     1
 70
    58
 90
        2
176
     0
 90
        2
176
     0
 90
        0
176
     0
 90
        0
176
     0
 40
0.6
176
     0
 40
30.0
176
     0
 62
     7
420
 16777215
176
     0
 90
        1
176
     0
 90
        4
176
     0
 62
     7
176
     0
 62
   257
176
     0
 90
        1
176
     0
 90
        1
176
     0
 40
1.0
176
     0
 90
       10
176
     2
 62
     7
176
     0
 40
1.0
176
     0
 90
        1
176
     0
 90
        6
176
     0
 90
        2
176
     0
 62
     7
176
     0
 90
        5
176
     0
 90
        0
176
     0
 90
        0
176
     0
290
     0
176
     0
 90
        1
176
     0
 40
0.0
176
     0
 90
        0
176
     0
290
     0
176
     1
290
     1
176
     1
290
     1
176
     1
290
     0
176
     1
290
     0
176
     1
290
     0
176
     1
290
     0
176
     1
290
     0
176
     1
290
     0
176
     1
 90
       50
176
     0
 40
0.0
176
     0
 40
1.0
176
     0
 90
        0
176
     0
 62
    18
420
        0
176
     0
 90
       50
176
     0
 90
        3
176
     0
 62
     5
420
      255
176
     0
290
     0
176
     1
 90
       50
176
     0
 90
       50
176
     0
 90
       50
176
     0
290
     0
176
     1
 90
       50
176
     0
 62
   256
176
     0
 40
1.0
176
     0
 90
        2
176
     0
  1
strokes_ogs.tif
176
     0
290
     0
176
     1
 40
1.0
176
     0
 40
1.0
176
     0
  0
VISUALSTYLE
  5
37
102
{ACAD_REACTORS
330
29
102
}
330
29
100
AcDbVisualStyle
  2
Linepattern
 70
    14
177
     3
291
     1
 70
    58
 90
        2
176
     1
 90
        2
176
     1
 90
        0
176
     1
 90
        0
176
     1
 40
0.6
176
     1
 40
30.0
176
     1
 62
     7
420
 16777215
176
     1
 90
        1
176
     1
 90
        4
176
     1
 62
     7
176
     1
 62
   257
176
     1
 90
        7
176
     1
 90
        7
176
     1
 40
1.0
176
     1
 90
        8
176
     1
 62
     7
176
     1
 40
1.0
176
     1
 90
        1
176
     1
 90
        6
176
     1
 90
        2
176
     1
 62
     7
176
     1
 90
        5
176
     1
 90
        0
176
     1
 90
        0
176
     1
290
     0
176
     1
 90
        1
176
     1
 40
0.0
176
     1
 90
        0
176
     1
290
     0
176
     1
290
     1
176
     1
290
     1
176
     1
290
     0
176
     1
290
     0
176
     1
290
     0
176
     1
290
     0
176
     1
290
     0
176
     1
290
     0
176
     1
 90
       50
176
     1
 40
0.0
176
     1
 40
1.0
176
     1
 90
        0
176
     1
 62
    18
420
        0
176
     1
 90
       50
176
     1
 90
        3
176
     1
 62
     5
420
      255
176
     1
290
     0
176
     1
 90
       50
176
     1
 90
       50
176
     1
 90
       50
176
     1
290
     0
176
     1
 90
       50
176
     1
 62
   256
176
     0
 40
1.0
176
     0
 90
        2
176
     1
  1
strokes_ogs.tif
176
     1
290
     0
176
     1
 40
1.0
176
     1
 40
1.0
176
     1
  0
VISUALSTYLE
  5
40
102
{ACAD_REACTORS
330
29
102
}
330
29
100
AcDbVisualStyle
  2
OverhangOff
 70
    21
177
     3
291
     1
 70
    58
 90
        2
176
     0
 90
        2
176
     0
 90
        0
176
     0
 90
        0
176
     0
 40
0.6
176
     0
 40
30.0
176
     0
 62
     7
420
 16777215
176
     0
 90
        1
176
     0
 90
        4
176
     0
 62
     7
176
     0
 62
   257
176
     0
 90
        1
176
     0
 90
        1
176
     0
 40
1.0
176
     0
 90
        9
176
     2
 62
     7
176
     0
 40
1.0
176
     0
 90
        1
176
     0
 90
        6
176
     0
 90
        2
176
     0
 62
     7
176
     0
 90
        5
176
     0
 90
        0
176
     0
 90
        0
176
     0
290
     0
176
     0
 90
        1
176
     0
 40
0.0
176
     0
 90
        0
176
     0
290
     0
176
     1
290
     1
176
     1
290
     1
176
     1
290
     0
176
     1
290
     0
176
     1
290
     0
176
     1
290
     0
176
     1
290
     0
176
     1
290
     0
176
     1
 90
       50
176
     0
 40
0.0
176
     0
 40
1.0
176
     0
 90
        0
176
     0
 62
    18
420
        0
176
     0
 90
       50
176
     0
 90
        3
176
     0
 62
     5
420
      255
176
     0
290
     0
176
     1
 90
       50
176
     0
 90
       50
176
     0
 90
       50
176
     0
290
     0
176
     1
 90
       50
176
     0
 62
   256
176
     0
 40
1.0
176
     0
 90
        2
176
     0
  1
strokes_ogs.tif
176
     0
290
     0
176
     1
 40
1.0
176
     0
 40
1.0
176
     0
  0
VISUALSTYLE
  5
33
102
{ACAD_REACTORS
330
29
102
}
330
29
100
AcDbVisualStyle
  2
Realistic
 70
     8
177
     3
291
     0
 70
    58
 90
        2
176
     1
 90
        3
176
     1
 90
        0
176
     1
 90
        2
176
     1
 40
0.6
176
     1
 40
30.0
176
     1
 62
     7
420
 16777215
176
     1
 90
        0
176
     1
 90
        0
176
     1
 62
     7
176
     1
 62
   257
176
     1
 90
        1
176
     1
 90
        1
176
     1
 40
1.0
176
     1
 90
        8
176
     1
 62
   257
176
     1
 40
1.0
176
     1
 90
        1
176
     1
 90
        6
176
     1
 90
        2
176
     1
 62
     7
176
     1
 90
        3
176
     1
 90
        0
176
     1
 90
        0
176
     1
290
     0
176
     1
 90
       13
176
     1
 40
0.0
176
     1
 90
        0
176
     1
290
     0
176
     1
290
     1
176
     1
290
     1
176
     1
290
     0
176
     1
290
     0
176
     1
290
     0
176
     1
290
     0
176
     1
290
     0
176
     1
290
     0
176
     1
 90
       50
176
     1
 40
0.0
176
     1
 40
1.0
176
     1
 90
        0
176
     1
 62
    18
420
        0
176
     1
 90
       50
176
     1
 90
        3
176
     1
 62
     5
420
      255
176
     1
290
     0
176
     1
 90
       50
176
     1
 90
       50
176
     1
 90
       50
176
     1
290
     0
176
     1
 90
       50
176
     1
 62
   256
176
     0
 40
1.0
176
     0
 90
        2
176
     1
  1
strokes_ogs.tif
176
     1
290
     0
176
     1
 40
1.0
176
     1
 40
1.0
176
     1
  0
VISUALSTYLE
  5
3E
102
{ACAD_REACTORS
330
29
102
}
330
29
100
AcDbVisualStyle
  2
Shaded
 70
    27
177
     3
291
     0
 70
    58
 90
        2
176
     1
 90
        2
176
     1
 90
        1
176
     1
 90
        2
176
     1
 40
0.6
176
     1
 40
30.0
176
     1
 62
     7
420
 16777215
176
     1
 90
        0
176
     1
 90
        4
176
     1
 62
     7
176
     1
 62
   257
176
     1
 90
        1
176
     1
 90
        1
176
     1
 40
1.0
176
     1
 90
        8
176
     1
 62
   257
176
     1
 40
1.0
176
     1
 90
        1
176
     1
 90
        6
176
     1
 90
        2
176
     1
 62
     8
420
  7895160
176
     1
 90
        3
176
     1
 90
        0
176
     1
 90
        0
176
     1
290
     0
176
     1
 90
        5
176
     1
 40
0.0
176
     1
 90
        0
176
     1
290
     0
176
     1
290
     1
176
     1
290
     1
176
     1
290
     0
176
     1
290
     0
176
     1
290
     0
176
     1
290
     0
176
     1
290
     0
176
     1
290
     0
176
     1
 90
       50
176
     1
 40
0.0
176
     1
 40
1.0
176
     1
 90
        0
176
     1
 62
    18
420
        0
176
     1
 90
       50
176
     1
 90
        3
176
     1
 62
     5
420
      255
176
     1
290
     0
176
     1
 90
       50
176
     1
 90
       50
176
     1
 90
       50
176
     1
290
     0
176
     1
 90
       50
176
     1
 62
   256
176
     0
 40
1.0
176
     0
 90
        2
176
     1
  1
strokes_ogs.tif
176
     1
290
     0
176
     1
 40
1.0
176
     1
 40
1.0
176
     1
  0
VISUALSTYLE
  5
3D
102
{ACAD_REACTORS
330
29
102
}
330
29
100
AcDbVisualStyle
  2
Shaded with edges
 70
    26
177
     3
291
     0
 70
    58
 90
        2
176
     1
 90
        2
176
     1
 90
        1
176
     1
 90
        2
176
     1
 40
0.6
176
     1
 40
30.0
176
     1
 62
     7
420
 16777215
176
     1
 90
        1
176
     1
 90
        2
176
     1
 62
     7
176
     1
 62
   257
176
     1
 90
        2
176
     1
 90
        1
176
     1
 40
1.0
176
     1
 90
        8
176
     1
 62
   257
176
     1
 40
1.0
176
     1
 90
        1
176
     1
 90
        6
176
     1
 90
        2
176
     1
 62
     7
176
     1
 90
        3
176
     1
 90
        0
176
     1
 90
        0
176
     1
290
     0
176
     1
 90
        5
176
     1
 40
0.0
176
     1
 90
        0
176
     1
290
     0
176
     1
290
     1
176
     1
290
     1
176
     1
290
     0
176
     1
290
     0
176
     1
290
     0
176
     1
290
     0
176
     1
290
     0
176
     1
290
     0
176
     1
 90
       50
176
     1
 40
0.0
176
     1
 40
1.0
176
     1
 90
        0
176
     1
 62
    18
420
        0
176
     1
 90
       50
176
     1
 90
        3
176
     1
 62
     5
420
      255
176
     1
290
     0
176
     1
 90
       50
176
     1
 90
       50
176
     1
 90
       50
176
     1
290
     0
176
     1
 90
       50
176
     1
 62
   256
176
     0
 40
1.0
176
     0
 90
        2
176
     1
  1
strokes_ogs.tif
176
     1
290
     0
176
     1
 40
1.0
176
     1
 40
1.0
176
     1
  0
VISUALSTYLE
  5
3A
102
{ACAD_REACTORS
330
29
102
}
330
29
100
AcDbVisualStyle
  2
Shades of Gray
 70
    23
177
     3
291
     0
 70
    58
 90
        2
176
     1
 90
        2
176
     1
 90
        3
176
     1
 90
        0
176
     1
 40
0.6
176
     1
 40
30.0
176
     1
 62
     7
420
 16777215
176
     1
 90
        2
176
     1
 90
        2
176
     1
 62
     7
176
     1
 62
     7
176
     1
 90
        1
176
     1
 90
        1
176
     1
 40
40.0
176
     1
 90
        8
176
     1
 62
     7
176
     1
 40
1.0
176
     1
 90
        1
176
     1
 90
        6
176
     1
 90
        2
176
     1
 62
     7
176
     1
 90
        3
176
     1
 90
        0
176
     1
 90
        0
176
     1
290
     0
176
     1
 90
        1
176
     1
 40
0.0
176
     1
 90
        0
176
     1
290
     0
176
     1
290
     1
176
     1
290
     1
176
     1
290
     0
176
     1
290
     0
176
     1
290
     0
176
     1
290
     0
176
     1
290
     0
176
     1
290
     0
176
     1
 90
       50
176
     1
 40
0.0
176
     1
 40
1.0
176
     1
 90
        0
176
     1
 62
    18
420
        0
176
     1
 90
       50
176
     1
 90
        3
176
     1
 62
     5
420
      255
176
     1
290
     0
176
     1
 90
       50
176
     1
 90
       50
176
     1
 90
       50
176
     1
290
     0
176
     1
 90
       50
176
     1
 62
   256
176
     0
 40
1.0
176
     0
 90
        2
176
     1
  1
strokes_ogs.tif
176
     1
290
     0
176
     1
 40
1.0
176
     1
 40
1.0
176
     1
  0
VISUALSTYLE
  5
3B
102
{ACAD_REACTORS
330
29
102
}
330
29
100
AcDbVisualStyle
  2
Sketchy
 70
    24
177
     3
291
     0
 70
    58
 90
        1
176
     1
 90
        2
176
     1
 90
        2
176
     1
 90
        0
176
     1
 40
0.6
176
     1
 40
30.0
176
     1
 62
     7
420
 16777215
176
     1
 90
        2
176
     1
 90
        2
176
     1
 62
     7
176
     1
 62
     7
176
     1
 90
        1
176
     1
 90
        1
176
     1
 40
40.0
176
     1
 90
       11
176
     1
 62
     7
176
     1
 40
1.0
176
     1
 90
        1
176
     1
 90
        6
176
     1
 90
        2
176
     1
 62
     7
176
     1
 90
        6
176
     1
 90
        0
176
     1
 90
        0
176
     1
290
     0
176
     1
 90
        1
176
     1
 40
0.0
176
     1
 90
        0
176
     1
290
     0
176
     1
290
     1
176
     1
290
     1
176
     1
290
     0
176
     1
290
     0
176
     1
290
     0
176
     1
290
     0
176
     1
290
     0
176
     1
290
     0
176
     1
 90
       50
176
     1
 40
0.0
176
     1
 40
1.0
176
     1
 90
        0
176
     1
 62
    18
420
        0
176
     1
 90
       50
176
     1
 90
        3
176
     1
 62
     5
420
      255
176
     1
290
     0
176
     1
 90
       50
176
     1
 90
       50
176
     1
 90
       50
176
     1
290
     0
176
     1
 90
       50
176
     1
 62
   256
176
     0
 40
1.0
176
     0
 90
        2
176
     1
  1
strokes_ogs.tif
176
     1
290
     0
176
     1
 40
1.0
176
     1
 40
1.0
176
     1
  0
VISUALSTYLE
  5
36
102
{ACAD_REACTORS
330
29
102
}
330
29
100
AcDbVisualStyle
  2
Thicken
 70
    13
177
     3
291
     1
 70
    58
 90
        2
176
     1
 90
        2
176
     1
 90
        0
176
     1
 90
        0
176
     1
 40
0.6
176
     1
 40
30.0
176
     1
 62
     7
420
 16777215
176
     1
 90
        1
176
     1
 90
        4
176
     1
 62
     7
176
     1
 62
   257
176
     1
 90
        1
176
     1
 90
        1
176
     1
 40
1.0
176
     1
 90
       12
176
     1
 62
     7
176
     1
 40
1.0
176
     1
 90
        1
176
     1
 90
        6
176
     1
 90
        2
176
     1
 62
     7
176
     1
 90
        5
176
     1
 90
        0
176
     1
 90
        0
176
     1
290
     0
176
     1
 90
        1
176
     1
 40
0.0
176
     1
 90
        0
176
     1
290
     0
176
     1
290
     1
176
     1
290
     1
176
     1
290
     0
176
     1
290
     0
176
     1
290
     0
176
     1
290
     0
176
     1
290
     0
176
     1
290
     0
176
     1
 90
       50
176
     1
 40
0.0
176
     1
 40
1.0
176
     1
 90
        0
176
     1
 62
    18
420
        0
176
     1
 90
       50
176
     1
 90
        3
176
     1
 62
     5
420
      255
176
     1
290
     0
176
     1
 90
       50
176
     1
 90
       50
176
     1
 90
       50
176
     1
290
     0
176
     1
 90
       50
176
     1
 62
   256
176
     0
 40
1.0
176
     0
 90
        2
176
     1
  1
strokes_ogs.tif
176
     1
290
     0
176
     1
 40
1.0
176
     1
 40
1.0
176
     1
  0
VISUALSTYLE
  5
30
102
{ACAD_REACTORS
330
29
102
}
330
29
100
AcDbVisualStyle
  2
Wireframe
 70
     5
177
     3
291
     0
 70
    58
 90
        0
176
     1
 90
        2
176
     1
 90
        0
176
     1
 90
        0
176
     1
 40
0.6
176
     1
 40
30.0
176
     1
 62
     7
420
 16777215
176
     1
 90
        1
176
     1
 90
        4
176
     1
 62
     7
176
     1
 62
   257
176
     1
 90
        1
176
     1
 90
        1
176
     1
 40
1.0
176
     1
 90
        0
176
     1
 62
   257
176
     1
 40
1.0
176
     1
 90
        1
176
     1
 90
        6
176
     1
 90
        2
176
     1
 62
     7
176
     1
 90
        3
176
     1
 90
        0
176
     1
 90
        0
176
     1
290
     0
176
     1
 90
        1
176
     1
 40
0.0
176
     1
 90
        0
176
     1
290
     0
176
     1
290
     1
176
     1
290
     1
176
     1
290
     0
176
     1
290
     0
176
     1
290
     0
176
     1
290
     0
176
     1
290
     0
176
     1
290
     0
176
     1
 90
       50
176
     1
 40
0.0
176
     1
 40
1.0
176
     1
 90
        0
176
     1
 62
    18
420
        0
176
     1
 90
       50
176
     1
 90
        3
176
     1
 62
     5
420
      255
176
     1
290
     0
176
     1
 90
       50
176
     1
 90
       50
176
     1
 90
       50
176
     1
290
     0
176
     1
 90
       50
176
     1
 62
   256
176
     0
 40
1.0
176
     0
 90
        2
176
     1
  1
strokes_ogs.tif
176
     1
290
     0
176
     1
 40
1.0
176
     1
 40
1.0
176
     1
  0
VISUALSTYLE
  5
3C
102
{ACAD_REACTORS
330
29
102
}
330
29
100
AcDbVisualStyle
  2
X-Ray
 70
    25
177
     3
291
     0
 70
    58
 90
        2
176
     1
 90
        2
176
     1
 90
        1
176
     1
 90
        1
176
     1
 40
0.5
176
     1
 40
30.0
176
     1
 62
     7
420
 16777215
176
     1
 90
        1
176
     1
 90
        0
176
     1
 62
     7
176
     1
 62
   257
176
     1
 90
        1
176
     1
 90
        1
176
     1
 40
1.0
176
     1
 90
        8
176
     1
 62
     7
176
     1
 40
1.0
176
     1
 90
        1
176
     1
 90
        6
176
     1
 90
        2
176
     1
 62
     7
176
     1
 90
        3
176
     1
 90
        0
176
     1
 90
        0
176
     1
290
     0
176
     1
 90
       13
176
     1
 40
0.0
176
     1
 90
        0
176
     1
290
     0
176
     1
290
     1
176
     1
290
     1
176
     1
290
     0
176
     1
290
     0
176
     1
290
     0
176
     1
290
     0
176
     1
290
     0
176
     1
290
     0
176
     1
 90
       50
176
     1
 40
0.0
176
     1
 40
1.0
176
     1
 90
        0
176
     1
 62
    18
420
        0
176
     1
 90
       50
176
     1
 90
        3
176
     1
 62
     5
420
      255
176
     1
290
     0
176
     1
 90
       50
176
     1
 90
       50
176
     1
 90
       50
176
     1
290
     0
176
     1
 90
       50
176
     1
 62
   256
176
     0
 40
1.0
176
     0
 90
        2
176
     1
  1
strokes_ogs.tif
176
     1
290
     0
176
     1
 40
1.0
176
     1
 40
1.0
176
     1
  0
DICTIONARYVAR
  5
1141
102
{ACAD_REACTORS
330
113B
102
}
330
113B
100
DictionaryVariables
280
     0
  1
1:1
  0
DICTIONARYVAR
  5
113D
102
{ACAD_REACTORS
330
113B
102
}
330
113B
100
DictionaryVariables
280
     0
  1
STANDARD
  0
DICTIONARYVAR
  5
113C
102
{ACAD_REACTORS
330
113B
102
}
330
113B
100
DictionaryVariables
280
     0
  1
STANDARD
  0
DICTIONARYVAR
  5
113E
102
{ACAD_REACTORS
330
113B
102
}
330
113B
100
DictionaryVariables
280
     0
  1
Imperial24
  0
DICTIONARYVAR
  5
113F
102
{ACAD_REACTORS
330
113B
102
}
330
113B
100
DictionaryVariables
280
     0
  1
Imperial24
  0
DICTIONARYVAR
  5
1143
102
{ACAD_REACTORS
330
113B
102
}
330
113B
100
DictionaryVariables
280
     0
  1
1
  0
DICTIONARYVAR
  5
1144
102
{ACAD_REACTORS
330
113B
102
}
330
113B
100
DictionaryVariables
280
     0
  1
15
  0
DICTIONARYVAR
  5
1142
102
{ACAD_REACTORS
330
113B
102
}
330
113B
100
DictionaryVariables
280
     0
  1
0
  0
DICTIONARYVAR
  5
1140
102
{ACAD_REACTORS
330
113B
102
}
330
113B
100
DictionaryVariables
280
     0
  1
0
  0
DICTIONARY
  5
1A
330
19
100
AcDbDictionary
280
     1
281
     1
  3
BUMPTILE
360
1C
  3
DIFFUSETILE
360
1B
  3
OPACITYTILE
360
1F
  3
REFLECTIONTILE
360
1E
  3
REFRACTIONTILE
360
20
  3
SPECULARTILE
360
1D
  0
DICTIONARY
  5
12
330
11
100
AcDbDictionary
280
     1
281
     1
  3
BUMPTILE
360
14
  3
DIFFUSETILE
360
13
  3
OPACITYTILE
360
17
  3
REFLECTIONTILE
360
16
  3
REFRACTIONTILE
360
18
  3
SPECULARTILE
360
15
  0
DICTIONARY
  5
22
330
21
100
AcDbDictionary
280
     1
281
     1
  3
BUMPTILE
360
24
  3
DIFFUSETILE
360
23
  3
OPACITYTILE
360
27
  3
REFLECTIONTILE
360
26
  3
REFRACTIONTILE
360
28
  3
SPECULARTILE
360
25
  0
DICTIONARY
  5
1150
330
64
100
AcDbDictionary
280
     1
281
     1
  3
ACAD_ROUNDTRIP_2008_TABLESTYLE_CELLSTYLEMAP
360
1151
  0
XRECORD
  5
1C
102
{ACAD_REACTORS
330
1A
102
}
330
1A
100
AcDbXrecord
280
     1
270
     1
271
     1
  0
XRECORD
  5
1B
102
{ACAD_REACTORS
330
1A
102
}
330
1A
100
AcDbXrecord
280
     1
270
     1
271
     1
  0
XRECORD
  5
1F
102
{ACAD_REACTORS
330
1A
102
}
330
1A
100
AcDbXrecord
280
     1
270
     1
271
     1
  0
XRECORD
  5
1E
102
{ACAD_REACTORS
330
1A
102
}
330
1A
100
AcDbXrecord
280
     1
270
     1
271
     1
  0
XRECORD
  5
20
102
{ACAD_REACTORS
330
1A
102
}
330
1A
100
AcDbXrecord
280
     1
270
     1
271
     1
  0
XRECORD
  5
1D
102
{ACAD_REACTORS
330
1A
102
}
330
1A
100
AcDbXrecord
280
     1
270
     1
271
     1
  0
XRECORD
  5
14
102
{ACAD_REACTORS
330
12
102
}
330
12
100
AcDbXrecord
280
     1
270
     1
271
     1
  0
XRECORD
  5
13
102
{ACAD_REACTORS
330
12
102
}
330
12
100
AcDbXrecord
280
     1
270
     1
271
     1
  0
XRECORD
  5
17
102
{ACAD_REACTORS
330
12
102
}
330
12
100
AcDbXrecord
280
     1
270
     1
271
     1
  0
XRECORD
  5
16
102
{ACAD_REACTORS
330
12
102
}
330
12
100
AcDbXrecord
280
     1
270
     1
271
     1
  0
XRECORD
  5
18
102
{ACAD_REACTORS
330
12
102
}
330
12
100
AcDbXrecord
280
     1
270
     1
271
     1
  0
XRECORD
  5
15
102
{ACAD_REACTORS
330
12
102
}
330
12
100
AcDbXrecord
280
     1
270
     1
271
     1
  0
XRECORD
  5
24
102
{ACAD_REACTORS
330
22
102
}
330
22
100
AcDbXrecord
280
     1
270
     1
271
     1
  0
XRECORD
  5
23
102
{ACAD_REACTORS
330
22
102
}
330
22
100
AcDbXrecord
280
     1
270
     1
271
     1
  0
XRECORD
  5
27
102
{ACAD_REACTORS
330
22
102
}
330
22
100
AcDbXrecord
280
     1
270
     1
271
     1
  0
XRECORD
  5
26
102
{ACAD_REACTORS
330
22
102
}
330
22
100
AcDbXrecord
280
     1
270
     1
271
     1
  0
XRECORD
  5
28
102
{ACAD_REACTORS
330
22
102
}
330
22
100
AcDbXrecord
280
     1
270
     1
271
     1
  0
XRECORD
  5
25
102
{ACAD_REACTORS
330
22
102
}
330
22
100
AcDbXrecord
280
     1
270
     1
271
     1
  0
CELLSTYLEMAP
  5
1151
102
{ACAD_REACTORS
330
1150
102
}
330
1150
100
AcDbCellStyleMap
 90
        3
300
CELLSTYLE
  1
TABLEFORMAT_BEGIN
 90
        5
170
     1
 91
        0
 92
    32768
 62
   257
 93
        1
300
CONTENTFORMAT
  1
CONTENTFORMAT_BEGIN
 90
        0
 91
        0
 92
      512
 93
        0
300

 40
0.0
140
1.0
 94
        5
 62
     0
340
55
144
0.25
309
CONTENTFORMAT_END
171
     0
 94
        0
309
TABLEFORMAT_END
  1
CELLSTYLE_BEGIN
 90
        1
 91
        1
300
_TITLE
309
CELLSTYLE_END
300
CELLSTYLE
  1
TABLEFORMAT_BEGIN
 90
        5
170
     1
 91
        0
 92
        0
 62
   257
 93
        1
300
CONTENTFORMAT
  1
CONTENTFORMAT_BEGIN
 90
        0
 91
        0
 92
      512
 93
        0
300

 40
0.0
140
1.0
 94
        5
 62
     0
340
55
144
0.18
309
CONTENTFORMAT_END
171
     0
 94
        0
309
TABLEFORMAT_END
  1
CELLSTYLE_BEGIN
 90
        2
 91
        1
300
_HEADER
309
CELLSTYLE_END
300
CELLSTYLE
  1
TABLEFORMAT_BEGIN
 90
        5
170
     1
 91
        0
 92
        0
 62
   257
 93
        1
300
CONTENTFORMAT
  1
CONTENTFORMAT_BEGIN
 90
        0
 91
        0
 92
      512
 93
        0
300

 40
0.0
140
1.0
 94
        2
 62
     0
340
55
144
0.18
309
CONTENTFORMAT_END
171
     0
 94
        0
309
TABLEFORMAT_END
  1
CELLSTYLE_BEGIN
 90
        3
 91
        2
300
_DATA
309
CELLSTYLE_END
  0
ENDSEC
  0
SECTION
  2
ACDSDATA
 70
     2
 71
     8
  0
ACDSSCHEMA
 90
        0
  1
AcDb_Thumbnail_Schema
  2
AcDbDs::ID
280
    10
 91
        8
  2
Thumbnail_Data
280
    15
 91
        0
101
ACDSRECORD
 95
        0
 90
        1
  2
AcDbDs::TreatedAsObjectData
280
     1
291
     1
101
ACDSRECORD
 95
        0
 90
        2
  2
AcDbDs::Legacy
280
     1
291
     1
101
ACDSRECORD
  1
AcDbDs::ID
 90
        3
  2
AcDs:Indexable
280
     1
291
     1
101
ACDSRECORD
  1
AcDbDs::ID
 90
        4
  2
AcDbDs::HandleAttribute
280
     7
282
     1
  0
ACDSSCHEMA
 90
        1
  1
AcDbDs::TreatedAsObjectDataSchema
  2
AcDbDs::TreatedAsObjectData
280
     1
 91
        0
  0
ACDSSCHEMA
 90
        2
  1
AcDbDs::LegacySchema
  2
AcDbDs::Legacy
280
     1
 91
        0
  0
ACDSSCHEMA
 90
        3
  1
AcDbDs::IndexedPropertySchema
  2
AcDs:Indexable
280
     1
 91
        0
  0
ACDSSCHEMA
 90
        4
  1
AcDbDs::HandleAttributeSchema
  2
AcDbDs::HandleAttribute
280
     7
 91
        1
284
     1
  0
ACDSRECORD
 90
        0
  2
AcDbDs::ID
280
    10
320
72
  2
Thumbnail_Data
280
    15
 94
     1858
310
89504E470D0A1A0A0000000D49484452000000A9000001000803000000FF6FA68F00000300504C5445212830FFFFFF2128300000000000000000000000000000000000000000000000000000330000660000990000CC0000FF0033000033330033660033990033CC0033FF0066000066330066660066990066CC0066FF0099
310
000099330099660099990099CC0099FF00CC0000CC3300CC6600CC9900CCCC00CCFF00FF0000FF3300FF6600FF9900FFCC00FFFF3300003300333300663300993300CC3300FF3333003333333333663333993333CC3333FF3366003366333366663366993366CC3366FF3399003399333399663399993399CC3399FF33CC00
310
33CC3333CC6633CC9933CCCC33CCFF33FF0033FF3333FF6633FF9933FFCC33FFFF6600006600336600666600996600CC6600FF6633006633336633666633996633CC6633FF6666006666336666666666996666CC6666FF6699006699336699666699996699CC6699FF66CC0066CC3366CC6666CC9966CCCC66CCFF66FF0066
310
FF3366FF6666FF9966FFCC66FFFF9900009900339900669900999900CC9900FF9933009933339933669933999933CC9933FF9966009966339966669966999966CC9966FF9999009999339999669999999999CC9999FF99CC0099CC3399CC6699CC9999CCCC99CCFF99FF0099FF3399FF6699FF9999FFCC99FFFFCC0000CC00
310
33CC0066CC0099CC00CCCC00FFCC3300CC3333CC3366CC3399CC33CCCC33FFCC6600CC6633CC6666CC6699CC66CCCC66FFCC9900CC9933CC9966CC9999CC99CCCC99FFCCCC00CCCC33CCCC66CCCC99CCCCCCCCCCFFCCFF00CCFF33CCFF66CCFF99CCFFCCCCFFFFFF0000FF0033FF0066FF0099FF00CCFF00FFFF3300FF3333
310
FF3366FF3399FF33CCFF33FFFF6600FF6633FF6666FF6699FF66CCFF66FFFF9900FF9933FF9966FF9999FF99CCFF99FFFFCC00FFCC33FFCC66FFCC99FFCCCCFFCCFFFFFF00FFFF33FFFF66FFFF99FFFFCCFFFFFF0000000D0D0D1A1A1A2828283535354343435050505D5D5D6B6B6B787878868686939393A1A1A1AEAEAEBB
310
BBBBC9C9C9D6D6D6E4E4E4F1F1F1FFFFFF0000000000000000000000000000000000000000000000000000000000002E4550F10000035A4944415478DAED9BDB6EE3300C44F5FFFF3BEFC502DBD68E258A9448DB28CE790A8A209850BC8C58A735000000000000000000000000000000000000000000000000000000000000
310
000000000037FAC7EB057E8BD44BB55F9568A2FD31A55EED6F54EA79D34B62FA3EA5FD6A59525A5377E76AD15A427C7C5A7AE03BD5A28B1CAF529D3F4DC559F9F3271D5E4DB44BBDBC516E40874A757E79D6EEEAB1CACBCC604C8FEF77F558E5689CD7B5C6DACBBB6EE7B45D957E49D87AA52D10C1E5B9A55AA587ACD49ED2
310
4ECFC8547AAA96B5931DF78C5CFBB15C2D2A89E94AB5C8ECBA91F9B0A8741641CB0B1CC49B679DA2D43AA29117E88E24F3AC134ACA0E45C8F6C7BA5B764C97DA54F2387559BA345D45C56FDAFE85AFB3E9FA47A1881B38CBDA64B87EB5B56A712644A2EB0F0547565ACBE1FA3327BF95953D2FF0D133669B959CE21F27D3EF
310
0092613FAA5DBF2B99C65E60BB0FEFD8FE58FBDC36DC290D35E4FB1E509A77B26A8EFB56AEEDDF54AA1BAF526D2775ED9B4EC6056538926C2F70BD2B2AD9F64FDD946FD9DF9F0F994AEDB30E2CFB155F0A8694DA975DFF95651641A5C6B4B27D2A354F739CF30DBB295FA5AF7C9D3DDBEF73FDBB11CCB0FDBE4A5F5CF657DB
310
FED5658EC7F6DFA5F4D965FFDE82ECCE657FAC7E1E5EF60FEBC7D381FEDAB2BF5869E284ADF5D279CBFEBA15FA6EB528E4D4E695B35E2DE1657F20A6FF3F58E699CDB2F2D4CB5A68D9EFCE53572B892DFB5BC9B25FD63B5DCBFE76D3B25FE67EAFAD85A2C44B9B4AF31AFD7EEB9FD886AD65BF734DE874FD8B4ACFA5DEF9D4
310
6F1F3F68070BAE3FACD4F55CA1AE39B5BDEC5F50EA32611795FBCB7EED28D595CF4EA1A3D2AD65BF2211FC0C443FF97419EA4A71FD769AD8F5D34FBECE4852CAB2DF3408C7993D386B4BA9E51716BCB4D970C2CDBB9F832A5FF66729B5CF5AB952EB94E6D8FEB0931F8C2469581813A7B640E4FE276B18E8727FB82BA6A7FF
310
91CEFAF096ED8F2A351FD152BF0FCB777FC8556A3FA2A5B33F6AC665B6EAA17ADF73496D6C048B373ED1EBDFE811EEF684D2C952427EA545CFF878E7E1C8E8B896FD5B42C3B7D2D1F2A2396CFF5E441554DABA8B0AA7EDAF8AE968901D15482EAF9B5AF2914AED68BEED3768E17BCF63BF8EF3999637F0EA1F3EA2F46F2ACD
310
F1FC0000000000000000000000000000000000000090C017D9FAAD12BA078DDB0000000049454E44AE42608246F55477169A5CDF07ED39281486A4D60A5CD2B7A473FFBC250D04A58C26023C66014B02A8AC1B8805506AEB70769F059B53AE7B2890C128C6ADE9D85B6AF1D2CF4E5A9C138F3DB55A0ED6F00A470A2BB81B16
310
701AF370C31DAB1EC810BA5C452164B64AED4BF1ACA1FADAEF14A3F8F708F0F502DCE8050000000000000000000000000000000000000000E039FE00CA095711398C64D10000000049454E44AE426082
  0
ENDSEC
  0
EOF
