<?xml version="1.0" standalone="no"?>
 <!DOCTYPE svg PUBLIC "-//W3C//DTD SVG 1.1//EN" 
 "http://www.w3.org/Graphics/SVG/1.1/DTD/svg11.dtd"> 
<svg
  xmlns:svg="http://www.w3.org/2000/svg"
  xmlns="http://www.w3.org/2000/svg"
  xmlns:xlink="http://www.w3.org/1999/xlink"
  version="1.1"
  width="297.002200mm" height="210.007200mm" viewBox="0.000000 0.000000 297.002200 210.007200">
<title>SVG Image created as WaveTheory-Edge_Cuts.svg date 2026/01/30 17:35:45 </title>
  <desc>Image generated by PCBNEW </desc>
<g style="fill:#000000; fill-opacity:1.000000;stroke:#000000; stroke-opacity:1.000000;
stroke-linecap:round; stroke-linejoin:round;"
 transform="translate(0 0) scale(1 1)">
</g>
<g style="fill:none; 
stroke:#000000; stroke-width:0.200000; stroke-opacity:1; 
stroke-linecap:round; stroke-linejoin:round;">
<path d="M143.841487 16.312586 A1.000014 1.000014 0.0 0 0 142.841486 17.312645" />
<path d="M17.516485 15.147647 A1.999993 1.999993 0.0 0 0 15.516487 17.147645" />
<path d="M300.166456 17.147644 A1.999956 1.999956 0.0 0 0 298.166484 15.147644" />
<path d="M298.166484 108.847584 A1.999984 1.999984 0.0 0 0 300.166484 106.847644" />
<path d="M142.841487 29.312644
L142.841486 17.312645
" />
<path d="M174.841486 30.312645
L143.841486 30.312645
" />
<path d="M174.841486 30.312584 A0.999984 0.999984 0.0 0 0 175.841484 29.312645" />
<path d="M17.516485 15.147645
L298.166485 15.147644
" />
<path d="M142.841455 29.312644 A1.000045 1.000045 0.0 0 0 143.841486 30.312645" />
<path d="M300.166484 17.147644
L300.166484 106.847644
" />
<path d="M15.516485 106.847645
L15.516487 17.147645
" />
<path d="M175.841455 17.312645 A0.999955 0.999955 0.0 0 0 174.841487 16.312645" />
<path d="M298.166484 108.847644
L17.516486 108.847645
" />
<path d="M175.841485 17.312645
L175.841484 29.312645
" />
<path d="M15.516455 106.847645 A2.000045 2.000045 0.0 0 0 17.516486 108.847645" />
<path d="M143.841487 16.312646
L174.841487 16.312645
" />
</g>
<g style="fill:none; 
stroke:#000000; stroke-width:0.050000; stroke-opacity:1; 
stroke-linecap:round; stroke-linejoin:round;">
<path d="M282.815823 82.881949
L295.689309 81.072698
" />
<path d="M284.199527 96.320155
L282.390276 83.446669
" />
<path d="M296.254029 81.498245
L298.063280 94.371731
" />
<path d="M297.637733 94.936451
L284.764247 96.745702
" />
<path d="M282.815823 82.881949 A0.499998 0.499998 0.0 0 0 282.390276 83.446669" />
<path d="M284.199527 96.320155 A0.499998 0.499998 0.0 0 0 284.764247 96.745702" />
<path d="M296.254029 81.498245 A0.500000 0.500000 0.0 0 0 295.689309 81.072698" />
<path d="M297.634847 94.935782 A0.500035 0.500035 0.0 0 0 298.060387 94.371012" />
<path d="M277.513942 45.152544
L290.387428 43.343293
" />
<path d="M278.897646 58.590750
L277.088395 45.717264
" />
<path d="M290.952148 43.768840
L292.761399 56.642326
" />
<path d="M292.335852 57.207046
L279.462366 59.016297
" />
<path d="M277.513942 45.152544 A0.499998 0.499998 0.0 0 0 277.088395 45.717264" />
<path d="M278.897646 58.590750 A0.499998 0.499998 0.0 0 0 279.462366 59.016297" />
<path d="M290.952148 43.768840 A0.500000 0.500000 0.0 0 0 290.387428 43.343293" />
<path d="M292.332966 57.206377 A0.500035 0.500035 0.0 0 0 292.758506 56.641607" />
<path d="M169.888080 106.647295
L169.888082 93.647294
" />
<path d="M170.388080 93.147293
L183.388081 93.147295
" />
<path d="M183.388082 107.147295
L170.388081 107.147293
" />
<path d="M183.888082 93.647293
L183.888080 106.647294
" />
<path d="M170.388080 93.147293 A0.500003 0.500003 0.0 0 0 169.888082 93.647294" />
<path d="M169.888080 106.647295 A0.500003 0.500003 0.0 0 0 170.388081 107.147293" />
<path d="M183.888080 93.647293 A0.499999 0.499999 0.0 0 0 183.388081 93.147295" />
<path d="M183.385317 107.146181 A0.500007 0.500007 0.0 0 0 183.885318 106.646178" />
<path d="M203.133235 63.421442
L216.006721 61.612191
" />
<path d="M204.516939 76.859648
L202.707688 63.986162
" />
<path d="M216.571441 62.037738
L218.380692 74.911224
" />
<path d="M217.955145 75.475944
L205.081659 77.285195
" />
<path d="M203.133235 63.421442 A0.499998 0.499998 0.0 0 0 202.707688 63.986162" />
<path d="M204.516939 76.859648 A0.499998 0.499998 0.0 0 0 205.081659 77.285195" />
<path d="M216.571441 62.037738 A0.500000 0.500000 0.0 0 0 216.006721 61.612191" />
<path d="M217.952259 75.475275 A0.500035 0.500035 0.0 0 0 218.377799 74.910505" />
<path d="M150.838205 106.647295
L150.838207 93.647294
" />
<path d="M151.338205 93.147293
L164.338206 93.147295
" />
<path d="M164.338207 107.147295
L151.338206 107.147293
" />
<path d="M164.838207 93.647293
L164.838205 106.647294
" />
<path d="M151.338205 93.147293 A0.500003 0.500003 0.0 0 0 150.838207 93.647294" />
<path d="M150.838205 106.647295 A0.500003 0.500003 0.0 0 0 151.338206 107.147293" />
<path d="M164.838205 93.647293 A0.499999 0.499999 0.0 0 0 164.338206 93.147295" />
<path d="M164.335442 107.146181 A0.500007 0.500007 0.0 0 0 164.835443 106.646178" />
<path d="M131.788204 106.647295
L131.788206 93.647294
" />
<path d="M132.288204 93.147293
L145.288205 93.147295
" />
<path d="M145.288206 107.147295
L132.288205 107.147293
" />
<path d="M145.788206 93.647293
L145.788204 106.647294
" />
<path d="M132.288204 93.147293 A0.500003 0.500003 0.0 0 0 131.788206 93.647294" />
<path d="M131.788204 106.647295 A0.500003 0.500003 0.0 0 0 132.288205 107.147293" />
<path d="M145.788204 93.647293 A0.499999 0.499999 0.0 0 0 145.288205 93.147295" />
<path d="M145.285441 107.146181 A0.500007 0.500007 0.0 0 0 145.785442 106.646178" />
<path d="M150.838588 85.572994
L150.838590 72.572993
" />
<path d="M151.338588 72.072992
L164.338589 72.072994
" />
<path d="M164.338590 86.072994
L151.338589 86.072992
" />
<path d="M164.838590 72.572992
L164.838588 85.572993
" />
<path d="M151.338588 72.072992 A0.500003 0.500003 0.0 0 0 150.838590 72.572993" />
<path d="M150.838588 85.572994 A0.500003 0.500003 0.0 0 0 151.338589 86.072992" />
<path d="M164.838588 72.572992 A0.499999 0.499999 0.0 0 0 164.338589 72.072994" />
<path d="M164.335825 86.071880 A0.500007 0.500007 0.0 0 0 164.835826 85.571877" />
<path d="M122.263205 106.647296
L122.263208 93.647294
" />
<path d="M122.763204 93.147293
L135.763206 93.147296
" />
<path d="M135.763208 107.147295
L122.763206 107.147292
" />
<path d="M136.263207 93.647292
L136.263204 106.647294
" />
<path d="M122.763204 93.147293 A0.500001 0.500001 0.0 0 0 122.263208 93.647294" />
<path d="M122.263205 106.647296 A0.500001 0.500001 0.0 0 0 122.763206 107.147292" />
<path d="M136.263204 93.647292 A0.499998 0.499998 0.0 0 0 135.763206 93.147296" />
<path d="M135.760442 107.146182 A0.500008 0.500008 0.0 0 0 136.260444 106.646178" />
<path d="M62.226150 50.786435
L64.035401 37.912949
" />
<path d="M64.600120 37.487401
L77.473606 39.296652
" />
<path d="M75.525184 53.160405
L62.651698 51.351154
" />
<path d="M77.899154 39.861371
L76.089903 52.734857
" />
<path d="M62.226150 50.786435 A0.500005 0.500005 0.0 0 0 62.651698 51.351154" />
<path d="M64.600120 37.487401 A0.500005 0.500005 0.0 0 0 64.035401 37.912949" />
<path d="M75.522594 53.158967 A0.500036 0.500036 0.0 0 0 76.087322 52.733367" />
<path d="M77.899154 39.861371 A0.500000 0.500000 0.0 0 0 77.473606 39.296652" />
<path d="M25.573953 37.820234
L27.383204 24.946748
" />
<path d="M27.947923 24.521200
L40.821409 26.330451
" />
<path d="M38.872987 40.194204
L25.999501 38.384953
" />
<path d="M41.246957 26.895170
L39.437706 39.768656
" />
<path d="M25.573953 37.820234 A0.500005 0.500005 0.0 0 0 25.999501 38.384953" />
<path d="M27.947923 24.521200 A0.500005 0.500005 0.0 0 0 27.383204 24.946748" />
<path d="M38.870397 40.192766 A0.500036 0.500036 0.0 0 0 39.435125 39.767166" />
<path d="M41.246957 26.895170 A0.500000 0.500000 0.0 0 0 40.821409 26.330451" />
<path d="M179.296941 30.701443
L192.170427 28.892192
" />
<path d="M180.680645 44.139649
L178.871394 31.266163
" />
<path d="M192.735147 29.317739
L194.544398 42.191225
" />
<path d="M194.118851 42.755945
L181.245365 44.565196
" />
<path d="M179.296941 30.701443 A0.499998 0.499998 0.0 0 0 178.871394 31.266163" />
<path d="M180.680645 44.139649 A0.499998 0.499998 0.0 0 0 181.245365 44.565196" />
<path d="M192.735147 29.317739 A0.500000 0.500000 0.0 0 0 192.170427 28.892192" />
<path d="M194.115965 42.755276 A0.500035 0.500035 0.0 0 0 194.541505 42.190506" />
<path d="M20.271715 75.549026
L22.080966 62.675540
" />
<path d="M22.645685 62.249992
L35.519171 64.059243
" />
<path d="M33.570749 77.922996
L20.697263 76.113745
" />
<path d="M35.944719 64.623962
L34.135468 77.497448
" />
<path d="M20.271715 75.549026 A0.500005 0.500005 0.0 0 0 20.697263 76.113745" />
<path d="M22.645685 62.249992 A0.500005 0.500005 0.0 0 0 22.080966 62.675540" />
<path d="M33.568159 77.921558 A0.500036 0.500036 0.0 0 0 34.132887 77.495958" />
<path d="M35.944719 64.623962 A0.500000 0.500000 0.0 0 0 35.519171 64.059243" />
<path d="M41.787351 59.336135
L43.596602 46.462649
" />
<path d="M44.161321 46.037101
L57.034807 47.846352
" />
<path d="M55.086385 61.710105
L42.212899 59.900854
" />
<path d="M57.460355 48.411071
L55.651104 61.284557
" />
<path d="M41.787351 59.336135 A0.500005 0.500005 0.0 0 0 42.212899 59.900854" />
<path d="M44.161321 46.037101 A0.500005 0.500005 0.0 0 0 43.596602 46.462649" />
<path d="M55.083795 61.708667 A0.500036 0.500036 0.0 0 0 55.648523 61.283067" />
<path d="M57.460355 48.411071 A0.500000 0.500000 0.0 0 0 57.034807 47.846352" />
<path d="M258.650060 47.803541
L271.523546 45.994290
" />
<path d="M260.033764 61.241747
L258.224513 48.368261
" />
<path d="M272.088266 46.419837
L273.897517 59.293323
" />
<path d="M273.471970 59.858043
L260.598484 61.667294
" />
<path d="M258.650060 47.803541 A0.499998 0.499998 0.0 0 0 258.224513 48.368261" />
<path d="M260.033764 61.241747 A0.499998 0.499998 0.0 0 0 260.598484 61.667294" />
<path d="M272.088266 46.419837 A0.500000 0.500000 0.0 0 0 271.523546 45.994290" />
<path d="M273.469084 59.857374 A0.500035 0.500035 0.0 0 0 273.894624 59.292604" />
<path d="M102.606652 37.224434
L104.415903 24.350948
" />
<path d="M104.980622 23.925400
L117.854108 25.734651
" />
<path d="M115.905686 39.598404
L103.032200 37.789153
" />
<path d="M118.279656 26.299370
L116.470405 39.172856
" />
<path d="M102.606652 37.224434 A0.500005 0.500005 0.0 0 0 103.032200 37.789153" />
<path d="M104.980622 23.925400 A0.500005 0.500005 0.0 0 0 104.415903 24.350948" />
<path d="M115.903096 39.596966 A0.500036 0.500036 0.0 0 0 116.467824 39.171366" />
<path d="M118.279656 26.299370 A0.500000 0.500000 0.0 0 0 117.854108 25.734651" />
<path d="M240.862236 58.118445
L253.735722 56.309194
" />
<path d="M242.245940 71.556651
L240.436689 58.683165
" />
<path d="M254.300442 56.734741
L256.109693 69.608227
" />
<path d="M255.684146 70.172947
L242.810660 71.982198
" />
<path d="M240.862236 58.118445 A0.499998 0.499998 0.0 0 0 240.436689 58.683165" />
<path d="M242.245940 71.556651 A0.499998 0.499998 0.0 0 0 242.810660 71.982198" />
<path d="M254.300442 56.734741 A0.500000 0.500000 0.0 0 0 253.735722 56.309194" />
<path d="M255.681260 70.172278 A0.500035 0.500035 0.0 0 0 256.106800 69.607508" />
<path d="M181.948059 49.565841
L194.821545 47.756590
" />
<path d="M183.331763 63.004047
L181.522512 50.130561
" />
<path d="M195.386265 48.182137
L197.195516 61.055623
" />
<path d="M196.769969 61.620343
L183.896483 63.429594
" />
<path d="M181.948059 49.565841 A0.499998 0.499998 0.0 0 0 181.522512 50.130561" />
<path d="M183.331763 63.004047 A0.499998 0.499998 0.0 0 0 183.896483 63.429594" />
<path d="M195.386265 48.182137 A0.500000 0.500000 0.0 0 0 194.821545 47.756590" />
<path d="M196.767083 61.619674 A0.500035 0.500035 0.0 0 0 197.192623 61.054904" />
<path d="M142.558040 105.647293
L142.556829 92.647296
" />
<path d="M148.806826 92.147293
L143.056829 92.147293
" />
<path d="M148.806829 106.147293
L143.058040 106.147295
" />
<path d="M149.306831 105.647293
L149.306829 92.647293
" />
<path d="M166.369331 105.647293
L166.369329 92.647293
" />
<path d="M172.619329 92.147293
L166.869329 92.147296
" />
<path d="M172.619329 106.147293
L166.869329 106.147293
" />
<path d="M173.119329 105.647293
L173.119329 92.647291
" />
<path d="M143.056829 92.147244 A0.500050 0.500050 0.0 0 0 142.556829 92.647296" />
<path d="M142.558078 105.647293 A0.500001 0.500001 0.0 0 0 143.058040 106.147295" />
<path d="M149.306780 92.647293 A0.500001 0.500001 0.0 0 0 148.806826 92.147293" />
<path d="M148.806829 106.147346 A0.500052 0.500052 0.0 0 0 149.306831 105.647293" />
<path d="M166.869329 92.147296 A0.499996 0.499996 0.0 0 0 166.369329 92.647293" />
<path d="M166.369331 105.647293 A0.499998 0.499998 0.0 0 0 166.869329 106.147293" />
<path d="M173.119329 92.647291 A0.500001 0.500001 0.0 0 0 172.619329 92.147293" />
<path d="M172.619329 106.147293 A0.500001 0.500001 0.0 0 0 173.119329 105.647293" />
<path d="M36.485134 97.065132
L38.294385 84.191646
" />
<path d="M38.859104 83.766098
L51.732590 85.575349
" />
<path d="M49.784168 99.439102
L36.910682 97.629851
" />
<path d="M52.158138 86.140068
L50.348887 99.013554
" />
<path d="M36.485134 97.065132 A0.500005 0.500005 0.0 0 0 36.910682 97.629851" />
<path d="M38.859104 83.766098 A0.500005 0.500005 0.0 0 0 38.294385 84.191646" />
<path d="M49.781578 99.437664 A0.500036 0.500036 0.0 0 0 50.346306 99.012064" />
<path d="M52.158138 86.140068 A0.500000 0.500000 0.0 0 0 51.732590 85.575349" />
<path d="M84.163706 97.908097
L84.163709 84.908095
" />
<path d="M84.663705 84.408094
L97.663707 84.408097
" />
<path d="M97.663709 98.408096
L84.663707 98.408093
" />
<path d="M98.163708 84.908093
L98.163705 97.908095
" />
<path d="M84.663705 84.408094 A0.500001 0.500001 0.0 0 0 84.163709 84.908095" />
<path d="M84.163706 97.908097 A0.500001 0.500001 0.0 0 0 84.663707 98.408093" />
<path d="M98.163705 84.908093 A0.499998 0.499998 0.0 0 0 97.663707 84.408097" />
<path d="M97.660943 98.406983 A0.500008 0.500008 0.0 0 0 98.160945 97.906979" />
<path d="M59.575050 69.651235
L61.384301 56.777749
" />
<path d="M61.949020 56.352201
L74.822506 58.161452
" />
<path d="M72.874084 72.025205
L60.000598 70.215954
" />
<path d="M75.248054 58.726171
L73.438803 71.599657
" />
<path d="M59.575050 69.651235 A0.500005 0.500005 0.0 0 0 60.000598 70.215954" />
<path d="M61.949020 56.352201 A0.500005 0.500005 0.0 0 0 61.384301 56.777749" />
<path d="M72.871494 72.023767 A0.500036 0.500036 0.0 0 0 73.436222 71.598167" />
<path d="M75.248054 58.726171 A0.500000 0.500000 0.0 0 0 74.822506 58.161452" />
<path d="M238.211060 39.253641
L251.084546 37.444390
" />
<path d="M239.594764 52.691847
L237.785513 39.818361
" />
<path d="M251.649266 37.869937
L253.458517 50.743423
" />
<path d="M253.032970 51.308143
L240.159484 53.117394
" />
<path d="M238.211060 39.253641 A0.499998 0.499998 0.0 0 0 237.785513 39.818361" />
<path d="M239.594764 52.691847 A0.499998 0.499998 0.0 0 0 240.159484 53.117394" />
<path d="M251.649266 37.869937 A0.500000 0.500000 0.0 0 0 251.084546 37.444390" />
<path d="M253.030084 51.307474 A0.500035 0.500035 0.0 0 0 253.455624 50.742704" />
<path d="M81.588054 49.900635
L83.397305 37.027149
" />
<path d="M83.962024 36.601601
L96.835510 38.410852
" />
<path d="M94.887088 52.274605
L82.013602 50.465354
" />
<path d="M97.261058 38.975571
L95.451807 51.849057
" />
<path d="M81.588054 49.900635 A0.500005 0.500005 0.0 0 0 82.013602 50.465354" />
<path d="M83.962024 36.601601 A0.500005 0.500005 0.0 0 0 83.397305 37.027149" />
<path d="M94.884498 52.273167 A0.500036 0.500036 0.0 0 0 95.449226 51.847567" />
<path d="M97.261058 38.975571 A0.500000 0.500000 0.0 0 0 96.835510 38.410852" />
<path d="M118.488580 61.097802
L120.297831 48.224316
" />
<path d="M120.862550 47.798768
L133.736036 49.608019
" />
<path d="M131.787614 63.471772
L118.914128 61.662521
" />
<path d="M134.161584 50.172738
L132.352333 63.046224
" />
<path d="M118.488580 61.097802 A0.500005 0.500005 0.0 0 0 118.914128 61.662521" />
<path d="M120.862550 47.798768 A0.500005 0.500005 0.0 0 0 120.297831 48.224316" />
<path d="M131.785024 63.470334 A0.500036 0.500036 0.0 0 0 132.349752 63.044734" />
<path d="M134.161584 50.172738 A0.500000 0.500000 0.0 0 0 133.736036 49.608019" />
<path d="M184.599235 68.430644
L197.472721 66.621393
" />
<path d="M185.982939 81.868850
L184.173688 68.995364
" />
<path d="M198.037441 67.046940
L199.846692 79.920426
" />
<path d="M199.421145 80.485146
L186.547659 82.294397
" />
<path d="M184.599235 68.430644 A0.499998 0.499998 0.0 0 0 184.173688 68.995364" />
<path d="M185.982939 81.868850 A0.499998 0.499998 0.0 0 0 186.547659 82.294397" />
<path d="M198.037441 67.046940 A0.500000 0.500000 0.0 0 0 197.472721 66.621393" />
<path d="M199.418259 80.484477 A0.500035 0.500035 0.0 0 0 199.843799 79.919707" />
<path d="M255.998941 28.939144
L268.872427 27.129893
" />
<path d="M257.382645 42.377350
L255.573394 29.503864
" />
<path d="M269.437147 27.555440
L271.246398 40.428926
" />
<path d="M270.820851 40.993646
L257.947365 42.802897
" />
<path d="M255.998941 28.939144 A0.499998 0.499998 0.0 0 0 255.573394 29.503864" />
<path d="M257.382645 42.377350 A0.499998 0.499998 0.0 0 0 257.947365 42.802897" />
<path d="M269.437147 27.555440 A0.500000 0.500000 0.0 0 0 268.872427 27.129893" />
<path d="M270.817965 40.992977 A0.500035 0.500035 0.0 0 0 271.243505 40.428207" />
<path d="M197.830941 25.692246
L210.704427 23.882995
" />
<path d="M199.214645 39.130452
L197.405394 26.256966
" />
<path d="M211.269147 24.308542
L213.078398 37.182028
" />
<path d="M212.652851 37.746748
L199.779365 39.555999
" />
<path d="M197.830941 25.692246 A0.499998 0.499998 0.0 0 0 197.405394 26.256966" />
<path d="M199.214645 39.130452 A0.499998 0.499998 0.0 0 0 199.779365 39.555999" />
<path d="M211.269147 24.308542 A0.500000 0.500000 0.0 0 0 210.704427 23.882995" />
<path d="M212.649965 37.746079 A0.500035 0.500035 0.0 0 0 213.075505 37.181309" />
<path d="M97.304652 74.953735
L99.113903 62.080249
" />
<path d="M99.678622 61.654701
L112.552108 63.463952
" />
<path d="M110.603686 77.327705
L97.730200 75.518454
" />
<path d="M112.977656 64.028671
L111.168405 76.902157
" />
<path d="M97.304652 74.953735 A0.500005 0.500005 0.0 0 0 97.730200 75.518454" />
<path d="M99.678622 61.654701 A0.500005 0.500005 0.0 0 0 99.113903 62.080249" />
<path d="M110.601096 77.326267 A0.500036 0.500036 0.0 0 0 111.165824 76.900667" />
<path d="M112.977656 64.028671 A0.500000 0.500000 0.0 0 0 112.552108 63.463952" />
<path d="M17.620253 94.414135
L19.429504 81.540649
" />
<path d="M19.994223 81.115101
L32.867709 82.924352
" />
<path d="M30.919287 96.788105
L18.045801 94.978854
" />
<path d="M33.293257 83.489071
L31.484006 96.362557
" />
<path d="M17.620253 94.414135 A0.500005 0.500005 0.0 0 0 18.045801 94.978854" />
<path d="M19.994223 81.115101 A0.500005 0.500005 0.0 0 0 19.429504 81.540649" />
<path d="M30.916697 96.786667 A0.500036 0.500036 0.0 0 0 31.481425 96.361067" />
<path d="M33.293257 83.489071 A0.500000 0.500000 0.0 0 0 32.867709 82.924352" />
<path d="M200.482060 44.556640
L213.355546 42.747389
" />
<path d="M201.865764 57.994846
L200.056513 45.121360
" />
<path d="M213.920266 43.172936
L215.729517 56.046422
" />
<path d="M215.303970 56.611142
L202.430484 58.420393
" />
<path d="M200.482060 44.556640 A0.499998 0.499998 0.0 0 0 200.056513 45.121360" />
<path d="M201.865764 57.994846 A0.499998 0.499998 0.0 0 0 202.430484 58.420393" />
<path d="M213.920266 43.172936 A0.500000 0.500000 0.0 0 0 213.355546 42.747389" />
<path d="M215.301084 56.610473 A0.500035 0.500035 0.0 0 0 215.726624 56.045703" />
<path d="M22.923114 56.684531
L24.732365 43.811045
" />
<path d="M25.297084 43.385497
L38.170570 45.194748
" />
<path d="M36.222148 59.058501
L23.348662 57.249250
" />
<path d="M38.596118 45.759467
L36.786867 58.632953
" />
<path d="M22.923114 56.684531 A0.500005 0.500005 0.0 0 0 23.348662 57.249250" />
<path d="M25.297084 43.385497 A0.500005 0.500005 0.0 0 0 24.732365 43.811045" />
<path d="M36.219558 59.057063 A0.500036 0.500036 0.0 0 0 36.784286 58.631463" />
<path d="M38.596118 45.759467 A0.500000 0.500000 0.0 0 0 38.170570 45.194748" />
<path d="M103.213705 101.384693
L103.213708 88.384691
" />
<path d="M103.713704 87.884690
L116.713706 87.884693
" />
<path d="M116.713708 101.884692
L103.713706 101.884689
" />
<path d="M117.213707 88.384689
L117.213704 101.384691
" />
<path d="M103.713704 87.884690 A0.500001 0.500001 0.0 0 0 103.213708 88.384691" />
<path d="M103.213705 101.384693 A0.500001 0.500001 0.0 0 0 103.713706 101.884689" />
<path d="M117.213704 88.384689 A0.499998 0.499998 0.0 0 0 116.713706 87.884693" />
<path d="M116.710942 101.883579 A0.500008 0.500008 0.0 0 0 117.210944 101.383575" />
<path d="M243.513942 76.983444
L256.387428 75.174193
" />
<path d="M244.897646 90.421650
L243.088395 77.548164
" />
<path d="M256.952148 75.599740
L258.761399 88.473226
" />
<path d="M258.335852 89.037946
L245.462366 90.847197
" />
<path d="M243.513942 76.983444 A0.499998 0.499998 0.0 0 0 243.088395 77.548164" />
<path d="M244.897646 90.421650 A0.499998 0.499998 0.0 0 0 245.462366 90.847197" />
<path d="M256.952148 75.599740 A0.500000 0.500000 0.0 0 0 256.387428 75.174193" />
<path d="M258.332966 89.037277 A0.500035 0.500035 0.0 0 0 258.758506 88.472507" />
<path d="M235.559941 20.389244
L248.433427 18.579993
" />
<path d="M236.943645 33.827450
L235.134394 20.953964
" />
<path d="M248.998147 19.005540
L250.807398 31.879026
" />
<path d="M250.381851 32.443746
L237.508365 34.252997
" />
<path d="M235.559941 20.389244 A0.499998 0.499998 0.0 0 0 235.134394 20.953964" />
<path d="M236.943645 33.827450 A0.499998 0.499998 0.0 0 0 237.508365 34.252997" />
<path d="M248.998147 19.005540 A0.500000 0.500000 0.0 0 0 248.433427 18.579993" />
<path d="M250.378965 32.443077 A0.500035 0.500035 0.0 0 0 250.804505 31.878307" />
<path d="M261.301236 66.668344
L274.174722 64.859093
" />
<path d="M262.684940 80.106550
L260.875689 67.233064
" />
<path d="M274.739442 65.284640
L276.548693 78.158126
" />
<path d="M276.123146 78.722846
L263.249660 80.532097
" />
<path d="M261.301236 66.668344 A0.499998 0.499998 0.0 0 0 260.875689 67.233064" />
<path d="M262.684940 80.106550 A0.499998 0.499998 0.0 0 0 263.249660 80.532097" />
<path d="M274.739442 65.284640 A0.500000 0.500000 0.0 0 0 274.174722 64.859093" />
<path d="M276.120260 78.722177 A0.500035 0.500035 0.0 0 0 276.545800 78.157407" />
<path d="M121.139652 42.233735
L122.948903 29.360249
" />
<path d="M123.513622 28.934701
L136.387108 30.743952
" />
<path d="M134.438686 44.607705
L121.565200 42.798454
" />
<path d="M136.812656 31.308671
L135.003405 44.182157
" />
<path d="M121.139652 42.233735 A0.500005 0.500005 0.0 0 0 121.565200 42.798454" />
<path d="M123.513622 28.934701 A0.500005 0.500005 0.0 0 0 122.948903 29.360249" />
<path d="M134.436096 44.606267 A0.500036 0.500036 0.0 0 0 135.000824 44.180667" />
<path d="M136.812656 31.308671 A0.500000 0.500000 0.0 0 0 136.387108 30.743952" />
<path d="M218.849060 38.368641
L231.722546 36.559390
" />
<path d="M220.232764 51.806847
L218.423513 38.933361
" />
<path d="M232.287266 36.984937
L234.096517 49.858423
" />
<path d="M233.670970 50.423143
L220.797484 52.232394
" />
<path d="M218.849060 38.368641 A0.499998 0.499998 0.0 0 0 218.423513 38.933361" />
<path d="M220.232764 51.806847 A0.499998 0.499998 0.0 0 0 220.797484 52.232394" />
<path d="M232.287266 36.984937 A0.500000 0.500000 0.0 0 0 231.722546 36.559390" />
<path d="M233.668084 50.422474 A0.500035 0.500035 0.0 0 0 234.093624 49.857704" />
<path d="M221.500234 57.233446
L234.373720 55.424195
" />
<path d="M222.883938 70.671652
L221.074687 57.798166
" />
<path d="M234.938440 55.849742
L236.747691 68.723228
" />
<path d="M236.322144 69.287948
L223.448658 71.097199
" />
<path d="M221.500234 57.233446 A0.499998 0.499998 0.0 0 0 221.074687 57.798166" />
<path d="M222.883938 70.671652 A0.499998 0.499998 0.0 0 0 223.448658 71.097199" />
<path d="M234.938440 55.849742 A0.500000 0.500000 0.0 0 0 234.373720 55.424195" />
<path d="M236.319258 69.287279 A0.500035 0.500035 0.0 0 0 236.744798 68.722509" />
<path d="M217.513204 97.908095
L217.513207 84.908093
" />
<path d="M218.013203 84.408092
L231.013205 84.408095
" />
<path d="M231.013207 98.408094
L218.013205 98.408091
" />
<path d="M231.513206 84.908091
L231.513203 97.908093
" />
<path d="M218.013203 84.408092 A0.500001 0.500001 0.0 0 0 217.513207 84.908093" />
<path d="M217.513204 97.908095 A0.500001 0.500001 0.0 0 0 218.013205 98.408091" />
<path d="M231.513203 84.908091 A0.499998 0.499998 0.0 0 0 231.013205 84.408095" />
<path d="M231.010441 98.406981 A0.500008 0.500008 0.0 0 0 231.510443 97.906977" />
<path d="M44.438630 40.471249
L46.247881 27.597763
" />
<path d="M46.812600 27.172215
L59.686086 28.981466
" />
<path d="M57.737664 42.845219
L44.864178 41.035968
" />
<path d="M60.111634 29.546185
L58.302383 42.419671
" />
<path d="M44.438630 40.471249 A0.500005 0.500005 0.0 0 0 44.864178 41.035968" />
<path d="M46.812600 27.172215 A0.500005 0.500005 0.0 0 0 46.247881 27.597763" />
<path d="M57.735074 42.843781 A0.500036 0.500036 0.0 0 0 58.299802 42.418181" />
<path d="M60.111634 29.546185 A0.500000 0.500000 0.0 0 0 59.686086 28.981466" />
<path d="M161.608042 105.647293
L161.606831 92.647296
" />
<path d="M167.856828 92.147293
L162.106831 92.147293
" />
<path d="M167.856831 106.147293
L162.108042 106.147295
" />
<path d="M168.356833 105.647293
L168.356831 92.647293
" />
<path d="M185.419333 105.647293
L185.419331 92.647293
" />
<path d="M191.669331 92.147293
L185.919331 92.147296
" />
<path d="M191.669331 106.147293
L185.919331 106.147293
" />
<path d="M192.169331 105.647293
L192.169331 92.647291
" />
<path d="M162.106831 92.147244 A0.500050 0.500050 0.0 0 0 161.606831 92.647296" />
<path d="M161.608080 105.647293 A0.500001 0.500001 0.0 0 0 162.108042 106.147295" />
<path d="M168.356782 92.647293 A0.500001 0.500001 0.0 0 0 167.856828 92.147293" />
<path d="M167.856831 106.147346 A0.500052 0.500052 0.0 0 0 168.356833 105.647293" />
<path d="M185.919331 92.147296 A0.499996 0.499996 0.0 0 0 185.419331 92.647293" />
<path d="M185.419333 105.647293 A0.499998 0.499998 0.0 0 0 185.919331 106.147293" />
<path d="M192.169331 92.647291 A0.500001 0.500001 0.0 0 0 191.669331 92.147293" />
<path d="M191.669331 106.147293 A0.500001 0.500001 0.0 0 0 192.169331 105.647293" />
<path d="M198.463204 101.384694
L198.463207 88.384692
" />
<path d="M198.963203 87.884691
L211.963205 87.884694
" />
<path d="M211.963207 101.884693
L198.963205 101.884690
" />
<path d="M212.463206 88.384690
L212.463203 101.384692
" />
<path d="M198.963203 87.884691 A0.500001 0.500001 0.0 0 0 198.463207 88.384692" />
<path d="M198.463204 101.384694 A0.500001 0.500001 0.0 0 0 198.963205 101.884690" />
<path d="M212.463203 88.384690 A0.499998 0.499998 0.0 0 0 211.963205 87.884694" />
<path d="M211.960441 101.883580 A0.500008 0.500008 0.0 0 0 212.460443 101.383576" />
<path d="M216.197941 19.504243
L229.071427 17.694992
" />
<path d="M217.581645 32.942449
L215.772394 20.068963
" />
<path d="M229.636147 18.120539
L231.445398 30.994025
" />
<path d="M231.019851 31.558745
L218.146365 33.367996
" />
<path d="M216.197941 19.504243 A0.499998 0.499998 0.0 0 0 215.772394 20.068963" />
<path d="M217.581645 32.942449 A0.499998 0.499998 0.0 0 0 218.146365 33.367996" />
<path d="M229.636147 18.120539 A0.500000 0.500000 0.0 0 0 229.071427 17.694992" />
<path d="M231.016965 31.558076 A0.500035 0.500035 0.0 0 0 231.442505 30.993306" />
<path d="M84.239030 31.035651
L86.048281 18.162165
" />
<path d="M86.613000 17.736617
L99.486486 19.545868
" />
<path d="M97.538064 33.409621
L84.664578 31.600370
" />
<path d="M99.912034 20.110587
L98.102783 32.984073
" />
<path d="M84.239030 31.035651 A0.500005 0.500005 0.0 0 0 84.664578 31.600370" />
<path d="M86.613000 17.736617 A0.500005 0.500005 0.0 0 0 86.048281 18.162165" />
<path d="M97.535474 33.408183 A0.500036 0.500036 0.0 0 0 98.100202 32.982583" />
<path d="M99.912034 20.110587 A0.500000 0.500000 0.0 0 0 99.486486 19.545868" />
<path d="M179.413079 106.647295
L179.413082 93.647293
" />
<path d="M179.913078 93.147292
L192.913080 93.147295
" />
<path d="M192.913082 107.147294
L179.913080 107.147291
" />
<path d="M193.413081 93.647291
L193.413078 106.647293
" />
<path d="M179.913078 93.147292 A0.500001 0.500001 0.0 0 0 179.413082 93.647293" />
<path d="M179.413079 106.647295 A0.500001 0.500001 0.0 0 0 179.913080 107.147291" />
<path d="M193.413078 93.647291 A0.499998 0.499998 0.0 0 0 192.913080 93.147295" />
<path d="M192.910316 107.146181 A0.500008 0.500008 0.0 0 0 193.410318 106.646177" />
<path d="M56.924013 88.514950
L58.733264 75.641464
" />
<path d="M59.297983 75.215916
L72.171469 77.025167
" />
<path d="M70.223047 90.888920
L57.349561 89.079669
" />
<path d="M72.597017 77.589886
L70.787766 90.463372
" />
<path d="M56.924013 88.514950 A0.500005 0.500005 0.0 0 0 57.349561 89.079669" />
<path d="M59.297983 75.215916 A0.500005 0.500005 0.0 0 0 58.733264 75.641464" />
<path d="M70.220457 90.887482 A0.500036 0.500036 0.0 0 0 70.785185 90.461882" />
<path d="M72.597017 77.589886 A0.500000 0.500000 0.0 0 0 72.171469 77.025167" />
<path d="M64.877552 31.921935
L66.686803 19.048449
" />
<path d="M67.251522 18.622901
L80.125008 20.432152
" />
<path d="M78.176586 34.295905
L65.303100 32.486654
" />
<path d="M80.550556 20.996871
L78.741305 33.870357
" />
<path d="M64.877552 31.921935 A0.500005 0.500005 0.0 0 0 65.303100 32.486654" />
<path d="M67.251522 18.622901 A0.500005 0.500005 0.0 0 0 66.686803 19.048449" />
<path d="M78.173996 34.294467 A0.500036 0.500036 0.0 0 0 78.738724 33.868867" />
<path d="M80.550556 20.996871 A0.500000 0.500000 0.0 0 0 80.125008 20.432152" />
<path d="M123.508166 105.647293
L123.506955 92.647296
" />
<path d="M129.756952 92.147293
L124.006955 92.147293
" />
<path d="M129.756955 106.147293
L124.008166 106.147295
" />
<path d="M130.256957 105.647293
L130.256955 92.647293
" />
<path d="M147.319457 105.647293
L147.319455 92.647293
" />
<path d="M153.569455 92.147293
L147.819455 92.147296
" />
<path d="M153.569455 106.147293
L147.819455 106.147293
" />
<path d="M154.069455 105.647293
L154.069455 92.647291
" />
<path d="M124.006955 92.147244 A0.500050 0.500050 0.0 0 0 123.506955 92.647296" />
<path d="M123.508204 105.647293 A0.500001 0.500001 0.0 0 0 124.008166 106.147295" />
<path d="M130.256906 92.647293 A0.500001 0.500001 0.0 0 0 129.756952 92.147293" />
<path d="M129.756955 106.147346 A0.500052 0.500052 0.0 0 0 130.256957 105.647293" />
<path d="M147.819455 92.147296 A0.499996 0.499996 0.0 0 0 147.319455 92.647293" />
<path d="M147.319457 105.647293 A0.499998 0.499998 0.0 0 0 147.819455 106.147293" />
<path d="M154.069455 92.647291 A0.500001 0.500001 0.0 0 0 153.569455 92.147293" />
<path d="M153.569455 106.147293 A0.500001 0.500001 0.0 0 0 154.069455 105.647293" />
<path d="M115.837652 79.962834
L117.646903 67.089348
" />
<path d="M118.211622 66.663800
L131.085108 68.473051
" />
<path d="M129.136686 82.336804
L116.263200 80.527553
" />
<path d="M131.510656 69.037770
L129.701405 81.911256
" />
<path d="M115.837652 79.962834 A0.500005 0.500005 0.0 0 0 116.263200 80.527553" />
<path d="M118.211622 66.663800 A0.500005 0.500005 0.0 0 0 117.646903 67.089348" />
<path d="M129.134096 82.335366 A0.500036 0.500036 0.0 0 0 129.698824 81.909766" />
<path d="M131.510656 69.037770 A0.500000 0.500000 0.0 0 0 131.085108 68.473051" />
<path d="M263.952061 85.532840
L276.825547 83.723589
" />
<path d="M265.335765 98.971046
L263.526514 86.097560
" />
<path d="M277.390267 84.149136
L279.199518 97.022622
" />
<path d="M278.773971 97.587342
L265.900485 99.396593
" />
<path d="M263.952061 85.532840 A0.499998 0.499998 0.0 0 0 263.526514 86.097560" />
<path d="M265.335765 98.971046 A0.499998 0.499998 0.0 0 0 265.900485 99.396593" />
<path d="M277.390267 84.149136 A0.500000 0.500000 0.0 0 0 276.825547 83.723589" />
<path d="M278.771085 97.586673 A0.500035 0.500035 0.0 0 0 279.196625 97.021903" />
<path d="M280.165116 64.017349
L293.038602 62.208098
" />
<path d="M281.548820 77.455555
L279.739569 64.582069
" />
<path d="M293.603322 62.633645
L295.412573 75.507131
" />
<path d="M294.987026 76.071851
L282.113540 77.881102
" />
<path d="M280.165116 64.017349 A0.499998 0.499998 0.0 0 0 279.739569 64.582069" />
<path d="M281.548820 77.455555 A0.499998 0.499998 0.0 0 0 282.113540 77.881102" />
<path d="M293.603322 62.633645 A0.500000 0.500000 0.0 0 0 293.038602 62.208098" />
<path d="M294.984140 76.071182 A0.500035 0.500035 0.0 0 0 295.409680 75.506412" />
<path d="M274.862824 26.288146
L287.736310 24.478895
" />
<path d="M276.246528 39.726352
L274.437277 26.852866
" />
<path d="M288.301030 24.904442
L290.110281 37.777928
" />
<path d="M289.684734 38.342648
L276.811248 40.151899
" />
<path d="M274.862824 26.288146 A0.499998 0.499998 0.0 0 0 274.437277 26.852866" />
<path d="M276.246528 39.726352 A0.499998 0.499998 0.0 0 0 276.811248 40.151899" />
<path d="M288.301030 24.904442 A0.500000 0.500000 0.0 0 0 287.736310 24.478895" />
<path d="M289.681848 38.341979 A0.500035 0.500035 0.0 0 0 290.107388 37.777209" />
<path d="M99.955653 56.088934
L101.764904 43.215448
" />
<path d="M102.329623 42.789900
L115.203109 44.599151
" />
<path d="M113.254687 58.462904
L100.381201 56.653653
" />
<path d="M115.628657 45.163870
L113.819406 58.037356
" />
<path d="M99.955653 56.088934 A0.500005 0.500005 0.0 0 0 100.381201 56.653653" />
<path d="M102.329623 42.789900 A0.500005 0.500005 0.0 0 0 101.764904 43.215448" />
<path d="M113.252097 58.461466 A0.500036 0.500036 0.0 0 0 113.816825 58.035866" />
<path d="M115.628657 45.163870 A0.500000 0.500000 0.0 0 0 115.203109 44.599151" />
<path d="M78.936932 68.765032
L80.746183 55.891546
" />
<path d="M81.310902 55.465998
L94.184388 57.275249
" />
<path d="M92.235966 71.139002
L79.362480 69.329751
" />
<path d="M94.609936 57.839968
L92.800685 70.713454
" />
<path d="M78.936932 68.765032 A0.500005 0.500005 0.0 0 0 79.362480 69.329751" />
<path d="M81.310902 55.465998 A0.500005 0.500005 0.0 0 0 80.746183 55.891546" />
<path d="M92.233376 71.137564 A0.500036 0.500036 0.0 0 0 92.798104 70.711964" />
<path d="M94.609936 57.839968 A0.500000 0.500000 0.0 0 0 94.184388 57.275249" />
<path d="M39.136252 78.200735
L40.945503 65.327249
" />
<path d="M41.510222 64.901701
L54.383708 66.710952
" />
<path d="M52.435286 80.574705
L39.561800 78.765454
" />
<path d="M54.809256 67.275671
L53.000005 80.149157
" />
<path d="M39.136252 78.200735 A0.500005 0.500005 0.0 0 0 39.561800 78.765454" />
<path d="M41.510222 64.901701 A0.500005 0.500005 0.0 0 0 40.945503 65.327249" />
<path d="M52.432696 80.573267 A0.500036 0.500036 0.0 0 0 52.997424 80.147667" />
<path d="M54.809256 67.275671 A0.500000 0.500000 0.0 0 0 54.383708 66.710952" />
</g> 
</svg>
