  0
SECTION
  2
HEADER
  9
$ANGBASE
  50
0.0
  9
$ANGDIR
  70
1
  9
$MEASUREMENT
  70
1
  0
ENDSEC
  0
SECTION
  2
TABLES
  0
TABLE
  2
LTYPE
  70
4
  0
LTYPE
  5
40F
  2
CONTINUOUS
  70
0
  3
Solid line
  72
65
  73
0
  40
0.0
  0
LTYPE
  5
410
  2
DASHDOT
 70
0
  3
Dash Dot ____ _ ____ _
 72
65
 73
4
 40
2.0
 49
1.25
 49
-0.25
 49
0.25
 49
-0.25
  0
LTYPE
  5
411
  2
DASHED
 70
0
  3
Dashed __ __ __ __ __
 72
65
 73
2
 40
0.75
 49
0.5
 49
-0.25
  0
LTYPE
  5
43B
  2
DOTTED
 70
0
  3
Dotted .  .  .  .
 72
65
 73
2
 40
0.2
 49
0.0
 49
-0.2
  0
ENDTAB
  0
TABLE
  2
STYLE
  70
4
  0
STYLE
  2
KICAD
  70
0
  40
0
  41
1
  42
1
  50
0
  71
0
  3
isocp.shx
  0
STYLE
  2
KICADB
  70
0
  40
0
  41
1
  42
1
  50
0
  71
0
  3
isocp.shx
  0
STYLE
  2
KICADI
  70
0
  40
0
  41
1
  42
1
  50
15
  71
0
  3
isocp.shx
  0
STYLE
  2
KICADBI
  70
0
  40
0
  41
1
  42
1
  50
15
  71
0
  3
isocp.shx
  0
ENDTAB
  0
TABLE
  2
LAYER
  70
1
  0
LAYER
  2
BLACK
  70
0
  62
7
  6
CONTINUOUS
  0
ENDTAB
  0
ENDSEC
  0
SECTION
  2
ENTITIES
0
ARC
8
BLACK
10
143.8414999999999964
20
-17.3125999999999998
40
1.0000140010124858
50
-269.99925512
51
-179.99742173
0
ARC
8
BLACK
10
17.5164799999999978
20
-17.1476399999999991
40
1.99999300000625
50
-270.00014324
51
-179.99985676
0
ARC
8
BLACK
10
298.166499999999985
20
-17.1476000000000006
40
1.9999560000640013
50
-0.00126052
51
90.00045838
0
ARC
8
BLACK
10
298.166499999999985
20
-106.8475999999999999
40
1.9999840004840039
50
-90.00045836
51
-0.00126052
0
LINE
8
BLACK
6
CONTINUOUS
10
142.8414870000000008
20
-29.3126439999999988
11
142.8414860000000033
21
-17.3126449999999998
0
LINE
8
BLACK
6
CONTINUOUS
10
174.8414860000000033
20
-30.3126449999999998
11
143.8414860000000033
21
-30.3126449999999998
0
ARC
8
BLACK
10
174.8414999999999964
20
-29.3125999999999998
40
0.9999840010125162
50
-90.00080210
51
-0.00257835
0
LINE
8
BLACK
6
CONTINUOUS
10
17.5164849999999994
20
-15.1476449999999989
11
298.166484999999966
21
-15.1476439999999997
0
ARC
8
BLACK
10
143.8414999999999964
20
-29.3125999999999998
40
1.0000450000979957
50
-179.99747902
51
-90.00080210
0
LINE
8
BLACK
6
CONTINUOUS
10
300.1664839999999685
20
-17.1476439999999997
11
300.1664839999999685
21
-106.8476439999999883
0
LINE
8
BLACK
6
CONTINUOUS
10
15.5164849999999994
20
-106.847645
11
15.5164869999999997
21
-17.1476450000000007
0
ARC
8
BLACK
10
174.8414999999999964
20
-17.3125999999999998
40
0.9999550000845038
50
-0.00257835
51
90.00074488
0
LINE
8
BLACK
6
CONTINUOUS
10
298.1664839999999685
20
-108.8476439999999883
11
17.5164860000000004
21
-108.847645
0
LINE
8
BLACK
6
CONTINUOUS
10
175.8414850000000058
20
-17.3126449999999998
11
175.8414839999999799
21
-29.3126449999999998
0
ARC
8
BLACK
10
17.5165000000000006
20
-106.8475999999999999
40
2.0000450000489991
50
-179.99871085
51
-90.00040106
0
LINE
8
BLACK
6
CONTINUOUS
10
143.8414870000000008
20
-16.3126460000000009
11
174.8414870000000008
21
-16.3126449999999998
0
LINE
8
BLACK
6
CONTINUOUS
10
282.8158229999999662
20
-82.8819489999999917
11
295.6893089999999802
21
-81.0726980000000026
0
LINE
8
BLACK
6
CONTINUOUS
10
284.1995269999999891
20
-96.3201549999999997
11
282.3902759999999716
21
-83.446669
0
LINE
8
BLACK
6
CONTINUOUS
10
296.2540290000000027
20
-81.4982449999999972
11
298.0632799999999634
21
-94.3717309999999969
0
LINE
8
BLACK
6
CONTINUOUS
10
297.6377329999999688
20
-94.936450999999991
11
284.7642470000000117
21
-96.7457019999999943
0
ARC
8
BLACK
10
282.885407999999984
20
-83.3770809999999898
40
0.4999981871647136
50
-262.00014350
51
-171.99980307
0
ARC
8
BLACK
10
284.6946590000000015
20
-96.2505699999999962
40
0.4999981871647136
50
-172.00014350
51
-81.99980307
0
ARC
8
BLACK
10
295.7588949999999954
20
-81.5678319999999957
40
0.4999998893519877
50
8.00005156
51
97.99993808
0
ARC
8
BLACK
10
297.5652200000000107
20
-94.4406180000000006
40
0.5000353518752449
50
-81.99586868
51
8.00168120
0
LINE
8
BLACK
6
CONTINUOUS
10
277.5139419999999859
20
-45.1525439999999989
11
290.3874279999999999
21
-43.3432929999999956
0
LINE
8
BLACK
6
CONTINUOUS
10
278.8976460000000088
20
-58.5907499999999999
11
277.0883949999999913
21
-45.7172640000000001
0
LINE
8
BLACK
6
CONTINUOUS
10
290.9521479999999656
20
-43.7688399999999973
11
292.7613989999999831
21
-56.6423259999999971
0
LINE
8
BLACK
6
CONTINUOUS
10
292.3358519999999885
20
-57.2070459999999983
11
279.4623659999999745
21
-59.0162969999999945
0
ARC
8
BLACK
10
277.5835270000000037
20
-45.647675999999997
40
0.4999981871647136
50
-262.00014350
51
-171.99980307
0
ARC
8
BLACK
10
279.3927779999999643
20
-58.5211649999999963
40
0.4999981871647136
50
-172.00014350
51
-81.99980307
0
ARC
8
BLACK
10
290.4570140000000151
20
-43.8384269999999958
40
0.4999998893519877
50
8.00005156
51
97.99993808
0
ARC
8
BLACK
10
292.2633389999999736
20
-56.7112130000000008
40
0.5000353518752449
50
-81.99586868
51
8.00168120
0
LINE
8
BLACK
6
CONTINUOUS
10
169.8880800000000022
20
-106.6472949999999997
11
169.8880819999999972
21
-93.6472940000000023
0
LINE
8
BLACK
6
CONTINUOUS
10
170.3880800000000022
20
-93.1472929999999906
11
183.3880809999999997
21
-93.1472949999999997
0
LINE
8
BLACK
6
CONTINUOUS
10
183.3880819999999972
20
-107.1472949999999997
11
170.3880809999999997
21
-107.1472929999999906
0
LINE
8
BLACK
6
CONTINUOUS
10
183.8880819999999972
20
-93.6472929999999906
11
183.8880800000000022
21
-106.6472940000000023
0
ARC
8
BLACK
10
170.3880849999999896
20
-93.6472959999999972
40
0.500003000004
50
90.00057295
51
179.99977082
0
ARC
8
BLACK
10
170.3880829999999946
20
-106.6472899999999981
40
0.500003000004
50
-179.99942705
51
-90.00022918
0
ARC
8
BLACK
10
183.3880809999999997
20
-93.6472940000000023
40
0.499999
50
0.00011459
51
90.00000000
0
ARC
8
BLACK
10
183.3853110000000015
20
-106.646174000000002
40
0.5000070000159997
50
-89.99931246
51
-0.00045836
0
LINE
8
BLACK
6
CONTINUOUS
10
203.1332349999999849
20
-63.421441999999999
11
216.0067209999999989
21
-61.6121909999999957
0
LINE
8
BLACK
6
CONTINUOUS
10
204.5169389999999794
20
-76.8596479999999929
11
202.7076879999999903
21
-63.9861620000000002
0
LINE
8
BLACK
6
CONTINUOUS
10
216.571440999999993
20
-62.0377379999999974
11
218.380691999999982
21
-74.91122399999999
0
LINE
8
BLACK
6
CONTINUOUS
10
217.9551449999999875
20
-75.4759439999999984
11
205.0816590000000019
21
-77.2851950000000016
0
ARC
8
BLACK
10
203.2028200000000027
20
-63.9165739999999971
40
0.4999981871647136
50
-262.00014350
51
-171.99980307
0
ARC
8
BLACK
10
205.0120709999999917
20
-76.7900630000000035
40
0.4999981871647136
50
-172.00014350
51
-81.99980307
0
ARC
8
BLACK
10
216.0763069999999857
20
-62.1073249999999959
40
0.4999998893519877
50
8.00005156
51
97.99993808
0
ARC
8
BLACK
10
217.882632000000001
20
-74.9801109999999937
40
0.5000353518752449
50
-81.99586868
51
8.00168120
0
LINE
8
BLACK
6
CONTINUOUS
10
150.8382049999999879
20
-106.6472949999999997
11
150.8382069999999828
21
-93.6472940000000023
0
LINE
8
BLACK
6
CONTINUOUS
10
151.3382049999999879
20
-93.1472929999999906
11
164.3382059999999854
21
-93.1472949999999997
0
LINE
8
BLACK
6
CONTINUOUS
10
164.3382069999999828
20
-107.1472949999999997
11
151.3382059999999854
21
-107.1472929999999906
0
LINE
8
BLACK
6
CONTINUOUS
10
164.8382069999999828
20
-93.6472929999999906
11
164.8382049999999879
21
-106.6472940000000023
0
ARC
8
BLACK
10
151.3382100000000037
20
-93.6472959999999972
40
0.500003000004
50
90.00057295
51
179.99977082
0
ARC
8
BLACK
10
151.3382079999999803
20
-106.6472899999999981
40
0.500003000004
50
-179.99942705
51
-90.00022918
0
ARC
8
BLACK
10
164.3382059999999854
20
-93.6472940000000023
40
0.499999
50
0.00011459
51
90.00000000
0
ARC
8
BLACK
10
164.3354359999999872
20
-106.646174000000002
40
0.5000070000159997
50
-89.99931246
51
-0.00045836
0
LINE
8
BLACK
6
CONTINUOUS
10
131.7882040000000075
20
-106.6472949999999997
11
131.7882060000000024
21
-93.6472940000000023
0
LINE
8
BLACK
6
CONTINUOUS
10
132.2882040000000075
20
-93.1472929999999906
11
145.2882050000000049
21
-93.1472949999999997
0
LINE
8
BLACK
6
CONTINUOUS
10
145.2882060000000024
20
-107.1472949999999997
11
132.2882050000000049
21
-107.1472929999999906
0
LINE
8
BLACK
6
CONTINUOUS
10
145.7882060000000024
20
-93.6472929999999906
11
145.7882040000000075
21
-106.6472940000000023
0
ARC
8
BLACK
10
132.2882089999999948
20
-93.6472959999999972
40
0.500003000004
50
90.00057295
51
179.99977082
0
ARC
8
BLACK
10
132.2882069999999999
20
-106.6472899999999981
40
0.500003000004
50
-179.99942705
51
-90.00022918
0
ARC
8
BLACK
10
145.2882050000000049
20
-93.6472940000000023
40
0.499999
50
0.00011459
51
90.00000000
0
ARC
8
BLACK
10
145.2854350000000068
20
-106.646174000000002
40
0.5000070000159997
50
-89.99931246
51
-0.00045836
0
LINE
8
BLACK
6
CONTINUOUS
10
150.8385879999999872
20
-85.5729939999999942
11
150.8385899999999822
21
-72.5729929999999968
0
LINE
8
BLACK
6
CONTINUOUS
10
151.3385879999999872
20
-72.0729919999999993
11
164.3385889999999847
21
-72.0729939999999942
0
LINE
8
BLACK
6
CONTINUOUS
10
164.3385899999999822
20
-86.0729939999999942
11
151.3385889999999847
21
-86.0729919999999993
0
LINE
8
BLACK
6
CONTINUOUS
10
164.8385899999999822
20
-72.5729919999999993
11
164.8385879999999872
21
-85.5729929999999968
0
ARC
8
BLACK
10
151.338593000000003
20
-72.5729949999999917
40
0.500003000004
50
90.00057295
51
179.99977082
0
ARC
8
BLACK
10
151.3385909999999797
20
-85.5729889999999926
40
0.500003000004
50
-179.99942705
51
-90.00022918
0
ARC
8
BLACK
10
164.3385889999999847
20
-72.5729929999999968
40
0.499999
50
0.00011459
51
90.00000000
0
ARC
8
BLACK
10
164.3358189999999865
20
-85.5718729999999965
40
0.5000070000159997
50
-89.99931246
51
-0.00045836
0
LINE
8
BLACK
6
CONTINUOUS
10
122.2632049999999992
20
-106.6472959999999972
11
122.2632079999999917
21
-93.6472940000000023
0
LINE
8
BLACK
6
CONTINUOUS
10
122.7632039999999876
20
-93.1472929999999906
11
135.7632059999999967
21
-93.1472959999999972
0
LINE
8
BLACK
6
CONTINUOUS
10
135.7632079999999917
20
-107.1472949999999997
11
122.7632059999999967
21
-107.1472919999999931
0
LINE
8
BLACK
6
CONTINUOUS
10
136.2632069999999942
20
-93.6472919999999931
11
136.2632040000000018
21
-106.6472940000000023
0
ARC
8
BLACK
10
122.7632089999999891
20
-93.6472940000000023
40
0.500001
50
90.00057296
51
180.00000000
0
ARC
8
BLACK
10
122.7632059999999967
20
-106.6472909999999956
40
0.500001
50
-179.99942704
51
-90.00000000
0
ARC
8
BLACK
10
135.7632059999999967
20
-93.6472940000000023
40
0.499998
50
0.00022918
51
90.00000000
0
ARC
8
BLACK
10
135.7604359999999986
20
-106.646174000000002
40
0.5000080000159998
50
-89.99931246
51
-0.00045836
0
LINE
8
BLACK
6
CONTINUOUS
10
62.226149999999997
20
-50.7864349999999973
11
64.0354009999999931
21
-37.9129489999999976
0
LINE
8
BLACK
6
CONTINUOUS
10
64.600120000000004
20
-37.4874009999999984
11
77.4736059999999895
21
-39.2966520000000017
0
LINE
8
BLACK
6
CONTINUOUS
10
75.5251839999999959
20
-53.1604049999999972
11
62.6516979999999961
21
-51.3511540000000011
0
LINE
8
BLACK
6
CONTINUOUS
10
77.8991539999999958
20
-39.8613709999999983
11
76.0899029999999925
21
-52.7348569999999981
0
ARC
8
BLACK
10
62.7212899999999962
20
-50.8560159999999968
40
0.5000046854860463
50
-187.99927502
51
-98.00055514
0
ARC
8
BLACK
10
64.5305389999999903
20
-37.9825409999999977
40
0.5000046854860463
50
82.00072498
51
171.99944486
0
ARC
8
BLACK
10
75.5921499999999895
20
-52.6637920000000008
40
0.5000359889137981
50
-97.99591475
51
-7.99808395
0
ARC
8
BLACK
10
77.4040200000000027
20
-39.7917859999999948
40
0.4999998893519877
50
-7.99982461
51
82.00006192
0
LINE
8
BLACK
6
CONTINUOUS
10
25.5739529999999995
20
-37.8202339999999992
11
27.3832039999999992
21
-24.9467479999999995
0
LINE
8
BLACK
6
CONTINUOUS
10
27.9479229999999994
20
-24.5212000000000003
11
40.8214089999999956
21
-26.3304510000000001
0
LINE
8
BLACK
6
CONTINUOUS
10
38.8729869999999949
20
-40.1942039999999992
11
25.9995009999999986
21
-38.3849529999999959
0
LINE
8
BLACK
6
CONTINUOUS
10
41.2469569999999948
20
-26.8951700000000002
11
39.4377059999999986
21
-39.768656
0
ARC
8
BLACK
10
26.0690929999999987
20
-37.8898149999999987
40
0.5000046854860463
50
-187.99927502
51
-98.00055514
0
ARC
8
BLACK
10
27.878342
20
-25.0163399999999996
40
0.5000046854860463
50
82.00072498
51
171.99944486
0
ARC
8
BLACK
10
38.9399529999999956
20
-39.6975909999999956
40
0.5000359889137981
50
-97.99591475
51
-7.99808395
0
ARC
8
BLACK
10
40.7518230000000017
20
-26.8255850000000002
40
0.4999998893519877
50
-7.99982461
51
82.00006192
0
LINE
8
BLACK
6
CONTINUOUS
10
179.2969410000000039
20
-30.7014429999999976
11
192.1704269999999894
21
-28.8921919999999979
0
LINE
8
BLACK
6
CONTINUOUS
10
180.6806449999999984
20
-44.1396489999999986
11
178.8713939999999809
21
-31.2661629999999988
0
LINE
8
BLACK
6
CONTINUOUS
10
192.7351469999999836
20
-29.3177389999999995
11
194.544398000000001
21
-42.1912249999999958
0
LINE
8
BLACK
6
CONTINUOUS
10
194.1188509999999781
20
-42.755944999999997
11
181.2453649999999925
21
-44.5651960000000003
0
ARC
8
BLACK
10
179.3665259999999932
20
-31.1965749999999993
40
0.4999981871647136
50
-262.00014350
51
-171.99980307
0
ARC
8
BLACK
10
181.1757769999999823
20
-44.070063999999995
40
0.4999981871647136
50
-172.00014350
51
-81.99980307
0
ARC
8
BLACK
10
192.2400130000000047
20
-29.3873259999999981
40
0.4999998893519877
50
8.00005156
51
97.99993808
0
ARC
8
BLACK
10
194.0463379999999916
20
-42.2601119999999995
40
0.5000353518752449
50
-81.99586868
51
8.00168120
0
LINE
8
BLACK
6
CONTINUOUS
10
20.2717150000000004
20
-75.5490259999999978
11
22.0809660000000001
21
-62.675539999999998
0
LINE
8
BLACK
6
CONTINUOUS
10
22.6456850000000003
20
-62.2499919999999989
11
35.519171
21
-64.059242999999995
0
LINE
8
BLACK
6
CONTINUOUS
10
33.5707489999999993
20
-77.9229959999999977
11
20.6972629999999995
21
-76.1137449999999944
0
LINE
8
BLACK
6
CONTINUOUS
10
35.9447189999999992
20
-64.6239619999999917
11
34.1354679999999959
21
-77.4974479999999915
0
ARC
8
BLACK
10
20.7668549999999996
20
-75.6186069999999972
40
0.5000046854860463
50
-187.99927502
51
-98.00055514
0
ARC
8
BLACK
10
22.5761039999999973
20
-62.7451319999999981
40
0.5000046854860463
50
82.00072498
51
171.99944486
0
ARC
8
BLACK
10
33.637715
20
-77.4263830000000013
40
0.5000359889137981
50
-97.99591475
51
-7.99808395
0
ARC
8
BLACK
10
35.449584999999999
20
-64.5543770000000023
40
0.4999998893519877
50
-7.99982461
51
82.00006192
0
LINE
8
BLACK
6
CONTINUOUS
10
41.787351000000001
20
-59.3361349999999987
11
43.5966019999999972
21
-46.462648999999999
0
LINE
8
BLACK
6
CONTINUOUS
10
44.1613210000000009
20
-46.0371009999999998
11
57.0348070000000007
21
-47.846351999999996
0
LINE
8
BLACK
6
CONTINUOUS
10
55.0863849999999999
20
-61.7101049999999987
11
42.2128990000000002
21
-59.9008539999999954
0
LINE
8
BLACK
6
CONTINUOUS
10
57.4603549999999998
20
-48.4110709999999997
11
55.6511039999999966
21
-61.2845569999999995
0
ARC
8
BLACK
10
42.2824910000000003
20
-59.4057159999999982
40
0.5000046854860463
50
-187.99927502
51
-98.00055514
0
ARC
8
BLACK
10
44.0917400000000015
20
-46.5322409999999991
40
0.5000046854860463
50
82.00072498
51
171.99944486
0
ARC
8
BLACK
10
55.1533510000000007
20
-61.2134919999999951
40
0.5000359889137981
50
-97.99591475
51
-7.99808395
0
ARC
8
BLACK
10
56.9652209999999997
20
-48.3414859999999962
40
0.4999998893519877
50
-7.99982461
51
82.00006192
0
LINE
8
BLACK
6
CONTINUOUS
10
258.6500599999999963
20
-47.8035409999999956
11
271.5235460000000103
21
-45.9942899999999995
0
LINE
8
BLACK
6
CONTINUOUS
10
260.0337639999999624
20
-61.2417469999999966
11
258.2245130000000017
21
-48.3682609999999968
0
LINE
8
BLACK
6
CONTINUOUS
10
272.088265999999976
20
-46.4198370000000011
11
273.8975169999999935
21
-59.2933229999999938
0
LINE
8
BLACK
6
CONTINUOUS
10
273.4719699999999989
20
-59.858042999999995
11
260.5984839999999849
21
-61.6672939999999983
0
ARC
8
BLACK
10
258.7196450000000141
20
-48.2986730000000009
40
0.4999981871647136
50
-262.00014350
51
-171.99980307
0
ARC
8
BLACK
10
260.5288959999999747
20
-61.1721620000000001
40
0.4999981871647136
50
-172.00014350
51
-81.99980307
0
ARC
8
BLACK
10
271.5931319999999687
20
-46.4894239999999996
40
0.4999998893519877
50
8.00005156
51
97.99993808
0
ARC
8
BLACK
10
273.399456999999984
20
-59.3622099999999975
40
0.5000353518752449
50
-81.99586868
51
8.00168120
0
LINE
8
BLACK
6
CONTINUOUS
10
102.6066519999999969
20
-37.2244339999999951
11
104.4159030000000001
21
-24.3509479999999989
0
LINE
8
BLACK
6
CONTINUOUS
10
104.9806219999999968
20
-23.9253999999999998
11
117.8541079999999965
21
-25.7346509999999995
0
LINE
8
BLACK
6
CONTINUOUS
10
115.9056859999999887
20
-39.5984039999999951
11
103.0321999999999889
21
-37.7891529999999989
0
LINE
8
BLACK
6
CONTINUOUS
10
118.2796559999999886
20
-26.2993699999999997
11
116.4704049999999995
21
-39.1728559999999959
0
ARC
8
BLACK
10
103.101791999999989
20
-37.2940150000000017
40
0.5000046854860463
50
-187.99927502
51
-98.00055514
0
ARC
8
BLACK
10
104.9110409999999973
20
-24.420539999999999
40
0.5000046854860463
50
82.00072498
51
171.99944486
0
ARC
8
BLACK
10
115.9726519999999965
20
-39.1017909999999986
40
0.5000359889137981
50
-97.99591475
51
-7.99808395
0
ARC
8
BLACK
10
117.7845219999999955
20
-26.2297849999999997
40
0.4999998893519877
50
-7.99982461
51
82.00006192
0
LINE
8
BLACK
6
CONTINUOUS
10
240.8622359999999958
20
-58.1184449999999941
11
253.7357219999999813
21
-56.309193999999998
0
LINE
8
BLACK
6
CONTINUOUS
10
242.2459399999999903
20
-71.5566510000000022
11
240.4366890000000012
21
-58.6831649999999954
0
LINE
8
BLACK
6
CONTINUOUS
10
254.3004419999999755
20
-56.7347409999999996
11
256.1096929999999929
21
-69.6082269999999994
0
LINE
8
BLACK
6
CONTINUOUS
10
255.6841459999999984
20
-70.1729469999999935
11
242.8106599999999844
21
-71.9821979999999968
0
ARC
8
BLACK
10
240.9318209999999851
20
-58.6135769999999994
40
0.4999981871647136
50
-262.00014350
51
-171.99980307
0
ARC
8
BLACK
10
242.7410720000000026
20
-71.4870659999999987
40
0.4999981871647136
50
-172.00014350
51
-81.99980307
0
ARC
8
BLACK
10
253.8053079999999966
20
-56.8043279999999982
40
0.4999998893519877
50
8.00005156
51
97.99993808
0
ARC
8
BLACK
10
255.6116329999999834
20
-69.6771140000000031
40
0.5000353518752449
50
-81.99586868
51
8.00168120
0
LINE
8
BLACK
6
CONTINUOUS
10
181.9480590000000007
20
-49.5658409999999989
11
194.8215449999999862
21
-47.7565899999999957
0
LINE
8
BLACK
6
CONTINUOUS
10
183.3317629999999951
20
-63.0040469999999999
11
181.5225119999999777
21
-50.1305610000000001
0
LINE
8
BLACK
6
CONTINUOUS
10
195.3862649999999803
20
-48.1821369999999973
11
197.1955159999999978
21
-61.0556229999999971
0
LINE
8
BLACK
6
CONTINUOUS
10
196.7699690000000032
20
-61.6203429999999983
11
183.8964829999999893
21
-63.4295939999999945
0
ARC
8
BLACK
10
182.01764399999999
20
-50.0609729999999971
40
0.4999981871647136
50
-262.00014350
51
-171.99980307
0
ARC
8
BLACK
10
183.8268949999999791
20
-62.9344619999999964
40
0.4999981871647136
50
-172.00014350
51
-81.99980307
0
ARC
8
BLACK
10
194.8911310000000014
20
-48.2517239999999958
40
0.4999998893519877
50
8.00005156
51
97.99993808
0
ARC
8
BLACK
10
196.6974559999999883
20
-61.1245100000000008
40
0.5000353518752449
50
-81.99586868
51
8.00168120
0
LINE
8
BLACK
6
CONTINUOUS
10
142.5580400000000054
20
-105.6472929999999906
11
142.5568289999999934
21
-92.6472959999999972
0
LINE
8
BLACK
6
CONTINUOUS
10
148.8068260000000009
20
-92.1472929999999906
11
143.0568289999999934
21
-92.1472929999999906
0
LINE
8
BLACK
6
CONTINUOUS
10
148.8068289999999934
20
-106.1472929999999906
11
143.0580400000000054
21
-106.1472949999999997
0
LINE
8
BLACK
6
CONTINUOUS
10
149.3068309999999883
20
-105.6472929999999906
11
149.3068289999999934
21
-92.6472929999999906
0
LINE
8
BLACK
6
CONTINUOUS
10
166.3693309999999883
20
-105.6472929999999906
11
166.3693289999999934
21
-92.6472929999999906
0
LINE
8
BLACK
6
CONTINUOUS
10
172.6193289999999934
20
-92.1472929999999906
11
166.8693289999999934
21
-92.1472959999999972
0
LINE
8
BLACK
6
CONTINUOUS
10
172.6193289999999934
20
-106.1472929999999906
11
166.8693289999999934
21
-106.1472929999999906
0
LINE
8
BLACK
6
CONTINUOUS
10
173.1193289999999934
20
-105.6472929999999906
11
173.1193289999999934
21
-92.6472909999999956
0
ARC
8
BLACK
10
143.0568789999999808
20
-92.6472940000000023
40
0.5000500000039996
50
-269.99427043
51
-179.99977084
0
ARC
8
BLACK
10
143.0580789999999922
20
-105.6472940000000023
40
0.5000010015209969
50
-180.00011458
51
-90.00446906
0
ARC
8
BLACK
10
148.8067790000000059
20
-92.6472940000000023
40
0.5000010022089956
50
0.00011458
51
89.99461421
0
ARC
8
BLACK
10
148.8067790000000059
20
-105.6472940000000023
40
0.5000520000009999
50
-89.99427041
51
0.00011458
0
ARC
8
BLACK
10
166.8693250000000035
20
-92.6472919999999931
40
0.499996000001
50
-270.00045837
51
-179.99988541
0
ARC
8
BLACK
10
166.8693289999999934
20
-105.6472949999999997
40
0.499998
50
-180.00022918
51
-90.00000000
0
ARC
8
BLACK
10
172.6193279999999959
20
-92.6472940000000023
40
0.500001000001
50
0.00034377
51
89.99988541
0
ARC
8
BLACK
10
172.6193279999999959
20
-105.6472919999999931
40
0.500001000001
50
-89.99988541
51
-0.00011459
0
LINE
8
BLACK
6
CONTINUOUS
10
36.4851339999999951
20
-97.0651319999999913
11
38.2943849999999983
21
-84.1916459999999915
0
LINE
8
BLACK
6
CONTINUOUS
10
38.859103999999995
20
-83.7660979999999995
11
51.7325899999999947
21
-85.5753490000000028
0
LINE
8
BLACK
6
CONTINUOUS
10
49.7841680000000011
20
-99.4391019999999912
11
36.9106820000000013
21
-97.6298510000000022
0
LINE
8
BLACK
6
CONTINUOUS
10
52.158138000000001
20
-86.1400679999999994
11
50.3488869999999977
21
-99.0135539999999992
0
ARC
8
BLACK
10
36.9802740000000014
20
-97.1347129999999908
40
0.5000046854860463
50
-187.99927502
51
-98.00055514
0
ARC
8
BLACK
10
38.7895229999999955
20
-84.2612379999999916
40
0.5000046854860463
50
82.00072498
51
171.99944486
0
ARC
8
BLACK
10
49.8511339999999947
20
-98.9424889999999948
40
0.5000359889137981
50
-97.99591475
51
-7.99808395
0
ARC
8
BLACK
10
51.6630040000000008
20
-86.0704829999999959
40
0.4999998893519877
50
-7.99982461
51
82.00006192
0
LINE
8
BLACK
6
CONTINUOUS
10
84.1637059999999906
20
-97.9080969999999979
11
84.1637089999999972
21
-84.908095000000003
0
LINE
8
BLACK
6
CONTINUOUS
10
84.6637049999999931
20
-84.4080939999999913
11
97.6637070000000023
21
-84.4080969999999979
0
LINE
8
BLACK
6
CONTINUOUS
10
97.6637089999999972
20
-98.4080960000000005
11
84.6637070000000023
21
-98.4080929999999938
0
LINE
8
BLACK
6
CONTINUOUS
10
98.1637079999999997
20
-84.9080929999999938
11
98.1637049999999931
21
-97.9080949999999888
0
ARC
8
BLACK
10
84.6637099999999947
20
-84.908095000000003
40
0.500001
50
90.00057296
51
180.00000000
0
ARC
8
BLACK
10
84.6637070000000023
20
-97.9080919999999963
40
0.500001
50
-179.99942704
51
-90.00000000
0
ARC
8
BLACK
10
97.6637070000000023
20
-84.908095000000003
40
0.499998
50
0.00022918
51
90.00000000
0
ARC
8
BLACK
10
97.6609369999999899
20
-97.9069749999999885
40
0.5000080000159998
50
-89.99931246
51
-0.00045836
0
LINE
8
BLACK
6
CONTINUOUS
10
59.5750499999999974
20
-69.6512349999999998
11
61.3843010000000007
21
-56.777749
0
LINE
8
BLACK
6
CONTINUOUS
10
61.9490199999999973
20
-56.3522010000000009
11
74.82250599999999
21
-58.161451999999997
0
LINE
8
BLACK
6
CONTINUOUS
10
72.8740839999999963
20
-72.0252049999999997
11
60.0005979999999965
21
-70.2159539999999964
0
LINE
8
BLACK
6
CONTINUOUS
10
75.2480539999999962
20
-58.7261710000000008
11
73.4388029999999929
21
-71.5996569999999934
0
ARC
8
BLACK
10
60.0701899999999966
20
-69.7208159999999992
40
0.5000046854860463
50
-187.99927502
51
-98.00055514
0
ARC
8
BLACK
10
61.8794389999999979
20
-56.8473410000000001
40
0.5000046854860463
50
82.00072498
51
171.99944486
0
ARC
8
BLACK
10
72.94104999999999
20
-71.5285920000000033
40
0.5000359889137981
50
-97.99591475
51
-7.99808395
0
ARC
8
BLACK
10
74.7529200000000031
20
-58.6565859999999972
40
0.4999998893519877
50
-7.99982461
51
82.00006192
0
LINE
8
BLACK
6
CONTINUOUS
10
238.2110600000000034
20
-39.2536409999999947
11
251.0845459999999889
21
-37.4443899999999985
0
LINE
8
BLACK
6
CONTINUOUS
10
239.5947639999999978
20
-52.6918469999999957
11
237.7855129999999804
21
-39.8183609999999959
0
LINE
8
BLACK
6
CONTINUOUS
10
251.649265999999983
20
-37.8699370000000002
11
253.4585170000000005
21
-50.7434229999999999
0
LINE
8
BLACK
6
CONTINUOUS
10
253.0329699999999775
20
-51.3081430000000012
11
240.159483999999992
21
-53.1173939999999973
0
ARC
8
BLACK
10
238.2806449999999927
20
-39.7487729999999999
40
0.4999981871647136
50
-262.00014350
51
-171.99980307
0
ARC
8
BLACK
10
240.0898959999999818
20
-52.6222619999999992
40
0.4999981871647136
50
-172.00014350
51
-81.99980307
0
ARC
8
BLACK
10
251.1541319999999757
20
-37.9395239999999987
40
0.4999998893519877
50
8.00005156
51
97.99993808
0
ARC
8
BLACK
10
252.960456999999991
20
-50.8123099999999965
40
0.5000353518752449
50
-81.99586868
51
8.00168120
0
LINE
8
BLACK
6
CONTINUOUS
10
81.5880539999999996
20
-49.9006350000000012
11
83.3973050000000029
21
-37.0271490000000014
0
LINE
8
BLACK
6
CONTINUOUS
10
83.9620239999999995
20
-36.6016009999999952
11
96.8355099999999993
21
-38.4108519999999984
0
LINE
8
BLACK
6
CONTINUOUS
10
94.8870879999999914
20
-52.2746050000000011
11
82.0136019999999917
21
-50.4653539999999978
0
LINE
8
BLACK
6
CONTINUOUS
10
97.2610579999999914
20
-38.9755709999999951
11
95.4518070000000023
21
-51.8490569999999948
0
ARC
8
BLACK
10
82.0831939999999918
20
-49.9702160000000006
40
0.5000046854860463
50
-187.99927502
51
-98.00055514
0
ARC
8
BLACK
10
83.8924430000000001
20
-37.0967410000000015
40
0.5000046854860463
50
82.00072498
51
171.99944486
0
ARC
8
BLACK
10
94.9540539999999993
20
-51.7779919999999976
40
0.5000359889137981
50
-97.99591475
51
-7.99808395
0
ARC
8
BLACK
10
96.7659239999999983
20
-38.9059859999999986
40
0.4999998893519877
50
-7.99982461
51
82.00006192
0
LINE
8
BLACK
6
CONTINUOUS
10
118.4885799999999989
20
-61.0978019999999944
11
120.297830999999988
21
-48.2243159999999946
0
LINE
8
BLACK
6
CONTINUOUS
10
120.8625499999999988
20
-47.7987679999999955
11
133.7360359999999844
21
-49.6080189999999988
0
LINE
8
BLACK
6
CONTINUOUS
10
131.7876139999999907
20
-63.4717719999999943
11
118.9141279999999909
21
-61.6625209999999981
0
LINE
8
BLACK
6
CONTINUOUS
10
134.1615840000000048
20
-50.1727379999999954
11
132.3523329999999874
21
-63.0462239999999952
0
ARC
8
BLACK
10
118.983719999999991
20
-61.1673829999999938
40
0.5000046854860463
50
-187.99927502
51
-98.00055514
0
ARC
8
BLACK
10
120.7929689999999994
20
-48.2939079999999947
40
0.5000046854860463
50
82.00072498
51
171.99944486
0
ARC
8
BLACK
10
131.8545799999999986
20
-62.9751589999999979
40
0.5000359889137981
50
-97.99591475
51
-7.99808395
0
ARC
8
BLACK
10
133.6664499999999975
20
-50.1031529999999989
40
0.4999998893519877
50
-7.99982461
51
82.00006192
0
LINE
8
BLACK
6
CONTINUOUS
10
184.5992349999999931
20
-68.4306440000000009
11
197.4727209999999786
21
-66.6213929999999976
0
LINE
8
BLACK
6
CONTINUOUS
10
185.9829389999999876
20
-81.8688499999999948
11
184.1736879999999985
21
-68.995363999999995
0
LINE
8
BLACK
6
CONTINUOUS
10
198.0374410000000012
20
-67.0469399999999922
11
199.8466919999999902
21
-79.920425999999992
0
LINE
8
BLACK
6
CONTINUOUS
10
199.4211449999999957
20
-80.4851460000000003
11
186.5476589999999817
21
-82.2943969999999894
0
ARC
8
BLACK
10
184.6688199999999824
20
-68.925775999999999
40
0.4999981871647136
50
-262.00014350
51
-171.99980307
0
ARC
8
BLACK
10
186.4780709999999999
20
-81.7992649999999912
40
0.4999981871647136
50
-172.00014350
51
-81.99980307
0
ARC
8
BLACK
10
197.5423069999999939
20
-67.1165269999999907
40
0.4999998893519877
50
8.00005156
51
97.99993808
0
ARC
8
BLACK
10
199.3486319999999807
20
-79.9893129999999957
40
0.5000353518752449
50
-81.99586868
51
8.00168120
0
LINE
8
BLACK
6
CONTINUOUS
10
255.9989410000000021
20
-28.9391439999999989
11
268.8724270000000161
21
-27.1298929999999991
0
LINE
8
BLACK
6
CONTINUOUS
10
257.3826449999999681
20
-42.3773499999999999
11
255.5733939999999791
21
-29.5038640000000001
0
LINE
8
BLACK
6
CONTINUOUS
10
269.4371469999999817
20
-27.5554399999999973
11
271.2463979999999992
21
-40.428925999999997
0
LINE
8
BLACK
6
CONTINUOUS
10
270.8208510000000047
20
-40.9936459999999983
11
257.9473649999999907
21
-42.8028970000000015
0
ARC
8
BLACK
10
256.068525999999963
20
-29.434275999999997
40
0.4999981871647136
50
-262.00014350
51
-171.99980307
0
ARC
8
BLACK
10
257.8777769999999805
20
-42.3077649999999963
40
0.4999981871647136
50
-172.00014350
51
-81.99980307
0
ARC
8
BLACK
10
268.9420129999999745
20
-27.6250269999999993
40
0.4999998893519877
50
8.00005156
51
97.99993808
0
ARC
8
BLACK
10
270.7483379999999897
20
-40.4978130000000007
40
0.5000353518752449
50
-81.99586868
51
8.00168120
0
LINE
8
BLACK
6
CONTINUOUS
10
197.8309409999999957
20
-25.6922459999999973
11
210.7044269999999813
21
-23.8829949999999975
0
LINE
8
BLACK
6
CONTINUOUS
10
199.2146449999999902
20
-39.1304519999999982
11
197.4053940000000011
21
-26.2569659999999985
0
LINE
8
BLACK
6
CONTINUOUS
10
211.2691470000000038
20
-24.3085419999999992
11
213.0783979999999929
21
-37.1820279999999954
0
LINE
8
BLACK
6
CONTINUOUS
10
212.6528509999999983
20
-37.7467479999999966
11
199.7793649999999843
21
-39.5559989999999999
0
ARC
8
BLACK
10
197.9005259999999851
20
-26.1873779999999989
40
0.4999981871647136
50
-262.00014350
51
-171.99980307
0
ARC
8
BLACK
10
199.7097770000000025
20
-39.0608670000000018
40
0.4999981871647136
50
-172.00014350
51
-81.99980307
0
ARC
8
BLACK
10
210.7740129999999965
20
-24.3781289999999977
40
0.4999998893519877
50
8.00005156
51
97.99993808
0
ARC
8
BLACK
10
212.5803379999999834
20
-37.2509149999999991
40
0.5000353518752449
50
-81.99586868
51
8.00168120
0
LINE
8
BLACK
6
CONTINUOUS
10
97.3046519999999902
20
-74.9537349999999947
11
99.1139029999999934
21
-62.0802489999999949
0
LINE
8
BLACK
6
CONTINUOUS
10
99.6786219999999901
20
-61.6547009999999958
11
112.5521079999999898
21
-63.463951999999999
0
LINE
8
BLACK
6
CONTINUOUS
10
110.6036859999999962
20
-77.3277049999999946
11
97.7301999999999964
21
-75.5184539999999913
0
LINE
8
BLACK
6
CONTINUOUS
10
112.9776559999999961
20
-64.0286710000000028
11
111.1684049999999928
21
-76.9021570000000025
0
ARC
8
BLACK
10
97.7997919999999965
20
-75.0233159999999941
40
0.5000046854860463
50
-187.99927502
51
-98.00055514
0
ARC
8
BLACK
10
99.6090409999999906
20
-62.149840999999995
40
0.5000046854860463
50
82.00072498
51
171.99944486
0
ARC
8
BLACK
10
110.6706519999999898
20
-76.8310919999999982
40
0.5000359889137981
50
-97.99591475
51
-7.99808395
0
ARC
8
BLACK
10
112.4825219999999888
20
-63.9590859999999992
40
0.4999998893519877
50
-7.99982461
51
82.00006192
0
LINE
8
BLACK
6
CONTINUOUS
10
17.6202529999999982
20
-94.4141350000000017
11
19.4295039999999979
21
-81.5406490000000019
0
LINE
8
BLACK
6
CONTINUOUS
10
19.9942229999999981
20
-81.1151009999999957
11
32.8677089999999978
21
-82.924351999999999
0
LINE
8
BLACK
6
CONTINUOUS
10
30.9192869999999971
20
-96.7881050000000016
11
18.0458010000000009
21
-94.9788539999999983
0
LINE
8
BLACK
6
CONTINUOUS
10
33.293256999999997
20
-83.4890709999999956
11
31.4840059999999973
21
-96.3625569999999954
0
ARC
8
BLACK
10
18.1153929999999974
20
-94.4837160000000011
40
0.5000046854860463
50
-187.99927502
51
-98.00055514
0
ARC
8
BLACK
10
19.9246419999999986
20
-81.610241000000002
40
0.5000046854860463
50
82.00072498
51
171.99944486
0
ARC
8
BLACK
10
30.9862529999999978
20
-96.291491999999991
40
0.5000359889137981
50
-97.99591475
51
-7.99808395
0
ARC
8
BLACK
10
32.7981229999999968
20
-83.419485999999992
40
0.4999998893519877
50
-7.99982461
51
82.00006192
0
LINE
8
BLACK
6
CONTINUOUS
10
200.4820599999999899
20
-44.5566399999999945
11
213.3555460000000039
21
-42.7473889999999983
0
LINE
8
BLACK
6
CONTINUOUS
10
201.8657639999999844
20
-57.9948459999999955
11
200.0565129999999954
21
-45.1213599999999957
0
LINE
8
BLACK
6
CONTINUOUS
10
213.920265999999998
20
-43.172936
11
215.7295169999999871
21
-56.0464219999999997
0
LINE
8
BLACK
6
CONTINUOUS
10
215.3039699999999925
20
-56.611142000000001
11
202.4304839999999786
21
-58.4203929999999971
0
ARC
8
BLACK
10
200.5516449999999793
20
-45.0517719999999997
40
0.4999981871647136
50
-262.00014350
51
-171.99980307
0
ARC
8
BLACK
10
202.3608959999999968
20
-57.925260999999999
40
0.4999981871647136
50
-172.00014350
51
-81.99980307
0
ARC
8
BLACK
10
213.4251319999999907
20
-43.2425229999999985
40
0.4999998893519877
50
8.00005156
51
97.99993808
0
ARC
8
BLACK
10
215.2314569999999776
20
-56.1153089999999963
40
0.5000353518752449
50
-81.99586868
51
8.00168120
0
LINE
8
BLACK
6
CONTINUOUS
10
22.9231139999999982
20
-56.6845309999999998
11
24.7323649999999979
21
-43.811045
0
LINE
8
BLACK
6
CONTINUOUS
10
25.2970839999999981
20
-43.3854970000000009
11
38.1705699999999979
21
-45.194747999999997
0
LINE
8
BLACK
6
CONTINUOUS
10
36.2221479999999971
20
-59.0585009999999997
11
23.3486619999999974
21
-57.2492499999999964
0
LINE
8
BLACK
6
CONTINUOUS
10
38.596117999999997
20
-45.7594670000000008
11
36.7868670000000009
21
-58.6329530000000005
0
ARC
8
BLACK
10
23.4182539999999975
20
-56.7541119999999992
40
0.5000046854860463
50
-187.99927502
51
-98.00055514
0
ARC
8
BLACK
10
25.2275029999999987
20
-43.8806370000000001
40
0.5000046854860463
50
82.00072498
51
171.99944486
0
ARC
8
BLACK
10
36.2891139999999979
20
-58.5618879999999962
40
0.5000359889137981
50
-97.99591475
51
-7.99808395
0
ARC
8
BLACK
10
38.1009839999999969
20
-45.6898819999999972
40
0.4999998893519877
50
-7.99982461
51
82.00006192
0
LINE
8
BLACK
6
CONTINUOUS
10
103.2137049999999903
20
-101.3846929999999986
11
103.2137079999999969
21
-88.3846909999999895
0
LINE
8
BLACK
6
CONTINUOUS
10
103.7137039999999928
20
-87.884689999999992
11
116.7137059999999877
21
-87.8846929999999986
0
LINE
8
BLACK
6
CONTINUOUS
10
116.7137079999999969
20
-101.8846920000000011
11
103.7137060000000019
21
-101.8846889999999945
0
LINE
8
BLACK
6
CONTINUOUS
10
117.2137069999999994
20
-88.3846889999999945
11
117.2137039999999928
21
-101.3846909999999895
0
ARC
8
BLACK
10
103.7137089999999944
20
-88.3846909999999895
40
0.500001
50
90.00057296
51
180.00000000
0
ARC
8
BLACK
10
103.7137060000000019
20
-101.384687999999997
40
0.500001
50
-179.99942704
51
-90.00000000
0
ARC
8
BLACK
10
116.7137059999999877
20
-88.3846909999999895
40
0.499998
50
0.00022918
51
90.00000000
0
ARC
8
BLACK
10
116.7109359999999896
20
-101.3835709999999892
40
0.5000080000159998
50
-89.99931246
51
-0.00045836
0
LINE
8
BLACK
6
CONTINUOUS
10
243.5139419999999859
20
-76.9834439999999915
11
256.3874279999999999
21
-75.1741930000000025
0
LINE
8
BLACK
6
CONTINUOUS
10
244.8976459999999804
20
-90.4216499999999996
11
243.0883949999999913
21
-77.5481639999999999
0
LINE
8
BLACK
6
CONTINUOUS
10
256.9521479999999656
20
-75.5997399999999971
11
258.7613989999999831
21
-88.4732259999999968
0
LINE
8
BLACK
6
CONTINUOUS
10
258.3358519999999885
20
-89.0379459999999909
11
245.4623660000000029
21
-90.8471969999999942
0
ARC
8
BLACK
10
243.5835269999999753
20
-77.4785759999999897
40
0.4999981871647136
50
-262.00014350
51
-171.99980307
0
ARC
8
BLACK
10
245.3927779999999927
20
-90.3520649999999961
40
0.4999981871647136
50
-172.00014350
51
-81.99980307
0
ARC
8
BLACK
10
256.4570140000000151
20
-75.6693269999999956
40
0.4999998893519877
50
8.00005156
51
97.99993808
0
ARC
8
BLACK
10
258.2633389999999736
20
-88.5421130000000005
40
0.5000353518752449
50
-81.99586868
51
8.00168120
0
LINE
8
BLACK
6
CONTINUOUS
10
235.5599409999999807
20
-20.3892439999999979
11
248.4334269999999947
21
-18.5799929999999982
0
LINE
8
BLACK
6
CONTINUOUS
10
236.9436449999999752
20
-33.8274499999999989
11
235.1343939999999861
21
-20.9539639999999991
0
LINE
8
BLACK
6
CONTINUOUS
10
248.9981469999999888
20
-19.0055399999999999
11
250.8073979999999779
21
-31.8790259999999996
0
LINE
8
BLACK
6
CONTINUOUS
10
250.3818509999999833
20
-32.4437459999999973
11
237.5083649999999977
21
-34.2529970000000006
0
ARC
8
BLACK
10
235.6295259999999985
20
-20.8843759999999996
40
0.4999981871647136
50
-262.00014350
51
-171.99980307
0
ARC
8
BLACK
10
237.4387769999999875
20
-33.7578649999999953
40
0.4999981871647136
50
-172.00014350
51
-81.99980307
0
ARC
8
BLACK
10
248.5030129999999815
20
-19.0751269999999984
40
0.4999998893519877
50
8.00005156
51
97.99993808
0
ARC
8
BLACK
10
250.3093379999999968
20
-31.9479129999999998
40
0.5000353518752449
50
-81.99586868
51
8.00168120
0
LINE
8
BLACK
6
CONTINUOUS
10
261.3012359999999603
20
-66.6683439999999905
11
274.1747219999999743
21
-64.8590930000000014
0
LINE
8
BLACK
6
CONTINUOUS
10
262.6849399999999832
20
-80.1065499999999986
11
260.8756889999999657
21
-67.2330639999999988
0
LINE
8
BLACK
6
CONTINUOUS
10
274.7394419999999968
20
-65.284639999999996
11
276.5486930000000143
21
-78.1581259999999958
0
LINE
8
BLACK
6
CONTINUOUS
10
276.1231459999999629
20
-78.7228459999999899
11
263.2496600000000058
21
-80.5320969999999932
0
ARC
8
BLACK
10
261.3708209999999781
20
-67.1634760000000028
40
0.4999981871647136
50
-262.00014350
51
-171.99980307
0
ARC
8
BLACK
10
263.1800719999999956
20
-80.036964999999995
40
0.4999981871647136
50
-172.00014350
51
-81.99980307
0
ARC
8
BLACK
10
274.2443079999999895
20
-65.3542269999999945
40
0.4999998893519877
50
8.00005156
51
97.99993808
0
ARC
8
BLACK
10
276.0506330000000048
20
-78.2270129999999995
40
0.5000353518752449
50
-81.99586868
51
8.00168120
0
LINE
8
BLACK
6
CONTINUOUS
10
121.1396519999999981
20
-42.2337349999999958
11
122.9489030000000014
21
-29.3602489999999996
0
LINE
8
BLACK
6
CONTINUOUS
10
123.513621999999998
20
-28.9347010000000004
11
136.3871079999999836
21
-30.7439520000000002
0
LINE
8
BLACK
6
CONTINUOUS
10
134.4386859999999899
20
-44.6077049999999957
11
121.5651999999999902
21
-42.7984539999999996
0
LINE
8
BLACK
6
CONTINUOUS
10
136.812656000000004
20
-31.3086709999999968
11
135.0034049999999866
21
-44.1821569999999966
0
ARC
8
BLACK
10
121.6347919999999903
20
-42.3033159999999953
40
0.5000046854860463
50
-187.99927502
51
-98.00055514
0
ARC
8
BLACK
10
123.4440409999999986
20
-29.4298409999999997
40
0.5000046854860463
50
82.00072498
51
171.99944486
0
ARC
8
BLACK
10
134.5056519999999978
20
-44.1110919999999993
40
0.5000359889137981
50
-97.99591475
51
-7.99808395
0
ARC
8
BLACK
10
136.3175219999999968
20
-31.2390860000000004
40
0.4999998893519877
50
-7.99982461
51
82.00006192
0
LINE
8
BLACK
6
CONTINUOUS
10
218.8490599999999802
20
-38.3686409999999967
11
231.7225459999999941
21
-36.5593900000000005
0
LINE
8
BLACK
6
CONTINUOUS
10
220.2327640000000031
20
-51.8068469999999976
11
218.4235129999999856
21
-38.9333609999999979
0
LINE
8
BLACK
6
CONTINUOUS
10
232.2872659999999883
20
-36.9849369999999951
11
234.0965169999999773
21
-49.8584229999999948
0
LINE
8
BLACK
6
CONTINUOUS
10
233.6709699999999827
20
-50.4231429999999961
11
220.7974839999999972
21
-52.2323939999999993
0
ARC
8
BLACK
10
218.9186449999999979
20
-38.8637729999999948
40
0.4999981871647136
50
-262.00014350
51
-171.99980307
0
ARC
8
BLACK
10
220.727895999999987
20
-51.7372620000000012
40
0.4999981871647136
50
-172.00014350
51
-81.99980307
0
ARC
8
BLACK
10
231.792131999999981
20
-37.0545240000000007
40
0.4999998893519877
50
8.00005156
51
97.99993808
0
ARC
8
BLACK
10
233.5984569999999962
20
-49.9273099999999985
40
0.5000353518752449
50
-81.99586868
51
8.00168120
0
LINE
8
BLACK
6
CONTINUOUS
10
221.5002339999999776
20
-57.2334460000000007
11
234.3737199999999916
21
-55.4241949999999974
0
LINE
8
BLACK
6
CONTINUOUS
10
222.8839380000000006
20
-70.6716519999999946
11
221.0746869999999831
21
-57.7981659999999948
0
LINE
8
BLACK
6
CONTINUOUS
10
234.9384399999999857
20
-55.8497419999999991
11
236.7476910000000032
21
-68.7232279999999918
0
LINE
8
BLACK
6
CONTINUOUS
10
236.3221439999999802
20
-69.2879480000000001
11
223.4486579999999947
21
-71.0971990000000034
0
ARC
8
BLACK
10
221.5698189999999954
20
-57.7285779999999988
40
0.4999981871647136
50
-262.00014350
51
-171.99980307
0
ARC
8
BLACK
10
223.3790699999999845
20
-70.602066999999991
40
0.4999981871647136
50
-172.00014350
51
-81.99980307
0
ARC
8
BLACK
10
234.4433059999999784
20
-55.9193289999999976
40
0.4999998893519877
50
8.00005156
51
97.99993808
0
ARC
8
BLACK
10
236.2496309999999937
20
-68.7921149999999955
40
0.5000353518752449
50
-81.99586868
51
8.00168120
0
LINE
8
BLACK
6
CONTINUOUS
10
217.5132040000000018
20
-97.9080949999999888
11
217.5132069999999942
21
-84.9080929999999938
0
LINE
8
BLACK
6
CONTINUOUS
10
218.0132030000000043
20
-84.4080919999999963
11
231.0132049999999992
21
-84.408095000000003
0
LINE
8
BLACK
6
CONTINUOUS
10
231.0132069999999942
20
-98.4080939999999913
11
218.0132049999999992
21
-98.4080909999999989
0
LINE
8
BLACK
6
CONTINUOUS
10
231.5132059999999967
20
-84.9080909999999989
11
231.5132029999999759
21
-97.9080929999999938
0
ARC
8
BLACK
10
218.0132079999999917
20
-84.9080929999999938
40
0.500001
50
90.00057296
51
180.00000000
0
ARC
8
BLACK
10
218.0132049999999992
20
-97.9080900000000014
40
0.500001
50
-179.99942704
51
-90.00000000
0
ARC
8
BLACK
10
231.0132049999999992
20
-84.9080929999999938
40
0.499998
50
0.00022918
51
90.00000000
0
ARC
8
BLACK
10
231.0104350000000011
20
-97.9069729999999936
40
0.5000080000159998
50
-89.99931246
51
-0.00045836
0
LINE
8
BLACK
6
CONTINUOUS
10
44.4386299999999963
20
-40.4712490000000003
11
46.2478809999999996
21
-27.5977630000000005
0
LINE
8
BLACK
6
CONTINUOUS
10
46.8125999999999962
20
-27.1722149999999978
11
59.686085999999996
21
-28.9814659999999975
0
LINE
8
BLACK
6
CONTINUOUS
10
57.7376639999999952
20
-42.8452190000000002
11
44.8641779999999954
21
-41.0359679999999969
0
LINE
8
BLACK
6
CONTINUOUS
10
60.1116339999999951
20
-29.5461849999999977
11
58.302382999999999
21
-42.419671000000001
0
ARC
8
BLACK
10
44.9337699999999955
20
-40.5408299999999997
40
0.5000046854860463
50
-187.99927502
51
-98.00055514
0
ARC
8
BLACK
10
46.7430189999999968
20
-27.667354999999997
40
0.5000046854860463
50
82.00072498
51
171.99944486
0
ARC
8
BLACK
10
57.804629999999996
20
-42.3486059999999966
40
0.5000359889137981
50
-97.99591475
51
-7.99808395
0
ARC
8
BLACK
10
59.6164999999999949
20
-29.4765999999999977
40
0.4999998893519877
50
-7.99982461
51
82.00006192
0
LINE
8
BLACK
6
CONTINUOUS
10
161.6080419999999833
20
-105.6472929999999906
11
161.6068309999999997
21
-92.6472959999999972
0
LINE
8
BLACK
6
CONTINUOUS
10
167.8568279999999788
20
-92.1472929999999906
11
162.1068309999999997
21
-92.1472929999999906
0
LINE
8
BLACK
6
CONTINUOUS
10
167.8568309999999997
20
-106.1472929999999906
11
162.1080419999999833
21
-106.1472949999999997
0
LINE
8
BLACK
6
CONTINUOUS
10
168.3568329999999946
20
-105.6472929999999906
11
168.3568309999999997
21
-92.6472929999999906
0
LINE
8
BLACK
6
CONTINUOUS
10
185.4193329999999946
20
-105.6472929999999906
11
185.4193309999999997
21
-92.6472929999999906
0
LINE
8
BLACK
6
CONTINUOUS
10
191.6693309999999997
20
-92.1472929999999906
11
185.9193309999999997
21
-92.1472959999999972
0
LINE
8
BLACK
6
CONTINUOUS
10
191.6693309999999997
20
-106.1472929999999906
11
185.9193309999999997
21
-106.1472929999999906
0
LINE
8
BLACK
6
CONTINUOUS
10
192.1693309999999997
20
-105.6472929999999906
11
192.1693309999999997
21
-92.6472909999999956
0
ARC
8
BLACK
10
162.1068809999999871
20
-92.6472940000000023
40
0.5000500000039996
50
-269.99427043
51
-179.99977084
0
ARC
8
BLACK
10
162.1080809999999985
20
-105.6472940000000023
40
0.5000010015209969
50
-180.00011458
51
-90.00446906
0
ARC
8
BLACK
10
167.8567809999999838
20
-92.6472940000000023
40
0.5000010022089956
50
0.00011458
51
89.99461421
0
ARC
8
BLACK
10
167.8567809999999838
20
-105.6472940000000023
40
0.5000520000009999
50
-89.99427041
51
0.00011458
0
ARC
8
BLACK
10
185.9193269999999814
20
-92.6472919999999931
40
0.499996000001
50
-270.00045837
51
-179.99988541
0
ARC
8
BLACK
10
185.9193309999999997
20
-105.6472949999999997
40
0.499998
50
-180.00022918
51
-90.00000000
0
ARC
8
BLACK
10
191.6693300000000022
20
-92.6472940000000023
40
0.500001000001
50
0.00034377
51
89.99988541
0
ARC
8
BLACK
10
191.6693300000000022
20
-105.6472919999999931
40
0.500001000001
50
-89.99988541
51
-0.00011459
0
LINE
8
BLACK
6
CONTINUOUS
10
198.4632039999999904
20
-101.3846939999999961
11
198.4632069999999828
21
-88.3846920000000011
0
LINE
8
BLACK
6
CONTINUOUS
10
198.9632029999999929
20
-87.8846909999999895
11
211.9632049999999879
21
-87.8846939999999961
0
LINE
8
BLACK
6
CONTINUOUS
10
211.9632069999999828
20
-101.8846929999999986
11
198.9632049999999879
21
-101.884689999999992
0
LINE
8
BLACK
6
CONTINUOUS
10
212.4632059999999854
20
-88.384689999999992
11
212.4632029999999929
21
-101.3846920000000011
0
ARC
8
BLACK
10
198.9632079999999803
20
-88.3846920000000011
40
0.500001
50
90.00057296
51
180.00000000
0
ARC
8
BLACK
10
198.9632049999999879
20
-101.3846889999999945
40
0.500001
50
-179.99942704
51
-90.00000000
0
ARC
8
BLACK
10
211.9632049999999879
20
-88.3846920000000011
40
0.499998
50
0.00022918
51
90.00000000
0
ARC
8
BLACK
10
211.9604349999999897
20
-101.3835720000000009
40
0.5000080000159998
50
-89.99931246
51
-0.00045836
0
LINE
8
BLACK
6
CONTINUOUS
10
216.1979409999999859
20
-19.5042429999999989
11
229.0714269999999999
21
-17.6949919999999992
0
LINE
8
BLACK
6
CONTINUOUS
10
217.5816449999999804
20
-32.9424489999999963
11
215.7723939999999914
21
-20.0689630000000001
0
LINE
8
BLACK
6
CONTINUOUS
10
229.636146999999994
20
-18.1205390000000008
11
231.4453979999999831
21
-30.994024999999997
0
LINE
8
BLACK
6
CONTINUOUS
10
231.0198509999999885
20
-31.5587449999999983
11
218.146365000000003
21
-33.367995999999998
0
ARC
8
BLACK
10
216.2675260000000037
20
-19.9993750000000006
40
0.4999981871647136
50
-262.00014350
51
-171.99980307
0
ARC
8
BLACK
10
218.0767769999999928
20
-32.8728639999999999
40
0.4999981871647136
50
-172.00014350
51
-81.99980307
0
ARC
8
BLACK
10
229.1410129999999867
20
-18.1901259999999994
40
0.4999998893519877
50
8.00005156
51
97.99993808
0
ARC
8
BLACK
10
230.947338000000002
20
-31.0629119999999972
40
0.5000353518752449
50
-81.99586868
51
8.00168120
0
LINE
8
BLACK
6
CONTINUOUS
10
84.2390299999999996
20
-31.0356509999999979
11
86.0482810000000029
21
-18.1621649999999981
0
LINE
8
BLACK
6
CONTINUOUS
10
86.6129999999999995
20
-17.736616999999999
11
99.4864859999999993
21
-19.5458679999999987
0
LINE
8
BLACK
6
CONTINUOUS
10
97.5380639999999914
20
-33.4096210000000013
11
84.6645779999999917
21
-31.6003699999999981
0
LINE
8
BLACK
6
CONTINUOUS
10
99.9120339999999914
20
-20.1105869999999989
11
98.1027830000000023
21
-32.9840729999999951
0
ARC
8
BLACK
10
84.7341699999999918
20
-31.1052319999999973
40
0.5000046854860463
50
-187.99927502
51
-98.00055514
0
ARC
8
BLACK
10
86.5434190000000001
20
-18.2317569999999982
40
0.5000046854860463
50
82.00072498
51
171.99944486
0
ARC
8
BLACK
10
97.6050299999999993
20
-32.9130079999999978
40
0.5000359889137981
50
-97.99591475
51
-7.99808395
0
ARC
8
BLACK
10
99.4168999999999983
20
-20.0410019999999989
40
0.4999998893519877
50
-7.99982461
51
82.00006192
0
LINE
8
BLACK
6
CONTINUOUS
10
179.413078999999982
20
-106.6472949999999997
11
179.4130820000000028
21
-93.6472929999999906
0
LINE
8
BLACK
6
CONTINUOUS
10
179.9130779999999845
20
-93.1472919999999931
11
192.9130799999999795
21
-93.1472949999999997
0
LINE
8
BLACK
6
CONTINUOUS
10
192.9130820000000028
20
-107.1472940000000023
11
179.9130799999999795
21
-107.1472909999999956
0
LINE
8
BLACK
6
CONTINUOUS
10
193.4130810000000054
20
-93.6472909999999956
11
193.4130779999999845
21
-106.6472929999999906
0
ARC
8
BLACK
10
179.9130830000000003
20
-93.6472929999999906
40
0.500001
50
90.00057296
51
180.00000000
0
ARC
8
BLACK
10
179.9130799999999795
20
-106.6472899999999981
40
0.500001
50
-179.99942704
51
-90.00000000
0
ARC
8
BLACK
10
192.9130799999999795
20
-93.6472929999999906
40
0.499998
50
0.00022918
51
90.00000000
0
ARC
8
BLACK
10
192.9103099999999813
20
-106.6461729999999903
40
0.5000080000159998
50
-89.99931246
51
-0.00045836
0
LINE
8
BLACK
6
CONTINUOUS
10
56.9240129999999951
20
-88.5149499999999989
11
58.7332639999999984
21
-75.6414639999999991
0
LINE
8
BLACK
6
CONTINUOUS
10
59.297982999999995
20
-75.2159159999999929
11
72.1714690000000019
21
-77.0251669999999962
0
LINE
8
BLACK
6
CONTINUOUS
10
70.223046999999994
20
-90.8889199999999988
11
57.3495609999999942
21
-89.0796689999999955
0
LINE
8
BLACK
6
CONTINUOUS
10
72.5970169999999939
20
-77.5898859999999928
11
70.7877659999999906
21
-90.4633719999999926
0
ARC
8
BLACK
10
57.4191529999999943
20
-88.5845309999999984
40
0.5000046854860463
50
-187.99927502
51
-98.00055514
0
ARC
8
BLACK
10
59.2284019999999956
20
-75.7110559999999992
40
0.5000046854860463
50
82.00072498
51
171.99944486
0
ARC
8
BLACK
10
70.2900130000000019
20
-90.3923070000000024
40
0.5000359889137981
50
-97.99591475
51
-7.99808395
0
ARC
8
BLACK
10
72.1018830000000008
20
-77.5203010000000035
40
0.4999998893519877
50
-7.99982461
51
82.00006192
0
LINE
8
BLACK
6
CONTINUOUS
10
64.8775519999999943
20
-31.9219349999999977
11
66.6868029999999976
21
-19.048448999999998
0
LINE
8
BLACK
6
CONTINUOUS
10
67.2515219999999943
20
-18.6229009999999988
11
80.125007999999994
21
-20.4321519999999985
0
LINE
8
BLACK
6
CONTINUOUS
10
78.1765860000000004
20
-34.2959049999999976
11
65.3031000000000006
21
-32.4866540000000015
0
LINE
8
BLACK
6
CONTINUOUS
10
80.5505560000000003
20
-20.9968709999999987
11
78.741304999999997
21
-33.8703569999999985
0
ARC
8
BLACK
10
65.3726920000000007
20
-31.9915159999999972
40
0.5000046854860463
50
-187.99927502
51
-98.00055514
0
ARC
8
BLACK
10
67.1819409999999948
20
-19.1180409999999981
40
0.5000046854860463
50
82.00072498
51
171.99944486
0
ARC
8
BLACK
10
78.243551999999994
20
-33.7992920000000012
40
0.5000359889137981
50
-97.99591475
51
-7.99808395
0
ARC
8
BLACK
10
80.055421999999993
20
-20.9272859999999987
40
0.4999998893519877
50
-7.99982461
51
82.00006192
0
LINE
8
BLACK
6
CONTINUOUS
10
123.5081659999999886
20
-105.6472929999999906
11
123.5069549999999907
21
-92.6472959999999972
0
LINE
8
BLACK
6
CONTINUOUS
10
129.7569519999999841
20
-92.1472929999999906
11
124.0069549999999907
21
-92.1472929999999906
0
LINE
8
BLACK
6
CONTINUOUS
10
129.7569550000000049
20
-106.1472929999999906
11
124.0081659999999886
21
-106.1472949999999997
0
LINE
8
BLACK
6
CONTINUOUS
10
130.2569569999999999
20
-105.6472929999999906
11
130.2569550000000049
21
-92.6472929999999906
0
LINE
8
BLACK
6
CONTINUOUS
10
147.3194569999999999
20
-105.6472929999999906
11
147.3194550000000049
21
-92.6472929999999906
0
LINE
8
BLACK
6
CONTINUOUS
10
153.5694550000000049
20
-92.1472929999999906
11
147.8194550000000049
21
-92.1472959999999972
0
LINE
8
BLACK
6
CONTINUOUS
10
153.5694550000000049
20
-106.1472929999999906
11
147.8194550000000049
21
-106.1472929999999906
0
LINE
8
BLACK
6
CONTINUOUS
10
154.0694550000000049
20
-105.6472929999999906
11
154.0694550000000049
21
-92.6472909999999956
0
ARC
8
BLACK
10
124.0070049999999924
20
-92.6472940000000023
40
0.5000500000039996
50
-269.99427043
51
-179.99977084
0
ARC
8
BLACK
10
124.0082049999999896
20
-105.6472940000000023
40
0.5000010015209969
50
-180.00011458
51
-90.00446906
0
ARC
8
BLACK
10
129.7569049999999891
20
-92.6472940000000023
40
0.5000010022089956
50
0.00011458
51
89.99461421
0
ARC
8
BLACK
10
129.7569049999999891
20
-105.6472940000000023
40
0.5000520000009999
50
-89.99427041
51
0.00011458
0
ARC
8
BLACK
10
147.8194509999999866
20
-92.6472919999999931
40
0.499996000001
50
-270.00045837
51
-179.99988541
0
ARC
8
BLACK
10
147.8194550000000049
20
-105.6472949999999997
40
0.499998
50
-180.00022918
51
-90.00000000
0
ARC
8
BLACK
10
153.569453999999979
20
-92.6472940000000023
40
0.500001000001
50
0.00034377
51
89.99988541
0
ARC
8
BLACK
10
153.569453999999979
20
-105.6472919999999931
40
0.500001000001
50
-89.99988541
51
-0.00011459
0
LINE
8
BLACK
6
CONTINUOUS
10
115.8376519999999914
20
-79.9628340000000009
11
117.6469029999999947
21
-67.0893480000000011
0
LINE
8
BLACK
6
CONTINUOUS
10
118.2116219999999913
20
-66.6637999999999948
11
131.0851079999999911
21
-68.4730509999999981
0
LINE
8
BLACK
6
CONTINUOUS
10
129.1366859999999974
20
-82.3368040000000008
11
116.2631999999999977
21
-80.5275529999999975
0
LINE
8
BLACK
6
CONTINUOUS
10
131.5106559999999831
20
-69.0377699999999948
11
129.7014049999999941
21
-81.9112559999999945
0
ARC
8
BLACK
10
116.3327919999999978
20
-80.0324150000000003
40
0.5000046854860463
50
-187.99927502
51
-98.00055514
0
ARC
8
BLACK
10
118.1420409999999919
20
-67.1589400000000012
40
0.5000046854860463
50
82.00072498
51
171.99944486
0
ARC
8
BLACK
10
129.2036520000000053
20
-81.8401909999999901
40
0.5000359889137981
50
-97.99591475
51
-7.99808395
0
ARC
8
BLACK
10
131.0155220000000043
20
-68.9681849999999912
40
0.4999998893519877
50
-7.99982461
51
82.00006192
0
LINE
8
BLACK
6
CONTINUOUS
10
263.9520610000000147
20
-85.5328399999999931
11
276.8255469999999718
21
-83.7235889999999898
0
LINE
8
BLACK
6
CONTINUOUS
10
265.3357649999999808
20
-98.9710460000000012
11
263.5265139999999633
21
-86.0975600000000014
0
LINE
8
BLACK
6
CONTINUOUS
10
277.3902669999999944
20
-84.1491359999999986
11
279.1995180000000119
21
-97.0226219999999984
0
LINE
8
BLACK
6
CONTINUOUS
10
278.7739709999999604
20
-97.5873419999999925
11
265.9004850000000033
21
-99.3965929999999958
0
ARC
8
BLACK
10
264.0216459999999756
20
-86.0279719999999912
40
0.4999981871647136
50
-262.00014350
51
-171.99980307
0
ARC
8
BLACK
10
265.8308969999999931
20
-98.9014609999999976
40
0.4999981871647136
50
-172.00014350
51
-81.99980307
0
ARC
8
BLACK
10
276.8951329999999871
20
-84.2187229999999971
40
0.4999998893519877
50
8.00005156
51
97.99993808
0
ARC
8
BLACK
10
278.7014580000000024
20
-97.0915090000000021
40
0.5000353518752449
50
-81.99586868
51
8.00168120
0
LINE
8
BLACK
6
CONTINUOUS
10
280.1651160000000118
20
-64.0173489999999958
11
293.0386019999999689
21
-62.2080979999999997
0
LINE
8
BLACK
6
CONTINUOUS
10
281.5488199999999779
20
-77.4555549999999897
11
279.7395689999999604
21
-64.5820690000000042
0
LINE
8
BLACK
6
CONTINUOUS
10
293.6033219999999915
20
-62.6336449999999942
11
295.412573000000009
21
-75.5071310000000011
0
LINE
8
BLACK
6
CONTINUOUS
10
294.9870260000000144
20
-76.0718509999999952
11
282.1135400000000004
21
-77.8811019999999985
0
ARC
8
BLACK
10
280.2347009999999727
20
-64.512480999999994
40
0.4999981871647136
50
-262.00014350
51
-171.99980307
0
ARC
8
BLACK
10
282.0439519999999902
20
-77.3859700000000004
40
0.4999981871647136
50
-172.00014350
51
-81.99980307
0
ARC
8
BLACK
10
293.1081879999999842
20
-62.7032319999999999
40
0.4999998893519877
50
8.00005156
51
97.99993808
0
ARC
8
BLACK
10
294.9145129999999995
20
-75.5760179999999906
40
0.5000353518752449
50
-81.99586868
51
8.00168120
0
LINE
8
BLACK
6
CONTINUOUS
10
274.8628239999999892
20
-26.2881459999999976
11
287.7363100000000031
21
-24.4788949999999979
0
LINE
8
BLACK
6
CONTINUOUS
10
276.2465280000000121
20
-39.7263519999999986
11
274.4372769999999946
21
-26.8528659999999988
0
LINE
8
BLACK
6
CONTINUOUS
10
288.3010299999999688
20
-24.9044419999999995
11
290.1102809999999863
21
-37.7779279999999957
0
LINE
8
BLACK
6
CONTINUOUS
10
289.6847339999999917
20
-38.342647999999997
11
276.8112479999999778
21
-40.1518990000000002
0
ARC
8
BLACK
10
274.9324090000000069
20
-26.7832779999999993
40
0.4999981871647136
50
-262.00014350
51
-171.99980307
0
ARC
8
BLACK
10
276.7416599999999676
20
-39.656766999999995
40
0.4999981871647136
50
-172.00014350
51
-81.99980307
0
ARC
8
BLACK
10
287.8058959999999615
20
-24.974028999999998
40
0.4999998893519877
50
8.00005156
51
97.99993808
0
ARC
8
BLACK
10
289.6122209999999768
20
-37.8468149999999994
40
0.5000353518752449
50
-81.99586868
51
8.00168120
0
LINE
8
BLACK
6
CONTINUOUS
10
99.9556529999999981
20
-56.0889339999999947
11
101.7649040000000014
21
-43.215447999999995
0
LINE
8
BLACK
6
CONTINUOUS
10
102.329622999999998
20
-42.7898999999999958
11
115.2031089999999978
21
-44.5991509999999991
0
LINE
8
BLACK
6
CONTINUOUS
10
113.2546869999999899
20
-58.4629039999999947
11
100.3812009999999901
21
-56.6536529999999985
0
LINE
8
BLACK
6
CONTINUOUS
10
115.6286569999999898
20
-45.1638699999999957
11
113.8194060000000007
21
-58.0373559999999955
0
ARC
8
BLACK
10
100.4507929999999902
20
-56.1585149999999942
40
0.5000046854860463
50
-187.99927502
51
-98.00055514
0
ARC
8
BLACK
10
102.2600419999999986
20
-43.2850399999999951
40
0.5000046854860463
50
82.00072498
51
171.99944486
0
ARC
8
BLACK
10
113.3216529999999977
20
-57.9662909999999982
40
0.5000359889137981
50
-97.99591475
51
-7.99808395
0
ARC
8
BLACK
10
115.1335229999999967
20
-45.0942849999999993
40
0.4999998893519877
50
-7.99982461
51
82.00006192
0
LINE
8
BLACK
6
CONTINUOUS
10
78.9369319999999988
20
-68.7650319999999908
11
80.746183000000002
21
-55.8915459999999982
0
LINE
8
BLACK
6
CONTINUOUS
10
81.3109019999999987
20
-55.465997999999999
11
94.1843879999999984
21
-57.2752489999999952
0
LINE
8
BLACK
6
CONTINUOUS
10
92.2359659999999906
20
-71.1390019999999907
11
79.3624799999999908
21
-69.3297510000000017
0
LINE
8
BLACK
6
CONTINUOUS
10
94.6099359999999905
20
-57.8399679999999989
11
92.8006850000000014
21
-70.7134539999999987
0
ARC
8
BLACK
10
79.4320719999999909
20
-68.8346129999999903
40
0.5000046854860463
50
-187.99927502
51
-98.00055514
0
ARC
8
BLACK
10
81.2413209999999992
20
-55.9611379999999983
40
0.5000046854860463
50
82.00072498
51
171.99944486
0
ARC
8
BLACK
10
92.3029319999999984
20
-70.6423889999999943
40
0.5000359889137981
50
-97.99591475
51
-7.99808395
0
ARC
8
BLACK
10
94.1148019999999974
20
-57.7703829999999954
40
0.4999998893519877
50
-7.99982461
51
82.00006192
0
LINE
8
BLACK
6
CONTINUOUS
10
39.1362519999999989
20
-78.2007349999999946
11
40.9455029999999951
21
-65.3272489999999948
0
LINE
8
BLACK
6
CONTINUOUS
10
41.5102219999999988
20
-64.9017010000000028
11
54.3837079999999986
21
-66.7109519999999918
0
LINE
8
BLACK
6
CONTINUOUS
10
52.4352859999999978
20
-80.5747049999999945
11
39.5617999999999981
21
-78.7654539999999912
0
LINE
8
BLACK
6
CONTINUOUS
10
54.8092559999999978
20
-67.2756710000000027
11
53.0000049999999945
21
-80.1491570000000024
0
ARC
8
BLACK
10
39.6313919999999982
20
-78.270315999999994
40
0.5000046854860463
50
-187.99927502
51
-98.00055514
0
ARC
8
BLACK
10
41.4406409999999994
20
-65.3968409999999949
40
0.5000046854860463
50
82.00072498
51
171.99944486
0
ARC
8
BLACK
10
52.5022519999999986
20
-80.0780919999999981
40
0.5000359889137981
50
-97.99591475
51
-7.99808395
0
ARC
8
BLACK
10
54.3141219999999976
20
-67.2060859999999991
40
0.4999998893519877
50
-7.99982461
51
82.00006192
  0
ENDSEC
  0
EOF
